<?xml version="1.0" encoding="iso-8859-1"?>
<!-- Generator: Adobe Illustrator 19.0.0, SVG Export Plug-In . SVG Version: 6.00 Build 0)  -->
<svg version="1.1" id="Capa_1" xmlns="http://www.w3.org/2000/svg" xmlns:xlink="http://www.w3.org/1999/xlink" x="0px" y="0px"
	 viewBox="0 0 480 480" style="enable-background:new 0 0 480 480;" xml:space="preserve">
<g>
	<path style="fill:#B9B9B9;" d="M416,432h32v40h-32V432z"/>
	<path style="fill:#B9B9B9;" d="M48,424h32v48H48V424z"/>
</g>
<g>
	<path style="fill:#D9D9D9;" d="M200,112c-4.418,0-8-3.582-8-8V8c0-4.418,3.582-8,8-8s8,3.582,8,8v96
		C208,108.418,204.418,112,200,112z"/>
	<path style="fill:#D9D9D9;" d="M280,112c-4.418,0-8-3.582-8-8V8c0-4.418,3.582-8,8-8s8,3.582,8,8v96
		C288,108.418,284.418,112,280,112z"/>
</g>
<path style="fill:#DC4D41;" d="M176,24h48v64h-48V24z"/>
<path style="fill:#FBB540;" d="M256,24h48v64h-48V24z"/>
<path style="fill:#B9B9B9;" d="M392,336c-4.418,0-8-3.582-8-8v-48c0-4.418,3.582-8,8-8s8,3.582,8,8v48
	C400,332.418,396.418,336,392,336z"/>
<path style="fill:#D9D9D9;" d="M368,240h48v40h-48V240z"/>
<path style="fill:#B9B9B9;" d="M368,240h48v24h-48V240z"/>
<path style="fill:#EBEBEB;" d="M344,184h96v64h-96V184z"/>
<g>
	<path style="fill:#D9D9D9;" d="M344,184h96v40h-96V184z"/>
	<path style="fill:#D9D9D9;" d="M439.136,200H168v-88h287.568c8.954-0.116,16.309,7.046,16.432,16v40
		C471.759,185.91,457.047,200.236,439.136,200z"/>
	<path style="fill:#D9D9D9;" d="M8,168h56v64H8V168z"/>
</g>
<path style="fill:#B9B9B9;" d="M8,208h56v24H8V208z"/>
<g>
	<path style="fill:#EBEBEB;" d="M48,104h128v336H48V104z"/>
	<path style="fill:#EBEBEB;" d="M160,328h312l0,0v96c0,8.837-7.163,16-16,16H160l0,0V328L160,328z"/>
</g>
<circle style="fill:#D9D9D9;" cx="112" cy="280" r="32"/>
<path style="fill:#B9B9B9;" d="M86.4,260.944c-10.646,14.068-7.873,34.102,6.195,44.749c13.893,10.514,33.648,7.956,44.405-5.749
	L86.4,260.944z"/>
<circle style="fill:#D9D9D9;" cx="112" cy="376" r="32"/>
<path style="fill:#B9B9B9;" d="M86.4,356.944c-10.646,14.068-7.873,34.102,6.195,44.749c13.893,10.514,33.648,7.956,44.405-5.749
	L86.4,356.944z"/>
<path style="fill:#EBEBEB;" d="M472,144H160v-40h295.136c10.143,0.936,17.655,9.844,16.864,20V144z"/>
<path style="fill:#B9B9B9;" d="M288,328h184v32H288V328z"/>
<path style="fill:#C7463B;" d="M312,328l72,64l64-64H312z"/>
<path style="fill:#B3E4E8;" d="M80,144h64v40H80V144z"/>
<g>
	<path style="fill:#6FBBC6;" d="M72,208h16v16H72V208z"/>
	<path style="fill:#6FBBC6;" d="M104,208h16v16h-16V208z"/>
	<path style="fill:#6FBBC6;" d="M136,208h16v16h-16V208z"/>
</g>
<g>
	<path style="fill:#231F20;" d="M115.392,240.152c-13.718-1.211-27.08,4.79-35.288,15.848L80,256.144
		c-13.225,17.623-9.66,42.631,7.963,55.857c5.999,4.502,13.146,7.222,20.621,7.847c1.16,0.104,2.312,0.152,3.464,0.152
		c22.091-0.089,39.928-18.069,39.839-40.16c-0.083-20.681-15.917-37.889-36.519-39.688L115.392,240.152z M109.96,303.912
		c-13.203-1.127-22.993-12.741-21.872-25.944c0.148-1.659,0.472-3.298,0.968-4.888l35.44,27.32
		C120.148,303.089,115.056,304.319,109.96,303.912z M134.552,287.952l-36-27.744c3.955-2.728,8.643-4.195,13.448-4.208
		c0.68,0,1.368,0,2.056,0.088c13.057,0.946,22.875,12.297,21.93,25.354c-0.161,2.225-0.636,4.417-1.41,6.51L134.552,287.952z"/>
	<path style="fill:#231F20;" d="M115.392,336.152c-13.64-1.201-26.934,4.725-35.16,15.672c-0.064,0.08-0.152,0.112-0.216,0.192
		s-0.16,0.384-0.28,0.568c-12.999,17.769-9.132,42.712,8.637,55.711c5.921,4.332,12.924,6.946,20.235,7.553
		c1.16,0.104,2.312,0.152,3.464,0.152c22.091-0.089,39.928-18.069,39.839-40.16C151.829,355.159,135.995,337.951,115.392,336.152z
		 M109.96,399.912c-13.15-1.061-22.951-12.581-21.89-25.731c0.14-1.731,0.467-3.441,0.978-5.101l35.44,27.32
		C120.143,399.087,115.053,400.318,109.96,399.912z M134.552,383.952l-36-27.744c3.954-2.729,8.643-4.196,13.448-4.208
		c0.68,0,1.368,0,2.056,0.088c13.057,0.946,22.875,12.297,21.93,25.354c-0.161,2.225-0.636,4.417-1.41,6.51L134.552,383.952z"/>
	<path style="fill:#231F20;" d="M456,104H288v-8h24V16h-24V8c0-4.418-3.582-8-8-8s-8,3.582-8,8v8h-24v80h24v8h-64v-8h24V16h-24V8
		c0-4.418-3.582-8-8-8s-8,3.582-8,8v8h-24v80h24v8H40v56H8c-4.418,0-8,3.582-8,8v64c0,4.418,3.582,8,8,8h32v240h48v-32h320v32h48
		v-32c13.255,0,24-10.745,24-24l0,0V320h-80v-32h16c4.418,0,8-3.582,8-8v-24h24v-48.8c18.611-3.827,31.976-20.199,32-39.2v-40
		C480,114.745,469.255,104,456,104z M40,224H16v-48h24V224z M72,464H56v-16h16V464z M168,144v288H56V120h112V144z M264,80V32h32v48
		H264z M184,80V32h32v48H184z M184,208h152v48h24v24c0,4.418,3.582,8,8,8h16v32H184V208z M326.96,352H296v-16h12.96L326.96,352z
		 M440,464h-16v-16h16V464z M464,424c0,4.418-3.582,8-8,8H184v-96h96v32h64c0.27-0.036,0.537-0.09,0.8-0.16l33.896,30.136
		c3.166,2.817,7.98,2.677,10.976-0.32L419.312,368H464L464,424z M451.312,336H464v16h-28.688L451.312,336z M428.688,336
		l-18.344,18.336L383.672,381l-50.632-45H428.688z M408,272h-32v-16h32V272z M432,240h-80v-32h80V240z M464,168
		c0,13.255-10.745,24-24,24H184v-40h280V168z M464,136H184v-16h272c4.418,0,8,3.582,8,8V136z"/>
	<path style="fill:#231F20;" d="M152,136H72v56h80V136z M136,176H88v-24h48V176z"/>
	<path style="fill:#231F20;" d="M72,208h16v16H72V208z"/>
	<path style="fill:#231F20;" d="M104,208h16v16h-16V208z"/>
	<path style="fill:#231F20;" d="M136,208h16v16h-16V208z"/>
</g>
<g>
</g>
<g>
</g>
<g>
</g>
<g>
</g>
<g>
</g>
<g>
</g>
<g>
</g>
<g>
</g>
<g>
</g>
<g>
</g>
<g>
</g>
<g>
</g>
<g>
</g>
<g>
</g>
<g>
</g>
</svg>
