<?xml version="1.0" encoding="iso-8859-1"?>
<!-- Generator: Adobe Illustrator 19.0.0, SVG Export Plug-In . SVG Version: 6.00 Build 0)  -->
<svg version="1.1" id="Capa_1" xmlns="http://www.w3.org/2000/svg" xmlns:xlink="http://www.w3.org/1999/xlink" x="0px" y="0px"
	 viewBox="0 0 480 480" style="enable-background:new 0 0 480 480;" xml:space="preserve">
<path style="fill:#4799CF;" d="M368,40h96v32h-96V40z"/>
<g>
	<path style="fill:#277BAA;" d="M416,40h48v32h-48V40z"/>
	<path style="fill:#277BAA;" d="M288,40h96l0,0v48c0,17.673-14.327,32-32,32h-32c-17.673,0-32-14.327-32-32V40L288,40z"/>
	<path style="fill:#277BAA;" d="M320,112h32v16h-32V112z"/>
</g>
<g>
	<path style="fill:#C7463B;" d="M128,8h32v32h-32V8z"/>
	<path style="fill:#C7463B;" d="M72,32h32v16H72V32z"/>
	<path style="fill:#C7463B;" d="M184,32h32v16h-32V32z"/>
</g>
<path style="fill:#EA9D2D;" d="M16,152h448v320H16V152z"/>
<path style="fill:#EAEAE8;" d="M64,152h352v112H64V152z"/>
<path style="fill:#C7463B;" d="M200,128H88V32h112V128z"/>
<path style="fill:#EA6B65;" d="M200,88H88V32h112V88z"/>
<g>
	<path style="fill:#744630;" d="M80,120h128c8.837,0,16,7.163,16,16v16l0,0H64l0,0v-16C64,127.163,71.163,120,80,120z"/>
	<path style="fill:#744630;" d="M272,120h128c8.837,0,16,7.163,16,16v16l0,0H256l0,0v-16C256,127.163,263.163,120,272,120z"/>
</g>
<g>
	<circle style="fill:#B9B9B9;" cx="120" cy="208" r="24"/>
	<circle style="fill:#B9B9B9;" cx="200" cy="208" r="24"/>
	<circle style="fill:#B9B9B9;" cx="280" cy="208" r="24"/>
	<circle style="fill:#B9B9B9;" cx="360" cy="208" r="24"/>
</g>
<path style="fill:#EAEAE8;" d="M72,296h344v176H72V296z"/>
<path style="fill:#744630;" d="M128,320h224v16H128V320z"/>
<g>
	<path style="fill:#B9B9B9;" d="M168,384h16v16h-16V384z"/>
	<path style="fill:#B9B9B9;" d="M168,432h16v16h-16V432z"/>
	<path style="fill:#B9B9B9;" d="M232,384h16v16h-16V384z"/>
	<path style="fill:#B9B9B9;" d="M232,432h16v16h-16V432z"/>
	<path style="fill:#B9B9B9;" d="M296,384h16v16h-16V384z"/>
	<path style="fill:#B9B9B9;" d="M296,432h16v16h-16V432z"/>
	<path style="fill:#B9B9B9;" d="M200,408h16v16h-16V408z"/>
	<path style="fill:#B9B9B9;" d="M264,408h16v16h-16V408z"/>
</g>
<g>
	<path style="fill:#EA9D2D;" d="M296,0h16v16h-16V0z"/>
	<path style="fill:#EA9D2D;" d="M328,0h16v16h-16V0z"/>
	<path style="fill:#EA9D2D;" d="M360,0h16v16h-16V0z"/>
</g>
<g>
	<path style="fill:#62666A;" d="M96,208c0,13.255,10.745,24,24,24v-48C106.745,184,96,194.745,96,208z"/>
	<path style="fill:#62666A;" d="M176,208c0,13.255,10.745,24,24,24v-48C186.745,184,176,194.745,176,208z"/>
	<path style="fill:#62666A;" d="M256,208c0,13.255,10.745,24,24,24v-48C266.745,184,256,194.745,256,208z"/>
	<path style="fill:#62666A;" d="M336,208c0,13.255,10.745,24,24,24v-48C346.745,184,336,194.745,336,208z"/>
</g>
<g>
	<path style="fill:#231F20;" d="M120,176c-17.673,0-32,14.327-32,32s14.327,32,32,32s32-14.327,32-32S137.673,176,120,176z M120,224
		c-8.837,0-16-7.163-16-16s7.163-16,16-16s16,7.163,16,16S128.837,224,120,224z"/>
	<path style="fill:#231F20;" d="M200,176c-17.673,0-32,14.327-32,32s14.327,32,32,32s32-14.327,32-32S217.673,176,200,176z M200,224
		c-8.837,0-16-7.163-16-16s7.163-16,16-16s16,7.163,16,16S208.837,224,200,224z"/>
	<path style="fill:#231F20;" d="M280,176c-17.673,0-32,14.327-32,32s14.327,32,32,32s32-14.327,32-32S297.673,176,280,176z M280,224
		c-8.837,0-16-7.163-16-16s7.163-16,16-16s16,7.163,16,16S288.837,224,280,224z"/>
	<path style="fill:#231F20;" d="M360,176c-17.673,0-32,14.327-32,32s14.327,32,32,32s32-14.327,32-32S377.673,176,360,176z M360,224
		c-8.837,0-16-7.163-16-16s7.163-16,16-16s16,7.163,16,16S368.837,224,360,224z"/>
	<path style="fill:#231F20;" d="M416,480h56V144h-48v-8c0-13.255-10.745-24-24-24h-16.208c5.294-6.883,8.179-15.316,8.208-24v-8h80
		V32H280v56c0.029,8.684,2.914,17.117,8.208,24H272c-13.255,0-24,10.745-24,24v8h-16v-8c0-13.255-10.745-24-24-24h-8V48h16V32h-48V8
		c0-4.418-3.582-8-8-8h-32c-4.418,0-8,3.582-8,8v24H72v16h16v64h-8c-13.255,0-24,10.745-24,24v8H8v336H416z M424,48h32v16h-32V48z
		 M392,48h16v16h-16V48z M408,464H80V304h328V464z M296,48h80v40c0,13.255-10.745,24-24,24h-32c-13.255,0-24-10.745-24-24V48z
		 M264,136c0-4.418,3.582-8,8-8h128c4.418,0,8,3.582,8,8v8H264V136z M136,16h16v16h-16V16z M104,48h80v24h-80V48z M104,88h80v24h-80
		V88z M72,136c0-4.418,3.582-8,8-8h128c4.418,0,8,3.582,8,8v8H72V136z M72,160h336v96H72V160z M64,296v168H24V160h32v104
		c0,4.418,3.582,8,8,8h352c4.418,0,8-3.582,8-8V160h32v304h-32V296c0-4.418-3.582-8-8-8H72C67.582,288,64,291.582,64,296z"/>
	<path style="fill:#231F20;" d="M128,320h224v16H128V320z"/>
	<path style="fill:#231F20;" d="M168,384h16v16h-16V384z"/>
	<path style="fill:#231F20;" d="M168,432h16v16h-16V432z"/>
	<path style="fill:#231F20;" d="M232,384h16v16h-16V384z"/>
	<path style="fill:#231F20;" d="M232,432h16v16h-16V432z"/>
	<path style="fill:#231F20;" d="M296,384h16v16h-16V384z"/>
	<path style="fill:#231F20;" d="M296,432h16v16h-16V432z"/>
	<path style="fill:#231F20;" d="M200,408h16v16h-16V408z"/>
	<path style="fill:#231F20;" d="M264,408h16v16h-16V408z"/>
	<path style="fill:#231F20;" d="M296,0h16v16h-16V0z"/>
	<path style="fill:#231F20;" d="M328,0h16v16h-16V0z"/>
	<path style="fill:#231F20;" d="M360,0h16v16h-16V0z"/>
</g>
<g>
</g>
<g>
</g>
<g>
</g>
<g>
</g>
<g>
</g>
<g>
</g>
<g>
</g>
<g>
</g>
<g>
</g>
<g>
</g>
<g>
</g>
<g>
</g>
<g>
</g>
<g>
</g>
<g>
</g>
</svg>
