<?xml version="1.0" encoding="iso-8859-1"?>
<!-- Generator: Adobe Illustrator 19.0.0, SVG Export Plug-In . SVG Version: 6.00 Build 0)  -->
<svg version="1.1" id="Capa_1" xmlns="http://www.w3.org/2000/svg" xmlns:xlink="http://www.w3.org/1999/xlink" x="0px" y="0px"
	 viewBox="0 0 480 480" style="enable-background:new 0 0 480 480;" xml:space="preserve">
<path style="fill:#A83B32;" d="M264.003,40v8h-48V24c0-8.837,7.163-16,16-16h16c8.837,0,16,7.163,16,16V40z"/>
<g>
	<path style="fill:#B94137;" d="M88.003,264h40v32h-40V264z"/>
	<path style="fill:#B94137;" d="M88.003,184h40v32h-40V184z"/>
	<path style="fill:#B94137;" d="M88.003,104h40v32h-40V104z"/>
	<path style="fill:#B94137;" d="M352.003,264h40v32h-40V264z"/>
	<path style="fill:#B94137;" d="M352.003,184h40v32h-40V184z"/>
	<path style="fill:#B94137;" d="M352.003,104h40v32h-40V104z"/>
</g>
<path style="fill:#DC4D41;" d="M120.003,264h240v80h-240V264z"/>
<path style="fill:#B3E4E8;" d="M120.003,104h240v248h-240V104z"/>
<path style="fill:#C7463B;" d="M168.003,40h144c26.51,0,48,21.49,48,48v16l0,0h-240l0,0V88C120.003,61.49,141.493,40,168.003,40z"/>
<g>
	<path style="fill:#EBEBEB;" d="M208.003,136h64v16h-64V136z"/>
	<path style="fill:#EBEBEB;" d="M208.003,216h64v16h-64V216z"/>
	<path style="fill:#EBEBEB;" d="M208.003,296h64v16h-64V296z"/>
</g>
<g>
	<path style="fill:#8ACED8;" d="M120.003,184h240v24h-240V184z"/>
	<path style="fill:#8ACED8;" d="M120.003,264h240v24h-240V264z"/>
	<path style="fill:#8ACED8;" d="M120.003,96h240v24h-240V96z"/>
</g>
<path style="fill:#C7463B;" d="M342.803,344h-205.6c-19.252-0.002-35.774,13.71-39.32,32.632l-12.552,66.944
	c-2.443,13.028,6.137,25.569,19.165,28.013c1.46,0.274,2.942,0.411,4.427,0.411h262.16c13.255,0.002,24.001-10.742,24.003-23.997
	c0-1.485-0.137-2.967-0.411-4.427l-12.552-66.944C378.577,357.71,362.055,343.998,342.803,344z"/>
<path style="fill:#EAEAE8;" d="M256.003,376h-32c-26.51,0-48,21.49-48,48v48h128v-48C304.003,397.49,282.513,376,256.003,376z"/>
<circle style="fill:#C7463B;" cx="240.003" cy="424" r="16"/>
<g>
	<path style="fill:#231F20;" d="M389.987,375.152c-2.515-13.247-10.496-24.821-21.984-31.88V304h32v-48h-32v-32h32v-48h-32v-32h32
		V96h-32v-8c-0.035-30.913-25.087-55.965-56-56h-40v-8c0-13.255-10.745-24-24-24h-16c-13.255,0-24,10.745-24,24v8h-40
		c-30.913,0.035-55.965,25.087-56,56v8h-32v48h32v32h-32v48h32v32h-32v48h32v39.272c-11.488,7.059-19.469,18.633-21.984,31.88
		l-12.552,66.952c-3.256,17.371,8.186,34.092,25.556,37.348c1.945,0.365,3.921,0.548,5.9,0.548h262.16
		c17.673,0.002,32.002-14.323,32.004-31.996c0-1.979-0.183-3.954-0.548-5.9L389.987,375.152z M368.003,112h16v16h-16V112z
		 M368.003,192h16v16h-16V192z M368.003,272h16v16h-16V272z M224.003,24c0-4.418,3.582-8,8-8h16c4.418,0,8,3.582,8,8v8h-32V24z
		 M128.003,88c0.026-22.08,17.92-39.974,40-40h144c22.08,0.026,39.974,17.92,40,40v8h-224V88z M128.003,144v-32h224v64h-224V144z
		 M128.003,224v-32h224v64h-224V224z M128.003,304v-32h224v64h-224V304z M96.003,128v-16h16v16H96.003z M96.003,208v-16h16v16
		H96.003z M96.003,288v-16h16v16H96.003z M296.003,464h-112v-40c0.026-22.08,17.92-39.974,40-40h32c22.08,0.026,39.974,17.92,40,40
		V464z M383.395,458.216c-3.039,3.663-7.552,5.783-12.312,5.784h-59.08v-40c-0.035-30.913-25.087-55.965-56-56h-32
		c-30.913,0.035-55.965,25.087-56,56v40h-59.08c-8.837,0.001-16.001-7.162-16.001-15.999c0-0.988,0.091-1.974,0.273-2.945
		l12.552-66.952c2.837-15.134,16.05-26.102,31.448-26.104h205.6c15.398,0.002,28.611,10.97,31.448,26.104l12.552,66.952
		C387.684,449.73,386.437,454.557,383.395,458.216z"/>
	<path style="fill:#231F20;" d="M240.003,400c-13.255,0-24,10.745-24,24s10.745,24,24,24c13.255,0,24-10.745,24-24l0,0
		C264.003,410.745,253.258,400,240.003,400z M240.003,432c-4.418,0-8-3.582-8-8s3.582-8,8-8s8,3.582,8,8S244.421,432,240.003,432z"
		/>
	<path style="fill:#231F20;" d="M208.003,136h64v16h-64V136z"/>
	<path style="fill:#231F20;" d="M208.003,216h64v16h-64V216z"/>
	<path style="fill:#231F20;" d="M208.003,296h64v16h-64V296z"/>
</g>
<g>
</g>
<g>
</g>
<g>
</g>
<g>
</g>
<g>
</g>
<g>
</g>
<g>
</g>
<g>
</g>
<g>
</g>
<g>
</g>
<g>
</g>
<g>
</g>
<g>
</g>
<g>
</g>
<g>
</g>
</svg>
