<?xml version="1.0" encoding="iso-8859-1"?>
<!-- Generator: Adobe Illustrator 19.0.0, SVG Export Plug-In . SVG Version: 6.00 Build 0)  -->
<svg version="1.1" id="Capa_1" xmlns="http://www.w3.org/2000/svg" xmlns:xlink="http://www.w3.org/1999/xlink" x="0px" y="0px"
	 viewBox="0 0 479.93 479.93" style="enable-background:new 0 0 479.93 479.93;" xml:space="preserve">
<path style="fill:#6B9777;" d="M168.004,43.965h144c26.51,0,48,21.49,48,48v296l0,0h-240l0,0v-296
	C120.004,65.455,141.495,43.965,168.004,43.965z"/>
<g>
	<path style="fill:#85BC94;" d="M360.004,387.965h-240v-64h-8v-14.752h8c0-27.208,17.912-49.248,40-49.248h160
		c22.088,0,40,22.04,40,49.232l8,0.52v14.248h-8V387.965z"/>
	<path style="fill:#85BC94;" d="M96.004,305.021h292v82.944h-292V305.021z"/>
</g>
<path style="fill:#6B9777;" d="M96.004,323.965h280v64h-280V323.965z"/>
<g>
	<path style="fill:#5E8569;" d="M176.004,75.965h16v48h-16V75.965z"/>
	<path style="fill:#5E8569;" d="M160.004,91.965h48v16h-48V91.965z"/>
	<path style="fill:#5E8569;" d="M232.004,131.965h16v48h-16V131.965z"/>
	<path style="fill:#5E8569;" d="M216.004,147.965h48v16h-48V147.965z"/>
	<path style="fill:#5E8569;" d="M288.004,187.965h16v48h-16V187.965z"/>
	<path style="fill:#5E8569;" d="M272.004,203.965h48v16h-48V203.965z"/>
	<path style="fill:#5E8569;" d="M176.004,187.965h16v48h-16V187.965z"/>
	<path style="fill:#5E8569;" d="M160.004,203.965h48v16h-48V203.965z"/>
	<path style="fill:#5E8569;" d="M288.004,75.965h16v48h-16V75.965z"/>
	<path style="fill:#5E8569;" d="M272.004,91.965h48v16h-48V91.965z"/>
</g>
<g>
	<path style="fill:#85BC94;" d="M72.004,251.965h48l0,0v168c0,8.837-7.163,16-16,16h-16c-8.837,0-16-7.163-16-16V251.965
		L72.004,251.965z"/>
	<path style="fill:#85BC94;" d="M392.004,435.965h-16c-8.837,0-16-7.163-16-16v-168l0,0h48l0,0v168
		C408.004,428.801,400.841,435.965,392.004,435.965z"/>
</g>
<g>
	<path style="fill:#7BAE89;" d="M72.004,335.765c20.004-1.323,38.02-12.565,48-29.952v-53.848h-48V335.765z"/>
	<path style="fill:#7BAE89;" d="M360.004,305.813c9.98,17.387,27.996,28.629,48,29.952v-83.8h-48V305.813z"/>
</g>
<circle style="fill:#8DC79D;" cx="68.004" cy="251.965" r="60"/>
<circle style="fill:#85BC94;" cx="68.004" cy="251.965" r="24"/>
<circle style="fill:#8DC79D;" cx="412.004" cy="251.965" r="60"/>
<circle style="fill:#85BC94;" cx="412.004" cy="251.965" r="24"/>
<g>
	<path style="fill:#231F20;" d="M68.004,219.965c-17.673,0-32,14.327-32,32s14.327,32,32,32s32-14.327,32-32
		S85.677,219.965,68.004,219.965z M68.004,267.965c-8.837,0-16-7.163-16-16c0-8.837,7.163-16,16-16s16,7.163,16,16
		C84.004,260.801,76.841,267.965,68.004,267.965z"/>
	<path style="fill:#231F20;" d="M412.004,183.965c-16.135-0.005-31.741,5.757-44,16.248V91.965c-0.04-30.911-25.089-55.96-56-56
		h-144c-30.911,0.04-55.96,25.089-56,56v108.248c-28.565-24.333-71.448-20.902-95.781,7.664s-20.902,71.448,7.664,95.781
		c11.262,9.594,25.348,15.249,40.118,16.107v100.2c0,13.255,10.745,24,24,24h16c13.255,0,24-10.745,24-24v-24h224v24
		c0,13.255,10.745,24,24,24h16c13.255,0,24-10.745,24-24v-100.2c37.467-2.229,66.033-34.41,63.803-71.877
		C477.672,212,447.956,183.984,412.004,183.965L412.004,183.965z M112.004,309.197v110.768c0,4.418-3.582,8-8,8h-16
		c-4.418,0-8-3.582-8-8V318.837c11.819-2.113,22.863-7.331,32-15.12V309.197z M68.004,303.965c-28.719,0-52-23.281-52-52
		s23.281-52,52-52s52,23.281,52,52C119.969,280.669,96.708,303.93,68.004,303.965z M352.004,379.965h-224v-48h224V379.965z
		 M352.004,315.965h-224v-6.768c0-22.736,14.352-41.232,32-41.232h160c17.648,0,32,18.496,32,41.232V315.965z M344.004,251.965
		c0.017,2.718,0.196,5.432,0.536,8.128c-7.123-5.218-15.707-8.061-24.536-8.128h-160c-8.829,0.067-17.413,2.91-24.536,8.128
		c1.764-13.804-0.846-27.814-7.464-40.056V91.965c0.026-22.08,17.92-39.974,40-40h144c22.08,0.026,39.974,17.92,40,40v128
		C346.735,229.807,343.986,240.801,344.004,251.965z M400.004,419.965c0,4.418-3.582,8-8,8h-16c-4.418,0-8-3.582-8-8V303.717
		c9.137,7.789,20.181,13.007,32,15.12V419.965z M412.004,303.965c-28.719,0-52-23.281-52-52s23.281-52,52-52s52,23.281,52,52
		C463.969,280.669,440.708,303.93,412.004,303.965z"/>
	<path style="fill:#231F20;" d="M412.004,219.965c-17.673,0-32,14.327-32,32s14.327,32,32,32s32-14.327,32-32
		S429.677,219.965,412.004,219.965z M412.004,267.965c-8.837,0-16-7.163-16-16c0-8.837,7.163-16,16-16s16,7.163,16,16
		C428.004,260.801,420.841,267.965,412.004,267.965z"/>
	<path style="fill:#231F20;" d="M192.004,75.965h-16v16h-16v16h16v16h16v-16h16v-16h-16V75.965z"/>
	<path style="fill:#231F20;" d="M248.004,131.965h-16v16h-16v16h16v16h16v-16h16v-16h-16V131.965z"/>
	<path style="fill:#231F20;" d="M304.004,187.965h-16v16h-16v16h16v16h16v-16h16v-16h-16V187.965z"/>
	<path style="fill:#231F20;" d="M192.004,187.965h-16v16h-16v16h16v16h16v-16h16v-16h-16V187.965z"/>
	<path style="fill:#231F20;" d="M304.004,75.965h-16v16h-16v16h16v16h16v-16h16v-16h-16V75.965z"/>
</g>
<g>
</g>
<g>
</g>
<g>
</g>
<g>
</g>
<g>
</g>
<g>
</g>
<g>
</g>
<g>
</g>
<g>
</g>
<g>
</g>
<g>
</g>
<g>
</g>
<g>
</g>
<g>
</g>
<g>
</g>
</svg>
