<?xml version="1.0" encoding="iso-8859-1"?>
<!-- Generator: Adobe Illustrator 19.0.0, SVG Export Plug-In . SVG Version: 6.00 Build 0)  -->
<svg version="1.1" id="Capa_1" xmlns="http://www.w3.org/2000/svg" xmlns:xlink="http://www.w3.org/1999/xlink" x="0px" y="0px"
	 viewBox="0 0 419.44 419.44" style="enable-background:new 0 0 419.44 419.44;" xml:space="preserve">
<path style="fill:#4799CF;" d="M289.72,248l-24,48v104c-35.76,15.328-76.24,15.328-112,0V296l-24-48V8h160V248z"/>
<path style="fill:#6CBAE5;" d="M289.72,248l-24,48h-112l-24-48V72h160V248z"/>
<g>
	<path style="fill:#277BAA;" d="M161.72,48c4.418,0,8-3.582,8-8V8h-16v32C153.72,44.418,157.302,48,161.72,48z"/>
	<path style="fill:#277BAA;" d="M193.72,48c4.418,0,8-3.582,8-8V8h-16v32C185.72,44.418,189.302,48,193.72,48z"/>
	<path style="fill:#277BAA;" d="M225.72,48c4.418,0,8-3.582,8-8V8h-16v32C217.72,44.418,221.302,48,225.72,48z"/>
	<path style="fill:#277BAA;" d="M257.72,48c4.418,0,8-3.582,8-8V8h-16v32C249.72,44.418,253.302,48,257.72,48z"/>
</g>
<path style="fill:#428DC5;" d="M177.72,61.504h64v74.504h-64V61.504z"/>
<path style="fill:#4799CF;" d="M177.72,61.504h64v42.504h-64V61.504z"/>
<path style="fill:#F9E0A0;" d="M185.72,168h48v72h-48V168z"/>
<path style="fill:#428DC5;" d="M185.72,200h48v40h-48V200z"/>
<g>
	<path style="fill:#231F20;" d="M150.568,407.352c37.788,16.117,80.516,16.117,118.304,0l4.848-2.08V297.888l24-48V0h-176v249.888
		l24,48v107.384L150.568,407.352z M257.72,394.608c-30.915,11.784-65.085,11.784-96,0V304h96V394.608z M137.72,16h16v24
		c0,4.418,3.582,8,8,8s8-3.582,8-8V16h16v24c0,4.418,3.582,8,8,8s8-3.582,8-8V16h16v24c0,4.418,3.582,8,8,8s8-3.582,8-8V16h16v24
		c0,4.418,3.582,8,8,8s8-3.582,8-8V16h16v48h-144V16z M185.72,96V80h48v16H185.72z M233.72,112v16h-48v-16H233.72z M137.72,246.112
		V80h32v64h80V80h32v166.112L260.776,288H158.664L137.72,246.112z"/>
	<path style="fill:#231F20;" d="M241.72,192v-32h-64v88h64V192z M225.72,232h-32v-24h32V232z M225.72,192h-32v-16h32V192z"/>
</g>
<g>
</g>
<g>
</g>
<g>
</g>
<g>
</g>
<g>
</g>
<g>
</g>
<g>
</g>
<g>
</g>
<g>
</g>
<g>
</g>
<g>
</g>
<g>
</g>
<g>
</g>
<g>
</g>
<g>
</g>
</svg>
