<?xml version="1.0" encoding="iso-8859-1"?>
<!-- Generator: Adobe Illustrator 19.0.0, SVG Export Plug-In . SVG Version: 6.00 Build 0)  -->
<svg version="1.1" id="Capa_1" xmlns="http://www.w3.org/2000/svg" xmlns:xlink="http://www.w3.org/1999/xlink" x="0px" y="0px"
	 viewBox="0 0 480 480" style="enable-background:new 0 0 480 480;" xml:space="preserve">
<path style="fill:#DBDBDB;" d="M168,8h144c26.51,0,48,21.49,48,48v368c0,8.837-7.163,16-16,16H136c-8.837,0-16-7.163-16-16V56
	C120,29.49,141.49,8,168,8z"/>
<path style="fill:#428DC5;" d="M144,432h32v40h-32V432z"/>
<path style="fill:#277BAA;" d="M144,416h32v40h-32V416z"/>
<path style="fill:#428DC5;" d="M304,432h32v40h-32V432z"/>
<path style="fill:#277BAA;" d="M304,416h32v40h-32V416z"/>
<g>
	<path style="fill:#EBEBEB;" d="M120,64h240v192H120V64z"/>
	<path style="fill:#EBEBEB;" d="M120,256h240l0,0v168c0,8.837-7.163,16-16,16H136c-8.837,0-16-7.163-16-16V256L120,256z"/>
</g>
<g>
	<path style="fill:#428DC5;" d="M152,96h80v32h-80V96z"/>
	<path style="fill:#428DC5;" d="M152,288h80v32h-80V288z"/>
</g>
<g>
	<path style="fill:#4799CF;" d="M152,96h32v64h-32V96z"/>
	<path style="fill:#4799CF;" d="M152,288h32v64h-32V288z"/>
</g>
<path style="fill:#DBDBDB;" d="M120,256h240v16H120V256z"/>
<g>
	<path style="fill:#231F20;" d="M136,448v32h48v-32h112v32h48v-32c13.255,0,24-10.745,24-24l0,0V56
		c-0.035-30.913-25.087-55.965-56-56H168c-30.913,0.035-55.965,25.087-56,56v368C112,437.255,122.745,448,136,448L136,448z M168,464
		h-16v-16h16V464z M328,464h-16v-16h16V464z M168,16h144c22.08,0.026,39.974,17.92,40,40H128C128.026,33.92,145.92,16.026,168,16z
		 M128,72h224v176H128V72z M128,264h224v160c0,4.418-3.582,8-8,8H136c-4.418,0-8-3.582-8-8V264z"/>
	<path style="fill:#231F20;" d="M144,88v80h48v-32h48V88H144z M176,152h-16v-16h16V152z M176,120h-16v-16h16V120z M224,120h-32v-16
		h32V120z"/>
	<path style="fill:#231F20;" d="M192,328h48v-48h-96v80h48V328z M192,296h32v16h-32V296z M176,344h-16v-16h16V344z M176,312h-16v-16
		h16V312z"/>
</g>
<g>
</g>
<g>
</g>
<g>
</g>
<g>
</g>
<g>
</g>
<g>
</g>
<g>
</g>
<g>
</g>
<g>
</g>
<g>
</g>
<g>
</g>
<g>
</g>
<g>
</g>
<g>
</g>
<g>
</g>
</svg>
