<?xml version="1.0" encoding="iso-8859-1"?>
<!-- Generator: Adobe Illustrator 19.0.0, SVG Export Plug-In . SVG Version: 6.00 Build 0)  -->
<svg version="1.1" id="Capa_1" xmlns="http://www.w3.org/2000/svg" xmlns:xlink="http://www.w3.org/1999/xlink" x="0px" y="0px"
	 viewBox="0 0 448 448" style="enable-background:new 0 0 448 448;" xml:space="preserve">
<path style="fill:#EAEAE8;" d="M40,104h368c8.837,0,16,7.163,16,16v184l0,0H24l0,0V120C24,111.163,31.163,104,40,104z"/>
<path style="fill:#EBEBEB;" d="M128,272h192v168H128V272z"/>
<path style="fill:#8ACED8;" d="M24,158.664h296V200H24V158.664z"/>
<path style="fill:#F3AF3E;" d="M352,192h16v16h-16V192z"/>
<path style="fill:#89B140;" d="M384,192h16v16h-16V192z"/>
<path style="fill:#B9B9B9;" d="M128,272h192v32H128V272z"/>
<g>
	<path style="fill:#D9D9D9;" d="M160,328h128v16H160V328z"/>
	<path style="fill:#D9D9D9;" d="M160,360h128v16H160V360z"/>
	<path style="fill:#D9D9D9;" d="M160,392h128v16H160V392z"/>
	<path style="fill:#D9D9D9;" d="M96,48h256v88H96V48z"/>
</g>
<path style="fill:#EBEBEB;" d="M128,8h192v128H128V8z"/>
<path style="fill:#B9B9B9;" d="M40,104h368c8.837,0,16,7.163,16,16v48l0,0H24l0,0v-48C24,111.163,31.163,104,40,104z"/>
<path style="fill:#787D82;" d="M128,104h192v32H128V104z"/>
<g>
	<path style="fill:#231F20;" d="M352,192h16v16h-16V192z"/>
	<path style="fill:#231F20;" d="M384,192h16v16h-16V192z"/>
	<path style="fill:#231F20;" d="M120,0v40H88v56H40c-13.255,0-24,10.745-24,24v192h104v136h208V312h104V120
		c0-13.255-10.745-24-24-24h-48V40h-32V0H120z M136,16h176v80H136V16z M136,112h176v16H136V112z M104,56h16v40h-16V56z M32,176h280
		v16H32V176z M312,432H136V312h176V432z M312,296H136v-16h176V296z M416,296h-88v-32H120v32H32v-88h296v-32h88V296z M408,112
		c4.418,0,8,3.582,8,8v40H32v-40c0-4.418,3.582-8,8-8h80v32h208v-32H408z M344,56v40h-16V56H344z"/>
	<path style="fill:#231F20;" d="M160,328h128v16H160V328z"/>
	<path style="fill:#231F20;" d="M160,360h128v16H160V360z"/>
	<path style="fill:#231F20;" d="M160,392h128v16H160V392z"/>
</g>
<g>
</g>
<g>
</g>
<g>
</g>
<g>
</g>
<g>
</g>
<g>
</g>
<g>
</g>
<g>
</g>
<g>
</g>
<g>
</g>
<g>
</g>
<g>
</g>
<g>
</g>
<g>
</g>
<g>
</g>
</svg>
