<?xml version="1.0" encoding="iso-8859-1"?>
<!-- Generator: Adobe Illustrator 19.0.0, SVG Export Plug-In . SVG Version: 6.00 Build 0)  -->
<svg version="1.1" id="Capa_1" xmlns="http://www.w3.org/2000/svg" xmlns:xlink="http://www.w3.org/1999/xlink" x="0px" y="0px"
	 viewBox="0 0 432 432" style="enable-background:new 0 0 432 432;" xml:space="preserve">
<g>
	<path style="fill:#176177;" d="M360,352h32v48h-32V352z"/>
	<path style="fill:#176177;" d="M40,360h32v40H40V360z"/>
</g>
<g>
	<path style="fill:#69B0BB;" d="M376,96c8.837,0,16,7.163,16,16v192l0,0h-32l0,0V112C360,103.163,367.163,96,376,96z"/>
	<path style="fill:#69B0BB;" d="M56,96c8.837,0,16,7.163,16,16v192l0,0H40l0,0V112C40,103.163,47.163,96,56,96z"/>
</g>
<path style="fill:#EBEBEB;" d="M24,272h384c8.837,0,16,7.163,16,16v64c0,8.837-7.163,16-16,16H24c-8.837,0-16-7.163-16-16v-64
	C8,279.163,15.163,272,24,272z"/>
<path style="fill:#3B869E;" d="M24,272h176l0,0v96l0,0H24c-8.837,0-16-7.163-16-16v-64C8,279.163,15.163,272,24,272z"/>
<path style="fill:#EA6B65;" d="M360,304h32v32h-32V304z"/>
<path style="fill:#F4CA62;" d="M296,304h32v32h-32V304z"/>
<path style="fill:#AAC16B;" d="M232,304h32v32h-32V304z"/>
<g>
	<path style="fill:#F9E0A0;" d="M320,81.112c-2.056-0.002-4.033-0.795-5.52-2.216c-55.412-51.86-141.548-51.86-196.96,0
		c-3.132,3.116-8.197,3.103-11.314-0.029s-3.103-8.197,0.029-11.314c0.08-0.08,0.162-0.158,0.245-0.234
		c61.59-57.759,157.45-57.759,219.04,0c3.199,3.048,3.321,8.112,0.274,11.31C324.283,80.215,322.189,81.112,320,81.112L320,81.112z"
		/>
	<path style="fill:#F9E0A0;" d="M282.856,116.552c-2.056,0.005-4.035-0.786-5.52-2.208c-34.516-32.289-88.156-32.289-122.672,0
		c-3.132,3.116-8.197,3.103-11.314-0.029c-3.116-3.132-3.103-8.197,0.029-11.314c0.08-0.08,0.162-0.158,0.245-0.234
		c40.695-38.188,104.057-38.188,144.752,0c3.194,3.052,3.31,8.116,0.257,11.311C287.125,115.656,285.038,116.55,282.856,116.552
		L282.856,116.552z"/>
	<path style="fill:#F9E0A0;" d="M245.712,152c-2.055,0-4.032-0.79-5.52-2.208c-13.622-12.714-34.762-12.714-48.384,0
		c-3.35,2.88-8.401,2.499-11.282-0.851c-2.679-3.117-2.561-7.757,0.274-10.733c19.811-18.603,50.669-18.603,70.48,0
		c3.199,3.048,3.322,8.111,0.274,11.31C250.032,151.115,247.918,152.013,245.712,152L245.712,152z"/>
</g>
<g>
	<path style="fill:#176177;" d="M32,328h16v16H32V328z"/>
	<path style="fill:#176177;" d="M64,328h16v16H64V328z"/>
	<path style="fill:#176177;" d="M96,328h16v16H96V328z"/>
	<path style="fill:#176177;" d="M360,240h32v32h-32V240z"/>
	<path style="fill:#176177;" d="M40,240h32v32H40V240z"/>
</g>
<g>
	<path style="fill:#231F20;" d="M408,264h-8V104c0-13.255-10.745-24-24-24s-24,10.745-24,24v160H80V112c0-13.255-10.745-24-24-24
		s-24,10.745-24,24v152h-8c-13.255,0-24,10.745-24,24v64c0,13.255,10.745,24,24,24h8v32h48v-32h272v32h48v-32h8
		c13.255,0,24-10.745,24-24v-64C432,274.745,421.255,264,408,264z M48,112c0-4.418,3.582-8,8-8s8,3.582,8,8v152H48V112z M64,392H48
		v-16h16V392z M192,360H24c-4.418,0-8-3.582-8-8v-64c0-4.418,3.582-8,8-8h168V360z M368,104c0-4.418,3.582-8,8-8s8,3.582,8,8v160
		h-16V104z M384,392h-16v-16h16V392z M416,352c0,4.418-3.582,8-8,8H208v-80h200c4.418,0,8,3.582,8,8V352z"/>
	<path style="fill:#231F20;" d="M352,344h48v-48h-48V344z M368,312h16v16h-16V312z"/>
	<path style="fill:#231F20;" d="M288,344h48v-48h-48V344z M304,312h16v16h-16V312z"/>
	<path style="fill:#231F20;" d="M224,344h48v-48h-48V344z M240,312h16v16h-16V312z"/>
	<path style="fill:#231F20;" d="M320,81.112c4.418,0.001,8.001-3.58,8.002-7.998c0-2.189-0.896-4.283-2.482-5.794
		c-61.59-57.759-157.45-57.759-219.04,0c-3.261,2.981-3.488,8.041-0.508,11.302c2.981,3.261,8.041,3.488,11.302,0.508
		c0.083-0.076,0.165-0.154,0.245-0.234c55.412-51.86,141.548-51.86,196.96,0C315.967,80.316,317.944,81.11,320,81.112L320,81.112z"
		/>
	<path style="fill:#231F20;" d="M282.856,116.552c4.418-0.004,7.997-3.589,7.993-8.007c-0.002-2.182-0.895-4.269-2.473-5.777
		c-40.695-38.188-104.057-38.188-144.752,0c-3.261,2.981-3.488,8.041-0.507,11.302c2.981,3.261,8.041,3.488,11.302,0.507
		c0.083-0.076,0.165-0.154,0.245-0.234c34.516-32.289,88.156-32.289,122.672,0C278.821,115.766,280.8,116.557,282.856,116.552
		L282.856,116.552z"/>
	<path style="fill:#231F20;" d="M180.8,138.208c-3.199,3.051-3.319,8.117-0.268,11.316c3.051,3.199,8.117,3.319,11.316,0.268l0,0
		c13.622-12.714,34.762-12.714,48.384,0c3.199,3.051,8.265,2.931,11.316-0.268c3.051-3.199,2.931-8.265-0.268-11.316
		C231.469,119.605,200.611,119.605,180.8,138.208L180.8,138.208z"/>
	<path style="fill:#231F20;" d="M32,328h16v16H32V328z"/>
	<path style="fill:#231F20;" d="M64,328h16v16H64V328z"/>
	<path style="fill:#231F20;" d="M96,328h16v16H96V328z"/>
</g>
<g>
</g>
<g>
</g>
<g>
</g>
<g>
</g>
<g>
</g>
<g>
</g>
<g>
</g>
<g>
</g>
<g>
</g>
<g>
</g>
<g>
</g>
<g>
</g>
<g>
</g>
<g>
</g>
<g>
</g>
</svg>
