<?xml version="1.0" encoding="iso-8859-1"?>
<!-- Generator: Adobe Illustrator 19.0.0, SVG Export Plug-In . SVG Version: 6.00 Build 0)  -->
<svg version="1.1" id="Capa_1" xmlns="http://www.w3.org/2000/svg" xmlns:xlink="http://www.w3.org/1999/xlink" x="0px" y="0px"
	 viewBox="0 0 480 480" style="enable-background:new 0 0 480 480;" xml:space="preserve">
<g>
	<path style="fill:#3B869E;" d="M100,480c-4.418,0-8-3.582-8-8v-24c0-4.418,3.582-8,8-8s8,3.582,8,8v24
		C108,476.418,104.418,480,100,480z"/>
	<path style="fill:#3B869E;" d="M132,480c-4.418,0-8-3.582-8-8v-24c0-4.418,3.582-8,8-8s8,3.582,8,8v24
		C140,476.418,136.418,480,132,480z"/>
	<path style="fill:#3B869E;" d="M164,480c-4.418,0-8-3.582-8-8v-24c0-4.418,3.582-8,8-8s8,3.582,8,8v24
		C172,476.418,168.418,480,164,480z"/>
	<path style="fill:#3B869E;" d="M196,480c-4.418,0-8-3.582-8-8v-24c0-4.418,3.582-8,8-8s8,3.582,8,8v24
		C204,476.418,200.418,480,196,480z"/>
</g>
<path style="fill:#EBEBEB;" d="M132,304h32v120h-32V304z"/>
<path style="fill:#D9D9D9;" d="M132,304h32v32h-32V304z"/>
<path style="fill:#B9B9B9;" d="M308,336h-16c-22.08-0.026-39.974-17.92-40-40V40c0-13.255-10.745-24-24-24h-56
	c-8.837,0-16,7.163-16,16v24c0,4.418-3.582,8-8,8s-8-3.582-8-8V32c0-17.673,14.327-32,32-32h56c22.08,0.026,39.974,17.92,40,40v256
	c0,13.255,10.745,24,24,24h16c13.255,0,24-10.745,24-24v-96c0.026-22.08,17.92-39.974,40-40h8c4.418,0,8,3.582,8,8s-3.582,8-8,8h-8
	c-13.255,0-24,10.745-24,24v96C347.974,318.08,330.08,335.974,308,336z"/>
<path style="fill:#8ACED8;" d="M172,40h-48c-8.837,0-16,7.163-16,16v240c0,8.837,7.163,16,16,16h48c8.837,0,16-7.163,16-16V56
	C188,47.163,180.837,40,172,40z"/>
<path style="fill:#EBEBEB;" d="M124,40h48c8.837,0,16,7.163,16,16v224l0,0h-80l0,0V56C108,47.163,115.163,40,124,40z"/>
<path style="fill:#8ACED8;" d="M196,456h-96c-4.418,0-8-3.582-8-8v-16c0-13.255,10.745-24,24-24h64c13.255,0,24,10.745,24,24v16
	C204,452.418,200.418,456,196,456z"/>
<path style="fill:#6FBBC6;" d="M92,440v8c0,4.418,3.582,8,8,8h96c4.418,0,8-3.582,8-8v-8H92z"/>
<path style="fill:#231F20;" d="M380,160h-8c-22.08,0.026-39.974,17.92-40,40v96c0,13.255-10.745,24-24,24h-16
	c-13.255,0-24-10.745-24-24V40c-0.026-22.08-17.92-39.974-40-40h-56c-17.673,0-32,14.327-32,32h-16c-13.255,0-24,10.745-24,24v240
	c0,13.255,10.745,24,24,24v88h-8c-13.255,0-24,10.745-24,24v40c0,4.418,3.582,8,8,8s8-3.582,8-8v-16h16v16c0,4.418,3.582,8,8,8
	s8-3.582,8-8v-16h16v16c0,4.418,3.582,8,8,8s8-3.582,8-8v-16h16v16c0,4.418,3.582,8,8,8s8-3.582,8-8v-40c0-13.255-10.745-24-24-24
	h-8v-88c13.255,0,24-10.745,24-24V56c0-13.255-10.745-24-24-24h-16c0-8.837,7.163-16,16-16h56c13.255,0,24,10.745,24,24v256
	c0.026,22.08,17.92,39.974,40,40h16c22.08-0.026,39.974-17.92,40-40v-96c0-13.255,10.745-24,24-24h8c4.418,0,8-3.582,8-8
	S384.418,160,380,160z M180,424c4.418,0,8,3.582,8,8v8h-80v-8c0-4.418,3.582-8,8-8H180z M140,408v-88h16v88H140z M180,296
	c0,4.418-3.582,8-8,8h-48c-4.418,0-8-3.582-8-8v-8h64V296z M172,48c4.418,0,8,3.582,8,8v216h-64V56c0-4.418,3.582-8,8-8H172z"/>
<g>
</g>
<g>
</g>
<g>
</g>
<g>
</g>
<g>
</g>
<g>
</g>
<g>
</g>
<g>
</g>
<g>
</g>
<g>
</g>
<g>
</g>
<g>
</g>
<g>
</g>
<g>
</g>
<g>
</g>
</svg>
