<?xml version="1.0" encoding="iso-8859-1"?>
<!-- Generator: Adobe Illustrator 19.0.0, SVG Export Plug-In . SVG Version: 6.00 Build 0)  -->
<svg version="1.1" id="Capa_1" xmlns="http://www.w3.org/2000/svg" xmlns:xlink="http://www.w3.org/1999/xlink" x="0px" y="0px"
	 viewBox="0 0 480 480" style="enable-background:new 0 0 480 480;" xml:space="preserve">
<g>
	<path style="fill:#D9D9D9;" d="M148,480c-4.418,0-8-3.582-8-8V296c0-4.418,3.582-8,8-8s8,3.582,8,8v176
		C156,476.418,152.418,480,148,480z"/>
	<path style="fill:#D9D9D9;" d="M148,480c-22.091,0-40-17.909-40-40s17.909-40,40-40s40,17.909,40,40
		C187.974,462.08,170.08,479.974,148,480z M148,416c-13.255,0-24,10.745-24,24s10.745,24,24,24s24-10.745,24-24S161.255,416,148,416
		z"/>
</g>
<g>
	<path style="fill:#F4CA62;" d="M124,280h48v48h-48V280z"/>
	<path style="fill:#F4CA62;" d="M28,232h56v32H28V232z"/>
</g>
<path style="fill:#F9E0A0;" d="M228,8h176c26.51,0,48,21.49,48,48v208l0,0H68l0,0v-96C68,79.634,139.634,8,228,8z"/>
<path style="fill:#EAEAE8;" d="M404,120H268V56h120.888c8.588,0.253,15.35,7.412,15.112,16V120z"/>
<g>
	<path style="fill:#F4CA62;" d="M276,224c-4.418,0-8-3.582-8-8v-48c0-4.418,3.582-8,8-8s8,3.582,8,8v48
		C284,220.418,280.418,224,276,224z"/>
	<path style="fill:#F4CA62;" d="M316,224c-4.418,0-8-3.582-8-8v-48c0-4.418,3.582-8,8-8s8,3.582,8,8v48
		C324,220.418,320.418,224,316,224z"/>
	<path style="fill:#F4CA62;" d="M356,224c-4.418,0-8-3.582-8-8v-48c0-4.418,3.582-8,8-8s8,3.582,8,8v48
		C364,220.418,360.418,224,356,224z"/>
	<path style="fill:#F4CA62;" d="M396,224c-4.418,0-8-3.582-8-8v-48c0-4.418,3.582-8,8-8s8,3.582,8,8v48
		C404,220.418,400.418,224,396,224z"/>
</g>
<path style="fill:#F9E0A0;" d="M108,256h80v40h-80V256z"/>
<path style="fill:#F4CA62;" d="M108,264h80v16h-80V264z"/>
<g>
	<path style="fill:#EA6B65;" d="M164,88h16v16h-16V88z"/>
	<path style="fill:#EA6B65;" d="M212,104h16v16h-16V104z"/>
	<path style="fill:#EA6B65;" d="M116,104h16v16h-16V104z"/>
</g>
<circle style="fill:#DBDBDB;" cx="172" cy="176" r="48"/>
<path style="fill:#EAEAE8;" d="M218.448,164.072c-6.562-25.648-32.674-41.12-58.322-34.558
	c-16.967,4.341-30.217,17.59-34.558,34.558c6.704,25.648,32.93,41.006,58.578,34.302
	C200.942,193.984,214.058,180.868,218.448,164.072z"/>
<path style="fill:#B9B9B9;" d="M180,128.68c-2.643-0.446-5.319-0.673-8-0.68c-2.681,0.002-5.357,0.23-8,0.68V176
	c0,4.418,3.582,8,8,8s8-3.582,8-8V128.68z"/>
<g>
	<path style="fill:#231F20;" d="M100,272v24c0,4.418,3.582,8,8,8h8v24c0,4.418,3.582,8,8,8h16v64.8
		c-21.645,4.418-35.61,25.547-31.192,47.192c4.418,21.645,25.547,35.61,47.192,31.192s35.61-25.547,31.192-47.192
		c-3.207-15.709-15.483-27.985-31.192-31.192V336h16c4.418,0,8-3.582,8-8v-24h8c4.418,0,8-3.582,8-8v-24h256c4.418,0,8-3.582,8-8V56
		c-0.035-30.913-25.087-55.965-56-56H228C135.258,0.101,60.101,75.258,60,168v56H28c-4.418,0-8,3.582-8,8v32c0,4.418,3.582,8,8,8
		H100z M140,462.528c-12.442-4.335-19.014-17.935-14.68-30.376c2.396-6.877,7.802-12.284,14.68-14.68V462.528z M140,320h-8v-16h8
		V320z M172,440c-0.042,10.134-6.445,19.15-16,22.528v-45.056C165.555,420.85,171.958,429.866,172,440z M164,320h-8v-16h8V320z
		 M180,288h-64v-16h64V288z M76,232v-64c0.093-83.909,68.091-151.907,152-152h176c22.08,0.026,39.974,17.92,40,40v200H76V232z
		 M60,256H36v-16h24V256z"/>
	<path style="fill:#231F20;" d="M268,128h136c4.418,0,8-3.582,8-8V72c0.223-13.001-10.112-23.733-23.112-24H268
		c-4.418,0-8,3.582-8,8v64C260,124.418,263.582,128,268,128z M276,64h112.888c4.165,0.262,7.34,3.833,7.112,8v40H276V64z"/>
	<path style="fill:#231F20;" d="M172,232c30.928,0,56-25.072,56-56s-25.072-56-56-56s-56,25.072-56,56
		C116.035,206.913,141.087,231.965,172,232z M164,136.8V176c0,4.418,3.582,8,8,8s8-3.582,8-8v-39.2
		c21.645,4.418,35.61,25.547,31.192,47.192s-25.547,35.61-47.192,31.192c-21.645-4.418-35.61-25.547-31.192-47.192
		C136.015,152.283,148.291,140.007,164,136.8z"/>
	<path style="fill:#231F20;" d="M276,160c-4.418,0-8,3.582-8,8v48c0,4.418,3.582,8,8,8s8-3.582,8-8v-48
		C284,163.582,280.418,160,276,160z"/>
	<path style="fill:#231F20;" d="M316,160c-4.418,0-8,3.582-8,8v48c0,4.418,3.582,8,8,8s8-3.582,8-8v-48
		C324,163.582,320.418,160,316,160z"/>
	<path style="fill:#231F20;" d="M356,160c-4.418,0-8,3.582-8,8v48c0,4.418,3.582,8,8,8s8-3.582,8-8v-48
		C364,163.582,360.418,160,356,160z"/>
	<path style="fill:#231F20;" d="M396,160c-4.418,0-8,3.582-8,8v48c0,4.418,3.582,8,8,8s8-3.582,8-8v-48
		C404,163.582,400.418,160,396,160z"/>
	<path style="fill:#231F20;" d="M164,88h16v16h-16V88z"/>
	<path style="fill:#231F20;" d="M212,104h16v16h-16V104z"/>
	<path style="fill:#231F20;" d="M116,104h16v16h-16V104z"/>
</g>
<g>
</g>
<g>
</g>
<g>
</g>
<g>
</g>
<g>
</g>
<g>
</g>
<g>
</g>
<g>
</g>
<g>
</g>
<g>
</g>
<g>
</g>
<g>
</g>
<g>
</g>
<g>
</g>
<g>
</g>
</svg>
