<?xml version="1.0" encoding="iso-8859-1"?>
<!-- Generator: Adobe Illustrator 19.0.0, SVG Export Plug-In . SVG Version: 6.00 Build 0)  -->
<svg version="1.1" id="Capa_1" xmlns="http://www.w3.org/2000/svg" xmlns:xlink="http://www.w3.org/1999/xlink" x="0px" y="0px"
	 viewBox="0 0 472.041 472.041" style="enable-background:new 0 0 472.041 472.041;" xml:space="preserve">
<path style="fill:#DC4D41;" d="M432.041,340.021h-272c-17.673,0-32,14.327-32,32v64c0,13.255,10.745,24,24,24s24-10.745,24-24v-16
	h240v16c0,13.255,10.745,24,24,24s24-10.745,24-24v-64C464.041,354.348,449.714,340.021,432.041,340.021z"/>
<path style="fill:#C7463B;" d="M208.041,284.021h176c17.673,0,32,14.327,32,32v104l0,0h-240l0,0v-104
	C176.041,298.348,190.368,284.021,208.041,284.021z"/>
<path style="fill:#787D82;" d="M184.041,84.021c-4.418,0.005-8.004-3.572-8.01-7.99c-0.003-2.678,1.334-5.18,3.562-6.666l96-64
	c2.899-1.935,6.718-1.77,9.44,0.408l80,64c3.451,2.761,4.009,7.797,1.248,11.248c-2.761,3.451-7.797,4.009-11.248,1.248
	l-75.424-60.344l-91.128,60.752C187.166,83.554,185.621,84.022,184.041,84.021z"/>
<path style="fill:#A8A8A8;" d="M96.041,468.021c-4.418,0-8-3.582-8-8v-56h-72v56c0,4.418-3.582,8-8,8s-8-3.582-8-8v-64
	c0-4.418,3.582-8,8-8h88c4.418,0,8,3.582,8,8v64C104.041,464.44,100.459,468.021,96.041,468.021z"/>
<path style="fill:#787D82;" d="M0.041,396.021v32h16v-24h72v24h16v-32c0-4.418-3.582-8-8-8h-88
	C3.622,388.021,0.041,391.603,0.041,396.021z"/>
<path style="fill:#DA922A;" d="M48.041,340.021c-4.418,0-8-3.582-8-8v-64c0-4.418,3.582-8,8-8s8,3.582,8,8v64
	C56.041,336.44,52.459,340.021,48.041,340.021z"/>
<path style="fill:#DC4D41;" d="M168.041,372.021h256v48h-256V372.021z"/>
<path style="fill:#D18D28;" d="M88.041,300.021h-16v-32v-6.024h15.4l0.6,6.024V300.021z"/>
<path style="fill:#744630;" d="M96.041,404.021h-88c-4.418,0-8-3.582-8-8v-56c0-4.418,3.582-8,8-8h88c4.418,0,8,3.582,8,8v56
	C104.041,400.44,100.459,404.021,96.041,404.021z"/>
<path style="fill:#EAEAE8;" d="M168.041,76.021h208v144h-208V76.021z"/>
<path style="fill:#6B9777;" d="M256.041,220.021l56-56l48,56H256.041z"/>
<circle style="fill:#EA9D2D;" cx="280.041" cy="124.021" r="16"/>
<g>
	<path style="fill:#B94137;" d="M200.041,308.021h16v16h-16V308.021z"/>
	<path style="fill:#B94137;" d="M248.041,308.021h16v16h-16V308.021z"/>
	<path style="fill:#B94137;" d="M224.041,332.021h16v16h-16V332.021z"/>
	<path style="fill:#B94137;" d="M328.041,308.021h16v16h-16V308.021z"/>
	<path style="fill:#B94137;" d="M376.041,308.021h16v16h-16V308.021z"/>
	<path style="fill:#B94137;" d="M352.041,332.021h16v16h-16V332.021z"/>
</g>
<path style="fill:#FBB540;" d="M88.041,268.021h-40h-40l8-80h64L88.041,268.021z"/>
<path style="fill:#8F563B;" d="M0.041,340.021v16h104v-16c0-4.418-3.582-8-8-8h-88C3.622,332.021,0.041,335.603,0.041,340.021z"/>
<path style="fill:#5E8569;" d="M256.041,220.021h56l-24.504-31.496L256.041,220.021z"/>
<path style="fill:#85BC94;" d="M168.041,220.021l64-72l56,72H168.041z"/>
<path style="fill:#8F563B;" d="M376.041,228.021h-208c-4.418,0-8-3.582-8-8v-144c0-4.418,3.582-8,8-8h208c4.418,0,8,3.582,8,8v144
	C384.041,224.44,380.459,228.021,376.041,228.021z M176.041,212.021h192v-128h-192V212.021z"/>
<g>
	<path style="fill:#A8A8A8;" d="M332.849,44.021h-25.616l30,24h25.616L332.849,44.021z"/>
	<path style="fill:#A8A8A8;" d="M181.617,68.021h28.848l36-24h-28.848L181.617,68.021z"/>
</g>
<path style="fill:#DA922A;" d="M72.041,268.021h16v16h-16V268.021z"/>
<g>
	<path style="fill:#231F20;" d="M432.041,332.021h-8v-16c-0.026-22.08-17.92-39.974-40-40h-176c-22.08,0.026-39.974,17.92-40,40v16
		h-8c-22.08,0.026-39.974,17.92-40,40v64c0,17.673,14.327,32,32,32s32-14.327,32-32v-8h224v8c0,17.673,14.327,32,32,32
		s32-14.327,32-32v-64C472.014,349.941,454.121,332.048,432.041,332.021z M168.041,364.021v72c0,8.837-7.163,16-16,16
		s-16-7.163-16-16v-64c0-13.255,10.745-24,24-24h8V364.021z M408.041,412.021h-224v-32h224V412.021z M408.041,332.021v32h-224v-48
		c0-13.255,10.745-24,24-24h176c13.255,0,24,10.745,24,24V332.021z M456.041,436.021c0,8.837-7.163,16-16,16s-16-7.163-16-16v-88h8
		c13.255,0,24,10.745,24,24V436.021z"/>
	<path style="fill:#231F20;" d="M8.041,468.021c4.418,0,8-3.582,8-8v-56h72v56c0,4.418,3.582,8,8,8s8-3.582,8-8v-120
		c0-4.418-3.582-8-8-8h-40v-56h16v24h16v-24c4.418,0.022,8.018-3.542,8.04-7.96c0.001-0.281-0.012-0.561-0.04-0.84l-8-80
		c-0.412-4.103-3.876-7.221-8-7.2h-64c-4.124-0.021-7.588,3.097-8,7.2l-8,80c-0.442,4.396,2.764,8.318,7.16,8.76
		c0.279,0.028,0.56,0.041,0.84,0.04h32v56h-32c-4.418,0-8,3.582-8,8v120C0.041,464.44,3.622,468.021,8.041,468.021z M16.881,260.021
		l6.4-64h49.56l6.4,64H16.881z M16.041,348.021h72v40h-72V348.021z"/>
	<path style="fill:#231F20;" d="M362.849,68.021L285.041,5.773c-2.722-2.178-6.541-2.343-9.44-0.408l-93.96,62.656h-13.6
		c-4.418,0-8,3.582-8,8v144c0,0.136,0.072,0.248,0.08,0.384c0.035,0.82,0.197,1.63,0.48,2.4c0.032,0.141,0.072,0.28,0.12,0.416
		v0.096c0.376,0.804,0.885,1.54,1.504,2.176c0.168,0.184,0.368,0.32,0.552,0.488c0.523,0.454,1.101,0.841,1.72,1.152
		c0.238,0.129,0.484,0.244,0.736,0.344c0.896,0.349,1.847,0.533,2.808,0.544h208c4.418,0,8-3.582,8-8v-144c0-4.418-3.582-8-8-8
		L362.849,68.021z M279.649,21.925l57.584,46.096H210.441L279.649,21.925z M256.041,212.021h-70.184l45.768-51.496l40.056,51.496
		H256.041z M291.953,212.021l-7.264-9.336l26.896-26.896l31.064,36.232H291.953z M368.041,212.021h-4.32l-45.6-53.208
		c-1.452-1.696-3.545-2.708-5.776-2.792c-2.23-0.113-4.401,0.738-5.96,2.336l-31.592,31.592l-36.44-46.848
		c-1.459-1.873-3.675-3.002-6.048-3.08c-2.379-0.102-4.676,0.884-6.24,2.68l-50.024,56.28V84.021h192L368.041,212.021z"/>
	<path style="fill:#231F20;" d="M280.041,148.021c13.255,0,24-10.745,24-24s-10.745-24-24-24s-24,10.745-24,24
		S266.786,148.021,280.041,148.021z M280.041,116.021c4.418,0,8,3.582,8,8s-3.582,8-8,8s-8-3.582-8-8
		S275.622,116.021,280.041,116.021z"/>
	<path style="fill:#231F20;" d="M200.041,308.021h16v16h-16V308.021z"/>
	<path style="fill:#231F20;" d="M248.041,308.021h16v16h-16V308.021z"/>
	<path style="fill:#231F20;" d="M224.041,332.021h16v16h-16V332.021z"/>
	<path style="fill:#231F20;" d="M328.041,308.021h16v16h-16V308.021z"/>
	<path style="fill:#231F20;" d="M376.041,308.021h16v16h-16V308.021z"/>
	<path style="fill:#231F20;" d="M352.041,332.021h16v16h-16V332.021z"/>
</g>
<g>
</g>
<g>
</g>
<g>
</g>
<g>
</g>
<g>
</g>
<g>
</g>
<g>
</g>
<g>
</g>
<g>
</g>
<g>
</g>
<g>
</g>
<g>
</g>
<g>
</g>
<g>
</g>
<g>
</g>
</svg>
