<?xml version="1.0" encoding="iso-8859-1"?>
<!-- Generator: Adobe Illustrator 19.0.0, SVG Export Plug-In . SVG Version: 6.00 Build 0)  -->
<svg version="1.1" id="Capa_1" xmlns="http://www.w3.org/2000/svg" xmlns:xlink="http://www.w3.org/1999/xlink" x="0px" y="0px"
	 viewBox="0 0 448 448" style="enable-background:new 0 0 448 448;" xml:space="preserve">
<path style="fill:#B9B9B9;" d="M302.464,164.49L354,98.218l-50.488-43.28l20.824-24.288L398,93.786l-70.288,90.36L302.464,164.49z"
	/>
<path style="fill:#B94137;" d="M360,216.002h-80v-24c0-17.673,14.327-32,32-32h16c17.673,0,32,14.327,32,32V216.002z"/>
<path style="fill:#A83B32;" d="M280,192.002h80v16h-80V192.002z"/>
<path style="fill:#A8A8A8;" d="M324.336,30.65l-20.824,24.288l19.904,17.064h49.168L324.336,30.65z"/>
<path style="fill:#C7463B;" d="M304,24.002l-96,16l48,80l64-64L304,24.002z"/>
<circle style="fill:#B94137;" cx="312" cy="40.002" r="24"/>
<path style="fill:#744630;" d="M56,224.002h336v176H56V224.002z"/>
<g>
	<path style="fill:#8F563B;" d="M8,208.002h432v32H8V208.002z"/>
	<path style="fill:#8F563B;" d="M56,224.002h112v208H56V224.002z"/>
	<path style="fill:#8F563B;" d="M360,224.002h32v208h-32V224.002z"/>
</g>
<g>
	<path style="fill:#744630;" d="M352,240.002h40v16h-40V240.002z"/>
	<path style="fill:#744630;" d="M96,328.002h32v16H96V328.002z"/>
	<path style="fill:#744630;" d="M96,264.002h32v16H96V264.002z"/>
	<path style="fill:#744630;" d="M96,392.002h32v16H96V392.002z"/>
	<path style="fill:#744630;" d="M56,304.002h120v16H56V304.002z"/>
	<path style="fill:#744630;" d="M56,240.002h120v16H56V240.002z"/>
	<path style="fill:#744630;" d="M56,368.002h120v16H56V368.002z"/>
</g>
<g>
	<path style="fill:#231F20;" d="M96,328.002h32v16H96V328.002z"/>
	<path style="fill:#231F20;" d="M96,264.002h32v16H96V264.002z"/>
	<path style="fill:#231F20;" d="M96,392.002h32v16H96V392.002z"/>
	<path style="fill:#231F20;" d="M272,192.002v8H0v48h48v192h128v-32h176v32h48v-192h48v-48h-80v-8
		c-0.029-11.29-4.858-22.034-13.28-29.552l49.6-63.752c2.625-3.373,2.135-8.213-1.112-10.992L345.12,37.922
		c-0.441-0.313-0.913-0.581-1.408-0.8c-1.461-17.484-16.819-30.473-34.303-29.012c-8.043,0.672-15.529,4.381-20.937,10.372
		l-81.784,13.6c-4.358,0.729-7.3,4.852-6.571,9.21c0.165,0.986,0.513,1.932,1.027,2.79l48,80c2.277,3.787,7.192,5.011,10.978,2.734
		c0.558-0.336,1.073-0.738,1.534-1.198l51.728-51.728l29.6,25.4l-42.4,54.536C283.665,158.834,272.042,174.357,272,192.002
		L272,192.002z M160,408.002v16H64v-48h96V408.002z M160,360.002H64v-48h96V360.002z M160,296.002H64v-48h96V296.002z M352,392.002
		H176v-144h176V392.002z M384,424.002h-16v-176h16V424.002z M368,216.002h64v16H16v-16H368z M257.6,107.106l-36.696-61.144
		L280.4,36.05c-0.219,1.307-0.352,2.627-0.4,3.952c0.039,11.679,6.459,22.403,16.736,27.952L257.6,107.106z M312,56.002
		c-8.837,0-16-7.163-16-16s7.163-16,16-16s16,7.163,16,16S320.837,56.002,312,56.002z M360.312,103.138
		c2.62-3.371,2.13-8.206-1.112-10.984l-29.664-25.432c4.505-3.014,8.176-7.117,10.672-11.928L387,94.89l-46.2,59.4
		c-4.111-1.465-8.436-2.238-12.8-2.288h-5.696L360.312,103.138z M328,168.002c13.255,0,24,10.745,24,24v8h-64v-8
		c0-13.255,10.745-24,24-24H328z"/>
</g>
<g>
</g>
<g>
</g>
<g>
</g>
<g>
</g>
<g>
</g>
<g>
</g>
<g>
</g>
<g>
</g>
<g>
</g>
<g>
</g>
<g>
</g>
<g>
</g>
<g>
</g>
<g>
</g>
<g>
</g>
</svg>
