<?xml version="1.0" encoding="iso-8859-1"?>
<!-- Generator: Adobe Illustrator 19.0.0, SVG Export Plug-In . SVG Version: 6.00 Build 0)  -->
<svg version="1.1" id="Capa_1" xmlns="http://www.w3.org/2000/svg" xmlns:xlink="http://www.w3.org/1999/xlink" x="0px" y="0px"
	 viewBox="0 0 384.004 384.004" style="enable-background:new 0 0 384.004 384.004;" xml:space="preserve">
<path style="fill:#6CBAE5;" d="M40.002,24h64v40h-64V24z"/>
<path style="fill:#DBDBDB;" d="M328.002,8h-160c-88.366,0-160,71.634-160,160v64h304v-32c0-17.673,14.327-32,32-32h32V56
	C376.002,29.49,354.512,8,328.002,8z M328.002,104c0,8.837-7.163,16-16,16h-176v-8c0-35.346,28.654-64,64-64h112
	c8.837,0,16,7.163,16,16V104z"/>
<path style="fill:#B9B9B9;" d="M8.002,200h304v32h-304V200z"/>
<path style="fill:#6CBAE5;" d="M200.002,88h64v32h-64V88z"/>
<path style="fill:#4799CF;" d="M200.002,104h64v16h-64V104z"/>
<g>
	<path style="fill:#B3E4E8;" d="M40.002,256h16v32h-16V256z"/>
	<path style="fill:#B3E4E8;" d="M72.002,256h16v32h-16V256z"/>
	<path style="fill:#B3E4E8;" d="M104.002,256h16v32h-16V256z"/>
	<path style="fill:#B3E4E8;" d="M136.002,256h16v32h-16V256z"/>
	<path style="fill:#B3E4E8;" d="M144.002,384c-9.19,0.005-17.936-3.951-24-10.856c-11.656,13.255-31.851,14.551-45.105,2.895
		c-1.026-0.902-1.993-1.869-2.895-2.895c-11.68,13.264-31.9,14.547-45.164,2.868s-14.547-31.9-2.868-45.164
		c4.237-4.812,9.823-8.24,16.032-9.84V304h112v17.008c17.116,4.401,27.424,21.844,23.024,38.96
		C171.386,374.124,158.618,384.014,144.002,384z"/>
</g>
<g>
	<path style="fill:#231F20;" d="M272.002,128h40c13.255,0,24-10.745,24-24V64c0-13.255-10.745-24-24-24h-112
		c-39.746,0.044-71.956,32.254-72,72v16H272.002z M256.002,112h-48V96h48V112z M200.002,56h112c4.418,0,8,3.582,8,8v40
		c0,4.418-3.582,8-8,8h-40V80h-80v32h-48C144.037,81.087,169.089,56.035,200.002,56z"/>
	<path style="fill:#231F20;" d="M40.002,256h16v32h-16V256z"/>
	<path style="fill:#231F20;" d="M72.002,256h16v32h-16V256z"/>
	<path style="fill:#231F20;" d="M104.002,256h16v32h-16V256z"/>
	<path style="fill:#231F20;" d="M136.002,256h16v32h-16V256z"/>
	<path style="fill:#231F20;" d="M40.002,321.008c-17.114,4.41-27.413,21.858-23.004,38.972c4.41,17.114,21.858,27.413,38.972,23.004
		c6.209-1.6,11.794-5.028,16.032-9.84c11.656,13.255,31.851,14.551,45.105,2.895c1.026-0.902,1.993-1.869,2.895-2.895
		c11.68,13.264,31.9,14.548,45.164,2.868c13.264-11.68,14.548-31.9,2.868-45.164c-4.237-4.812-9.823-8.24-16.032-9.84V304h-112
		V321.008z M56.002,336v-16h80v16h8c8.837,0,16,7.163,16,16s-7.163,16-16,16s-16-7.163-16-16h-16c0,8.837-7.163,16-16,16
		s-16-7.163-16-16h-16c0,8.837-7.163,16-16,16s-16-7.163-16-16s7.163-16,16-16H56.002z"/>
	<path style="fill:#231F20;" d="M32.002,16v53.768c-20.79,28.534-31.994,62.927-32,98.232v72h320v-40c0-13.255,10.745-24,24-24h40
		V56c-0.035-30.913-25.087-55.965-56-56h-160c-24.927,0.029-49.531,5.647-72,16.44V16H32.002z M48.002,32H69.77
		C62,37.59,54.718,43.828,48.002,50.648L48.002,32z M304.002,224h-288v-16h288V224z M168.002,16h160c22.08,0.026,39.974,17.92,40,40
		v104h-24c-19.001,0.024-35.373,13.389-39.2,32h-288.8v-24C16.094,84.091,84.093,16.093,168.002,16z"/>
</g>
<g>
</g>
<g>
</g>
<g>
</g>
<g>
</g>
<g>
</g>
<g>
</g>
<g>
</g>
<g>
</g>
<g>
</g>
<g>
</g>
<g>
</g>
<g>
</g>
<g>
</g>
<g>
</g>
<g>
</g>
</svg>
