<?xml version="1.0" encoding="iso-8859-1"?>
<!-- Generator: Adobe Illustrator 19.0.0, SVG Export Plug-In . SVG Version: 6.00 Build 0)  -->
<svg version="1.1" id="Capa_1" xmlns="http://www.w3.org/2000/svg" xmlns:xlink="http://www.w3.org/1999/xlink" x="0px" y="0px"
	 viewBox="0 0 464 464" style="enable-background:new 0 0 464 464;" xml:space="preserve">
<g>
	<path style="fill:#B9B9B9;" d="M136,425.161H8v-248h128h16v128h-16V425.161z"/>
	<path style="fill:#B9B9B9;" d="M456,425.161H328v-120h-16v-128h16h128V425.161z"/>
</g>
<g>
	<path style="fill:#8F563B;" d="M8,305.161h136v120H8V305.161z"/>
	<path style="fill:#8F563B;" d="M320,305.161h136v120H320V305.161z"/>
</g>
<g>
	<path style="fill:#787D82;" d="M32,201.161h16v16H32V201.161z"/>
	<path style="fill:#787D82;" d="M32,233.161h16v16H32V233.161z"/>
	<path style="fill:#787D82;" d="M32,265.161h16v16H32V265.161z"/>
	<path style="fill:#787D82;" d="M64,201.161h16v16H64V201.161z"/>
	<path style="fill:#787D82;" d="M64,233.161h16v16H64V233.161z"/>
	<path style="fill:#787D82;" d="M64,265.161h16v16H64V265.161z"/>
	<path style="fill:#787D82;" d="M96,201.161h16v16H96V201.161z"/>
	<path style="fill:#787D82;" d="M96,233.161h16v16H96V233.161z"/>
	<path style="fill:#787D82;" d="M96,265.161h16v16H96V265.161z"/>
	<path style="fill:#787D82;" d="M352,201.161h16v16h-16V201.161z"/>
	<path style="fill:#787D82;" d="M352,233.161h16v16h-16V233.161z"/>
	<path style="fill:#787D82;" d="M352,265.161h16v16h-16V265.161z"/>
	<path style="fill:#787D82;" d="M384,201.161h16v16h-16V201.161z"/>
	<path style="fill:#787D82;" d="M384,233.161h16v16h-16V233.161z"/>
	<path style="fill:#787D82;" d="M384,265.161h16v16h-16V265.161z"/>
	<path style="fill:#787D82;" d="M416,201.161h16v16h-16V201.161z"/>
	<path style="fill:#787D82;" d="M416,233.161h16v16h-16V233.161z"/>
	<path style="fill:#787D82;" d="M416,265.161h16v16h-16V265.161z"/>
</g>
<g>
	<path style="fill:#F3AF3E;" d="M29.68,133.729c-4.418,0.004-8.004-3.574-8.008-7.992c-0.001-0.636,0.075-1.27,0.224-1.888
		c15.837-64.777,80.769-104.819,145.76-89.888c4.306,0.996,6.988,5.294,5.992,9.6s-5.294,6.988-9.6,5.992l0,0
		c-56.44-12.934-112.813,21.827-126.6,78.064C36.577,131.202,33.369,133.726,29.68,133.729L29.68,133.729z"/>
	<path style="fill:#F3AF3E;" d="M68.848,142.809c-4.418,0-8-3.582-8-8c0-0.633,0.075-1.264,0.224-1.88
		c10.534-43.172,53.801-69.869,97.112-59.92c4.308,0.996,6.992,5.296,5.996,9.604c-0.996,4.308-5.296,6.992-9.604,5.996l0,0
		c-34.761-7.98-69.487,13.436-77.96,48.08C75.749,140.277,72.539,142.805,68.848,142.809L68.848,142.809z"/>
	<path style="fill:#F3AF3E;" d="M437.84,133.729c-3.686-0.006-6.89-2.53-7.76-6.112c-13.777-56.247-70.153-91.02-126.6-78.088
		c-4.252,1.2-8.672-1.274-9.872-5.526s1.274-8.672,5.526-9.872c0.241-0.068,0.484-0.125,0.73-0.17
		c64.981-14.903,129.888,25.131,145.736,89.888c1.039,4.292-1.597,8.614-5.888,9.656
		C439.099,133.652,438.471,133.728,437.84,133.729L437.84,133.729z"/>
	<path style="fill:#F3AF3E;" d="M398.68,142.809c-3.691-0.004-6.901-2.532-7.768-6.12c-8.477-34.645-43.205-56.061-77.968-48.08
		c-4.308,0.996-8.608-1.688-9.604-5.996c-0.996-4.308,1.688-8.608,5.996-9.604c43.314-9.945,86.583,16.749,97.128,59.92
		c1.038,4.295-1.601,8.618-5.896,9.656C399.95,142.734,399.316,142.81,398.68,142.809L398.68,142.809z"/>
</g>
<circle style="fill:#744630;" cx="72" cy="361.161" r="32"/>
<ellipse style="fill:#5B3726;" cx="72" cy="353.161" rx="30.872" ry="24"/>
<circle style="fill:#744630;" cx="392" cy="361.161" r="32"/>
<path style="fill:#428DC5;" d="M168,153.161h128c17.673,0,32,14.327,32,32v240l0,0H136l0,0v-240
	C136,167.488,150.327,153.161,168,153.161z"/>
<circle style="fill:#277BAA;" cx="232" cy="369.161" r="24"/>
<path style="fill:#A8A8A8;" d="M168,153.161h128c17.673,0,32,14.327,32,32v16l0,0H136l0,0v-16
	C136,167.488,150.327,153.161,168,153.161z"/>
<path style="fill:#6CBAE5;" d="M176,233.161h120v56H176V233.161z"/>
<path style="fill:#F7BA61;" d="M192,313.161h16v16h-16V313.161z"/>
<path style="fill:#8DC79D;" d="M224,313.161h16v16h-16V313.161z"/>
<path style="fill:#EA6B65;" d="M256,313.161h16v16h-16V313.161z"/>
<path style="fill:#4799CF;" d="M176,237.289v51.872h120v-0.64C232.752,284.425,195.096,256.969,176,237.289L176,237.289z"/>
<ellipse style="fill:#5B3726;" cx="392" cy="353.161" rx="30.872" ry="24"/>
<g>
	<path style="fill:#231F20;" d="M0,297.161v136h464v-264H332.608c-6.354-14.56-20.722-23.979-36.608-24H168
		c-15.886,0.021-30.254,9.44-36.608,24H0V297.161z M336,209.161v-24h112v112H336V209.161z M336,313.161h112v104H336V313.161z
		 M144,185.161c0-13.255,10.745-24,24-24h128c13.255,0,24,10.745,24,24v8H144V185.161z M144,297.161v-88h176v208H144V297.161z
		 M16,185.161h112v112H16V185.161z M16,313.161h112v104H16V313.161z"/>
	<path style="fill:#231F20;" d="M72,321.161c-22.091,0-40,17.909-40,40s17.909,40,40,40s40-17.909,40-40
		C111.974,339.081,94.08,321.187,72,321.161z M72,385.161c-13.255,0-24-10.745-24-24s10.745-24,24-24s24,10.745,24,24
		S85.255,385.161,72,385.161z"/>
	<path style="fill:#231F20;" d="M232,337.161c-17.673,0-32,14.327-32,32s14.327,32,32,32s32-14.327,32-32
		S249.673,337.161,232,337.161z M232,385.161c-8.837,0-16-7.163-16-16s7.163-16,16-16c8.837,0,16,7.163,16,16
		S240.837,385.161,232,385.161z"/>
	<path style="fill:#231F20;" d="M392,321.161c-22.091,0-40,17.909-40,40s17.909,40,40,40s40-17.909,40-40
		C431.974,339.081,414.08,321.187,392,321.161z M392,385.161c-13.255,0-24-10.745-24-24s10.745-24,24-24s24,10.745,24,24
		S405.255,385.161,392,385.161z"/>
	<path style="fill:#231F20;" d="M168,297.161h136v-72H168V297.161z M184,241.161h104v40H184V241.161z"/>
	<path style="fill:#231F20;" d="M192,313.161h16v16h-16V313.161z"/>
	<path style="fill:#231F20;" d="M224,313.161h16v16h-16V313.161z"/>
	<path style="fill:#231F20;" d="M256,313.161h16v16h-16V313.161z"/>
	<path style="fill:#231F20;" d="M32,201.161h16v16H32V201.161z"/>
	<path style="fill:#231F20;" d="M32,233.161h16v16H32V233.161z"/>
	<path style="fill:#231F20;" d="M32,265.161h16v16H32V265.161z"/>
	<path style="fill:#231F20;" d="M64,201.161h16v16H64V201.161z"/>
	<path style="fill:#231F20;" d="M64,233.161h16v16H64V233.161z"/>
	<path style="fill:#231F20;" d="M64,265.161h16v16H64V265.161z"/>
	<path style="fill:#231F20;" d="M96,201.161h16v16H96V201.161z"/>
	<path style="fill:#231F20;" d="M96,233.161h16v16H96V233.161z"/>
	<path style="fill:#231F20;" d="M96,265.161h16v16H96V265.161z"/>
	<path style="fill:#231F20;" d="M352,201.161h16v16h-16V201.161z"/>
	<path style="fill:#231F20;" d="M352,233.161h16v16h-16V233.161z"/>
	<path style="fill:#231F20;" d="M352,265.161h16v16h-16V265.161z"/>
	<path style="fill:#231F20;" d="M384,201.161h16v16h-16V201.161z"/>
	<path style="fill:#231F20;" d="M384,233.161h16v16h-16V233.161z"/>
	<path style="fill:#231F20;" d="M384,265.161h16v16h-16V265.161z"/>
	<path style="fill:#231F20;" d="M416,201.161h16v16h-16V201.161z"/>
	<path style="fill:#231F20;" d="M416,233.161h16v16h-16V233.161z"/>
	<path style="fill:#231F20;" d="M416,265.161h16v16h-16V265.161z"/>
	<path style="fill:#231F20;" d="M173.648,43.561c0.997-4.304-1.684-8.602-5.988-9.599c-0.001,0-0.003-0.001-0.004-0.001
		C102.665,19.03,37.733,59.072,21.896,123.849c-1.041,4.295,1.597,8.619,5.892,9.66c4.295,1.04,8.619-1.597,9.66-5.892
		c13.777-56.247,70.153-91.02,126.6-78.088C168.346,50.528,172.642,47.858,173.648,43.561L173.648,43.561z"/>
	<path style="fill:#231F20;" d="M164.176,82.617c0.997-4.304-1.684-8.602-5.988-9.599c-0.001,0-0.003-0.001-0.004-0.001
		c-43.311-9.949-86.578,16.748-97.112,59.92c-1.172,4.26,1.332,8.663,5.592,9.835c4.26,1.172,8.663-1.332,9.835-5.592
		c0.044-0.16,0.083-0.321,0.117-0.483c8.473-34.644,43.199-56.06,77.96-48.08c4.305,0.996,8.602-1.686,9.598-5.99
		C164.174,82.623,164.175,82.62,164.176,82.617z"/>
	<path style="fill:#231F20;" d="M437.84,133.729c0.639,0.001,1.275-0.075,1.896-0.224c4.291-1.042,6.927-5.364,5.888-9.656
		c-15.848-64.768-80.771-104.806-145.76-89.888c-4.306,0.999-6.987,5.298-5.988,9.604s5.298,6.987,9.604,5.988
		c56.44-12.934,112.813,21.827,126.6,78.064C430.95,131.199,434.154,133.723,437.84,133.729L437.84,133.729z"/>
	<path style="fill:#231F20;" d="M390.912,136.689c1.038,4.295,5.361,6.934,9.656,5.896c4.295-1.038,6.934-5.361,5.896-9.656
		c-10.545-43.171-53.814-69.865-97.128-59.92c-4.308,0.996-6.992,5.296-5.996,9.604c0.996,4.308,5.296,6.992,9.604,5.996
		C347.707,80.628,382.435,102.044,390.912,136.689L390.912,136.689z"/>
</g>
<g>
</g>
<g>
</g>
<g>
</g>
<g>
</g>
<g>
</g>
<g>
</g>
<g>
</g>
<g>
</g>
<g>
</g>
<g>
</g>
<g>
</g>
<g>
</g>
<g>
</g>
<g>
</g>
<g>
</g>
</svg>
