<?xml version="1.0" encoding="iso-8859-1"?>
<!-- Generator: Adobe Illustrator 19.0.0, SVG Export Plug-In . SVG Version: 6.00 Build 0)  -->
<svg version="1.1" id="Capa_1" xmlns="http://www.w3.org/2000/svg" xmlns:xlink="http://www.w3.org/1999/xlink" x="0px" y="0px"
	 viewBox="0 0 384 384" style="enable-background:new 0 0 384 384;" xml:space="preserve">
<path style="fill:#1F6C8C;" d="M192,80c-70.576,0-128,61.008-128,136v48h32v-32l0.216-8.984C96.072,220.696,96,218.357,96,216
	c0-57.344,43.064-104,96-104s96,46.656,96,104c0,2.363-0.072,4.701-0.216,7.016L288,232v32h32v-48C320,141.008,262.576,80,192,80z"
	/>
<g>
	<path style="fill:#F7BA61;" d="M56,304h-8c-22.091,0-40-17.909-40-40v-8c0-22.091,17.909-40,40-40h24v88H56z"/>
	<path style="fill:#F7BA61;" d="M328,304h8c22.091,0,40-17.909,40-40v-8c0-22.091-17.909-40-40-40h-24v88H328z"/>
</g>
<g>
	<path style="fill:#DC4D41;" d="M328,304h-64v-88h64V304z"/>
	<path style="fill:#DC4D41;" d="M56,216h64v88H56V216z"/>
</g>
<path style="fill:#231F20;" d="M256,312h80c26.499-0.026,47.974-21.501,48-48v-8c-0.026-26.499-21.501-47.974-48-48h-8.384
	C323.664,132.328,264.416,72,192,72S60.336,132.328,56.384,208H48c-26.499,0.026-47.974,21.501-48,48v8
	c0.026,26.499,21.501,47.974,48,48h80V208h-23.632c3.752-49.2,41.6-88,87.632-88s83.88,38.8,87.632,88H256L256,312z M336,224
	c17.673,0,32,14.327,32,32v8c0,17.673-14.327,32-32,32V224z M48,296c-17.673,0-32-14.327-32-32v-8c0-17.673,14.327-32,32-32V296z
	 M112,224v72H64v-72H112z M192,104c-54.84,0-99.784,45.976-103.624,104h-16c3.904-66.848,56-120,119.624-120
	s115.72,53.152,119.624,120h-16C291.784,149.976,246.84,104,192,104z M272,224h48v72h-48V224z"/>
<g>
</g>
<g>
</g>
<g>
</g>
<g>
</g>
<g>
</g>
<g>
</g>
<g>
</g>
<g>
</g>
<g>
</g>
<g>
</g>
<g>
</g>
<g>
</g>
<g>
</g>
<g>
</g>
<g>
</g>
</svg>
