<?xml version="1.0" encoding="iso-8859-1"?>
<!-- Generator: Adobe Illustrator 19.0.0, SVG Export Plug-In . SVG Version: 6.00 Build 0)  -->
<svg version="1.1" id="Capa_1" xmlns="http://www.w3.org/2000/svg" xmlns:xlink="http://www.w3.org/1999/xlink" x="0px" y="0px"
	 viewBox="0 0 476.065 476.065" style="enable-background:new 0 0 476.065 476.065;" xml:space="preserve">
<path style="fill:#6FBBC6;" d="M222.033,380.065h32v64h-32V380.065z"/>
<path style="fill:#3B869E;" d="M222.033,380.065h32v32h-32V380.065z"/>
<circle style="fill:#EBEBEB;" cx="238.033" cy="196.065" r="188"/>
<g>
	<path style="fill:#6FBBC6;" d="M238.033,392.065c-108.248,0-196-87.752-196-196s87.752-196,196-196s196,87.752,196,196
		C433.909,304.262,346.229,391.942,238.033,392.065z M238.033,16.065c-99.411,0-180,80.589-180,180s80.589,180,180,180
		s180-80.589,180-180C417.918,96.702,337.396,16.18,238.033,16.065z"/>
	<path style="fill:#6FBBC6;" d="M238.033,36.065h16c44.183,0,80,35.817,80,80s-35.817,80-80,80h-16l0,0V36.065L238.033,36.065z"/>
</g>
<g>
	<path style="fill:#3B869E;" d="M398.033,196.065v16c0,44.183-35.817,80-80,80s-80-35.817-80-80v-16l0,0H398.033L398.033,196.065z"
		/>
	<path style="fill:#3B869E;" d="M78.033,196.065v-16c0-44.183,35.817-80,80-80s80,35.817,80,80v16l0,0H78.033L78.033,196.065z"/>
</g>
<path style="fill:#6FBBC6;" d="M238.033,356.065h-16c-44.183,0-80-35.817-80-80s35.817-80,80-80h16l0,0V356.065L238.033,356.065z"/>
<circle style="fill:#8ACED8;" cx="238.033" cy="196.065" r="32"/>
<path style="fill:#6FBBC6;" d="M334.033,468.065h-192v-16c0-8.837,7.163-16,16-16h160c8.837,0,16,7.163,16,16V468.065z"/>
<g>
	<path style="fill:#231F20;" d="M214.033,390.545v37.52h-56c-13.255,0-24,10.745-24,24v24h208v-24c0-13.255-10.745-24-24-24h-56
		v-37.52c107.433-13.255,183.78-111.092,170.525-218.525C419.303,64.587,321.466-11.76,214.033,1.495S30.253,112.587,43.508,220.02
		C54.516,309.243,124.81,379.537,214.033,390.545z M318.033,444.065c4.418,0,8,3.582,8,8v8h-176v-8c0-4.418,3.582-8,8-8H318.033z
		 M230.033,428.065v-32h16v32H230.033z M238.033,16.065c99.411,0,180,80.589,180,180s-80.589,180-180,180s-180-80.589-180-180
		C58.147,96.702,138.669,16.18,238.033,16.065z"/>
	<path style="fill:#231F20;" d="M134.033,276.065c0.057,48.577,39.423,87.943,88,88h16c4.418,0,8-3.582,8-8v-93.536
		c27.832,39.8,82.658,49.502,122.458,21.67c23.548-16.467,37.565-43.4,37.542-72.134v-16c0-4.418-3.582-8-8-8h-93.536
		c39.8-27.832,49.502-82.658,21.67-122.458c-16.467-23.548-43.4-37.565-72.134-37.542h-16c-4.418,0-8,3.582-8,8v93.536
		c-27.832-39.8-82.658-49.502-122.458-21.67c-23.548,16.467-37.565,43.4-37.542,72.134v16c0,4.418,3.582,8,8,8h93.536
		C148.104,220.543,134.106,247.393,134.033,276.065L134.033,276.065z M230.033,348.065h-8c-39.764-0.055-71.955-32.336-71.9-72.1
		c0.043-31.17,20.138-58.772,49.788-68.388c4.202,14.052,15.758,24.677,30.112,27.688V348.065z M390.033,204.065v8
		c-0.073,39.764-32.368,71.94-72.133,71.867c-31.148-0.057-58.727-20.138-68.347-49.763c14.047-4.203,24.668-15.755,27.68-30.104
		H390.033z M246.033,44.065h8c39.764,0.055,71.955,32.336,71.9,72.1c-0.043,31.17-20.138,58.772-49.788,68.388
		c-4.202-14.052-15.758-24.677-30.112-27.688V44.065z M238.033,172.065c13.255,0,24,10.745,24,24s-10.745,24-24,24
		c-13.255,0-24-10.745-24-24S224.778,172.065,238.033,172.065z M86.033,188.065v-8c0.073-39.764,32.368-71.94,72.133-71.867
		c31.148,0.057,58.727,20.138,68.347,49.763c-14.047,4.203-24.668,15.755-27.68,30.104H86.033z"/>
</g>
<g>
</g>
<g>
</g>
<g>
</g>
<g>
</g>
<g>
</g>
<g>
</g>
<g>
</g>
<g>
</g>
<g>
</g>
<g>
</g>
<g>
</g>
<g>
</g>
<g>
</g>
<g>
</g>
<g>
</g>
</svg>
