<?xml version="1.0" encoding="iso-8859-1"?>
<!-- Generator: Adobe Illustrator 19.0.0, SVG Export Plug-In . SVG Version: 6.00 Build 0)  -->
<svg version="1.1" id="Capa_1" xmlns="http://www.w3.org/2000/svg" xmlns:xlink="http://www.w3.org/1999/xlink" x="0px" y="0px"
	 viewBox="0 0 367.999 367.999" style="enable-background:new 0 0 367.999 367.999;" xml:space="preserve">
<path style="fill:#F3AF3E;" d="M119.999,351.984h-32c-18.11-0.436-32.437-15.471-32-33.581c0-0.007,0-0.013,0-0.02v-134.4h96v134.4
	c0.447,18.109-13.871,33.152-31.98,33.6C120.012,351.984,120.006,351.984,119.999,351.984z"/>
<g>
	<path style="fill:#EA9D2D;" d="M119.999,351.984h-32c-17.673,0-32-14.327-32-32v-16h96v16
		C151.999,337.657,137.672,351.984,119.999,351.984z"/>
	<path style="fill:#EA9D2D;" d="M55.999,183.984h96v48h-96V183.984z"/>
</g>
<path style="fill:#F3AF3E;" d="M359.999,39.984l-238.968-22.4C68.896,7.944,18.817,42.394,9.177,94.53s24.81,102.214,76.946,111.854
	c11.538,2.133,23.37,2.133,34.908,0l238.968-22.4V39.984z"/>
<g>
	<path style="fill:#EA9D2D;" d="M359.999,39.984l-56-5.248v154.496l56-5.248V39.984z"/>
	<path style="fill:#EA9D2D;" d="M215.999,55.984h16v32h-16V55.984z"/>
	<path style="fill:#EA9D2D;" d="M183.999,55.984h16v32h-16V55.984z"/>
	<path style="fill:#EA9D2D;" d="M247.999,55.984h16v32h-16V55.984z"/>
</g>
<circle style="fill:#FBB540;" cx="103.999" cy="111.984" r="56"/>
<path style="fill:#EA9D2D;" d="M103.999,167.984c30.928,0,56-25.072,56-56h-112C47.999,142.912,73.071,167.984,103.999,167.984z"/>
<g>
	<path style="fill:#231F20;" d="M167.999,111.984c0-35.346-28.654-64-64-64s-64,28.654-64,64s28.654,64,64,64
		C139.329,175.944,167.96,147.314,167.999,111.984z M103.999,63.984c23.397,0.043,43.361,16.934,47.28,40h-94.56
		C60.638,80.917,80.602,64.027,103.999,63.984z M56.719,119.984h94.56c-4.392,26.112-29.12,43.72-55.232,39.328
		C75.897,155.923,60.108,140.135,56.719,119.984z"/>
	<path style="fill:#231F20;" d="M47.999,319.984c0.026,22.08,17.92,39.974,40,40h32c22.08-0.026,39.974-17.92,40-40V210.768
		l200.744-18.784c4.125-0.385,7.274-3.857,7.256-8v-144c0.018-4.143-3.131-7.615-7.256-8L122.439,9.704
		C65.991-0.544,11.922,36.91,1.675,93.359c-7.533,41.498,10.772,83.432,46.324,106.121L47.999,319.984z M143.999,319.984
		c0,13.255-10.745,24-24,24h-32c-13.255,0-24-10.745-24-24v-8h80V319.984z M143.999,295.984h-80v-88c12.67,5.295,26.268,8.015,40,8
		c5.962,0.005,11.911-0.531,17.776-1.6l22.224-2.12V295.984z M311.999,43.52l40,3.752v129.424l-40,3.76V43.52z M15.999,111.984
		c0.057-48.577,39.423-87.943,88-88c5.466,0.053,10.916,0.588,16.288,1.6l175.712,16.432v139.936l-176.376,16.56
		c-47.58,8.837-93.314-22.57-102.151-70.15C16.469,122.961,15.976,117.477,15.999,111.984L15.999,111.984z"/>
	<path style="fill:#231F20;" d="M215.999,55.984h16v32h-16V55.984z"/>
	<path style="fill:#231F20;" d="M183.999,55.984h16v32h-16V55.984z"/>
	<path style="fill:#231F20;" d="M247.999,55.984h16v32h-16V55.984z"/>
</g>
<g>
</g>
<g>
</g>
<g>
</g>
<g>
</g>
<g>
</g>
<g>
</g>
<g>
</g>
<g>
</g>
<g>
</g>
<g>
</g>
<g>
</g>
<g>
</g>
<g>
</g>
<g>
</g>
<g>
</g>
</svg>
