<?xml version="1.0" encoding="iso-8859-1"?>
<!-- Generator: Adobe Illustrator 19.0.0, SVG Export Plug-In . SVG Version: 6.00 Build 0)  -->
<svg version="1.1" id="Capa_1" xmlns="http://www.w3.org/2000/svg" xmlns:xlink="http://www.w3.org/1999/xlink" x="0px" y="0px"
	 viewBox="0 0 480 480" style="enable-background:new 0 0 480 480;" xml:space="preserve">
<path style="fill:#A8A8A8;" d="M64,88H8c-4.418,0-8-3.582-8-8s3.582-8,8-8h56c4.418,0,8,3.582,8,8S68.418,88,64,88z"/>
<path style="fill:#1F6C8C;" d="M104,112H88c-17.673,0-32-14.327-32-32s14.327-32,32-32h24v64H104z"/>
<path style="fill:#3B869E;" d="M104,48h40v72h-40V48z"/>
<path style="fill:#6FBBC6;" d="M136,48h96v64h-96V48z"/>
<path style="fill:#DA922A;" d="M216,184h-8c-39.764,0-72-32.236-72-72V96h88v88H216z"/>
<path style="fill:#66ACB6;" d="M312,264h-24c-22.091,0-40-17.909-40-40v-27.336h80V264H312z"/>
<g>
	<path style="fill:#6FBBC6;" d="M424,208H240c-13.255,0-24-10.745-24-24V48h208c26.51,0,48,21.49,48,48v64
		C472,186.51,450.51,208,424,208z"/>
	<path style="fill:#6FBBC6;" d="M312,184h88v208h-88V184z"/>
</g>
<path style="fill:#EA9D2D;" d="M312,208h56v128h-56V208z"/>
<path style="fill:#3B869E;" d="M280,368h152v64H280V368z"/>
<g>
	<path style="fill:#D18D28;" d="M336,248c4.418,0,8-3.582,8-8s-3.582-8-8-8h-24v16H336z"/>
	<path style="fill:#D18D28;" d="M336,280c4.418,0,8-3.582,8-8s-3.582-8-8-8h-24v16H336z"/>
	<path style="fill:#D18D28;" d="M336,312c4.418,0,8-3.582,8-8s-3.582-8-8-8h-24v16H336z"/>
</g>
<path style="fill:#1F6C8C;" d="M280,400h152v32H280V400z"/>
<g>
	<path style="fill:#3B869E;" d="M280,104h-32c-4.418,0-8-3.582-8-8s3.582-8,8-8h32c4.418,0,8,3.582,8,8S284.418,104,280,104z"/>
	<path style="fill:#3B869E;" d="M280,136h-32c-4.418,0-8-3.582-8-8s3.582-8,8-8h32c4.418,0,8,3.582,8,8S284.418,136,280,136z"/>
	<path style="fill:#3B869E;" d="M280,168h-32c-4.418,0-8-3.582-8-8s3.582-8,8-8h32c4.418,0,8,3.582,8,8S284.418,168,280,168z"/>
	<path style="fill:#3B869E;" d="M440,104h-32c-4.418,0-8-3.582-8-8s3.582-8,8-8h32c4.418,0,8,3.582,8,8S444.418,104,440,104z"/>
	<path style="fill:#3B869E;" d="M440,136h-32c-4.418,0-8-3.582-8-8s3.582-8,8-8h32c4.418,0,8,3.582,8,8S444.418,136,440,136z"/>
	<path style="fill:#3B869E;" d="M440,168h-32c-4.418,0-8-3.582-8-8s3.582-8,8-8h32c4.418,0,8,3.582,8,8S444.418,168,440,168z"/>
</g>
<g>
	<path style="fill:#231F20;" d="M424,40H88c-19.001,0.024-35.373,13.389-39.2,32H8c-4.418,0-8,3.582-8,8s3.582,8,8,8h40.8
		c3.827,18.611,20.199,31.976,39.2,32h8c0,4.418,3.582,8,8,8h25.6c7.649,37.226,40.396,63.958,78.4,64h1.136
		c3.637,14.085,16.317,23.945,30.864,24v8c0.026,26.499,21.501,47.974,48,48h16v88h-24c-4.418,0-8,3.582-8,8v64c0,4.418,3.582,8,8,8
		h152c4.418,0,8-3.582,8-8v-64c0-4.418-3.582-8-8-8h-24V216h16c30.911-0.04,55.96-25.089,56-56V96
		C479.96,65.089,454.911,40.04,424,40z M96,104h-8c-13.255,0-24-10.745-24-24s10.745-24,24-24h8V104z M128,88v24h-16V56h16V88z
		 M208,176c-35.33-0.04-63.96-28.67-64-64v-8h64V176z M208,88h-64V56h64V88z M288,256c-17.673,0-32-14.327-32-32v-8h48v40H288z
		 M424,424H288v-16h136V424z M424,376v16H288v-16H424z M336,296h-16v-16h16c4.418,0,8-3.582,8-8s-3.582-8-8-8h-16v-16h16
		c4.418,0,8-3.582,8-8s-3.582-8-8-8h-16v-16h40v112h-40v-16h16c4.418,0,8-3.582,8-8S340.418,296,336,296z M368,344
		c4.418,0,8-3.582,8-8V216h16v144h-72v-16H368z M464,160c-0.026,22.08-17.92,39.974-40,40H240c-8.837,0-16-7.163-16-16V56h200
		c22.08,0.026,39.974,17.92,40,40V160z"/>
	<path style="fill:#231F20;" d="M280,88h-32c-4.418,0-8,3.582-8,8s3.582,8,8,8h32c4.418,0,8-3.582,8-8S284.418,88,280,88z"/>
	<path style="fill:#231F20;" d="M280,120h-32c-4.418,0-8,3.582-8,8s3.582,8,8,8h32c4.418,0,8-3.582,8-8S284.418,120,280,120z"/>
	<path style="fill:#231F20;" d="M280,152h-32c-4.418,0-8,3.582-8,8s3.582,8,8,8h32c4.418,0,8-3.582,8-8S284.418,152,280,152z"/>
	<path style="fill:#231F20;" d="M440,88h-32c-4.418,0-8,3.582-8,8s3.582,8,8,8h32c4.418,0,8-3.582,8-8S444.418,88,440,88z"/>
	<path style="fill:#231F20;" d="M440,120h-32c-4.418,0-8,3.582-8,8s3.582,8,8,8h32c4.418,0,8-3.582,8-8S444.418,120,440,120z"/>
	<path style="fill:#231F20;" d="M440,152h-32c-4.418,0-8,3.582-8,8s3.582,8,8,8h32c4.418,0,8-3.582,8-8S444.418,152,440,152z"/>
</g>
<g>
</g>
<g>
</g>
<g>
</g>
<g>
</g>
<g>
</g>
<g>
</g>
<g>
</g>
<g>
</g>
<g>
</g>
<g>
</g>
<g>
</g>
<g>
</g>
<g>
</g>
<g>
</g>
<g>
</g>
</svg>
