<?xml version="1.0" encoding="iso-8859-1"?>
<!-- Generator: Adobe Illustrator 19.0.0, SVG Export Plug-In . SVG Version: 6.00 Build 0)  -->
<svg version="1.1" id="Capa_1" xmlns="http://www.w3.org/2000/svg" xmlns:xlink="http://www.w3.org/1999/xlink" x="0px" y="0px"
	 viewBox="0 0 472 472" style="enable-background:new 0 0 472 472;" xml:space="preserve">
<path style="fill:#B9B9B9;" d="M128,360.004h48v56h-48V360.004z"/>
<path style="fill:#A8A8A8;" d="M128,368.004h48v16h-48V368.004z"/>
<path style="fill:#D9D9D9;" d="M344,176.004h104c8.837,0,16,7.163,16,16v224c0,8.837-7.163,16-16,16H344c-8.837,0-16-7.163-16-16
	v-224C328,183.168,335.163,176.004,344,176.004z"/>
<path style="fill:#EBEBEB;" d="M8,176.004h288v192H8V176.004z"/>
<path style="fill:#6FBBC6;" d="M8,176.004h288v144H8V176.004z"/>
<path style="fill:#A8A8A8;" d="M144,336.004h16v16h-16V336.004z"/>
<path style="fill:#EBEBEB;" d="M80,400.004h144v32H80V400.004z"/>
<g>
	<path style="fill:#6FBBC6;" d="M368,272.004h56v16h-56V272.004z"/>
	<path style="fill:#6FBBC6;" d="M368,240.004h56v16h-56V240.004z"/>
</g>
<g>
	<path style="fill:#B9B9B9;" d="M328,400.004h136l0,0v16c0,8.837-7.163,16-16,16H344c-8.837,0-16-7.163-16-16V400.004L328,400.004z"
		/>
	<path style="fill:#B9B9B9;" d="M464,216.004H328v-24c0-8.837,7.163-16,16-16h104c8.837,0,16,7.163,16,16V216.004z"/>
</g>
<path style="fill:#6FBBC6;" d="M376,312.004h40v56h-40V312.004z"/>
<g>
	<path style="fill:#F7BA61;" d="M392,80.804c-2.098-0.007-4.109-0.837-5.6-2.312c-41.248-40.662-107.504-40.662-148.752,0
		c-3.042,3.204-8.105,3.336-11.31,0.294s-3.336-8.105-0.294-11.31c0.115-0.121,0.234-0.239,0.356-0.352
		c47.479-46.827,123.769-46.827,171.248,0c3.137,3.111,3.158,8.177,0.046,11.314C396.189,79.956,394.138,80.808,392,80.804z"/>
	<path style="fill:#F7BA61;" d="M363.432,109.092c-2.098-0.007-4.109-0.837-5.6-2.312c-25.407-25.036-66.209-25.036-91.616,0
		c-3.193,3.054-8.257,2.942-11.311-0.25c-2.983-3.118-2.956-8.041,0.063-11.126c31.639-31.202,82.473-31.202,114.112,0
		c3.141,3.107,3.169,8.172,0.063,11.314c-1.497,1.513-3.534,2.368-5.663,2.374H363.432z"/>
	<path style="fill:#F7BA61;" d="M334.856,137.38c-2.099-0.009-4.11-0.842-5.6-2.32c-9.681-9.097-24.767-9.097-34.448,0
		c-3.137,3.113-8.203,3.093-11.316-0.044c-3.113-3.137-3.093-8.203,0.044-11.316c15.797-15.596,41.195-15.596,56.992,0
		c3.137,3.111,3.158,8.177,0.047,11.314c-1.494,1.506-3.525,2.357-5.647,2.366H334.856z"/>
</g>
<path style="fill:#69B0BB;" d="M8,316.844v3.16h288v-144h-2.96C259.536,212.524,176.672,281.492,8,316.844z"/>
<g>
	<path style="fill:#231F20;" d="M144,336.004h16v16h-16V336.004z"/>
	<path style="fill:#231F20;" d="M120,392.004H72v48h160v-48h-48v-16h120v-208H0v208h120V392.004z M216,408.004v16H88v-16H216z
		 M136,392.004v-16h32v16H136z M16,184.004h272v128H16V184.004z M16,360.004v-32h272v32H16z"/>
	<path style="fill:#231F20;" d="M368,272.004h56v16h-56V272.004z"/>
	<path style="fill:#231F20;" d="M368,240.004h56v16h-56V240.004z"/>
	<path style="fill:#231F20;" d="M448,168.004H344c-13.255,0-24,10.745-24,24v224c0,13.255,10.745,24,24,24l0,0h104
		c13.255,0,24-10.745,24-24l0,0v-224C472,178.749,461.255,168.004,448,168.004z M456,416.004c0,4.418-3.582,8-8,8H344
		c-4.418,0-8-3.582-8-8v-8h120V416.004z M456,392.004H336v-168h120V392.004z M456,208.004H336v-16c0-4.418,3.582-8,8-8h104
		c4.418,0,8,3.582,8,8V208.004z"/>
	<path style="fill:#231F20;" d="M424,304.004h-56v72h56V304.004z M408,360.004h-24v-40h24V360.004z"/>
	<path style="fill:#231F20;" d="M392,80.804c4.418-0.014,7.989-3.607,7.974-8.025c-0.007-2.128-0.861-4.166-2.374-5.663
		c-47.479-46.827-123.769-46.827-171.248,0c-3.144,3.106-3.174,8.172-0.068,11.316c3.106,3.144,8.172,3.174,11.316,0.068
		c41.248-40.662,107.504-40.662,148.752,0C387.857,79.984,389.887,80.812,392,80.804z"/>
	<path style="fill:#231F20;" d="M363.432,109.092c4.418-0.014,7.989-3.607,7.974-8.025c-0.007-2.128-0.861-4.166-2.374-5.663
		c-31.639-31.202-82.473-31.202-114.112,0c-3.09,3.158-3.036,8.223,0.122,11.313c3.085,3.019,8.007,3.046,11.126,0.063
		c25.407-25.036,66.209-25.036,91.616,0C359.287,108.267,361.318,109.098,363.432,109.092z"/>
	<path style="fill:#231F20;" d="M283.504,123.7c-3.137,3.113-3.157,8.179-0.044,11.316c3.113,3.137,8.179,3.157,11.316,0.044
		c9.681-9.097,24.767-9.097,34.448,0c3.137,3.113,8.203,3.093,11.316-0.044c3.113-3.137,3.093-8.203-0.044-11.316
		C324.699,108.105,299.301,108.105,283.504,123.7z"/>
</g>
<g>
</g>
<g>
</g>
<g>
</g>
<g>
</g>
<g>
</g>
<g>
</g>
<g>
</g>
<g>
</g>
<g>
</g>
<g>
</g>
<g>
</g>
<g>
</g>
<g>
</g>
<g>
</g>
<g>
</g>
</svg>
