<?xml version="1.0" encoding="iso-8859-1"?>
<!-- Generator: Adobe Illustrator 19.0.0, SVG Export Plug-In . SVG Version: 6.00 Build 0)  -->
<svg version="1.1" id="Capa_1" xmlns="http://www.w3.org/2000/svg" xmlns:xlink="http://www.w3.org/1999/xlink" x="0px" y="0px"
	 viewBox="0 0 480 480" style="enable-background:new 0 0 480 480;" xml:space="preserve">
<path style="fill:#5E8569;" d="M120,424h32v48h-32V424z"/>
<path style="fill:#C7463B;" d="M160,352h-24c-13.255,0-24-10.745-24-24v-32c0-13.255,10.745-24,24-24h24c4.418,0,8,3.582,8,8v64
	C168,348.418,164.418,352,160,352z M136,288c-4.418,0-8,3.582-8,8v32c0,4.418,3.582,8,8,8h16v-48H136z"/>
<path style="fill:#DC4D41;" d="M152,272h120v112H152V272z"/>
<path style="fill:#C7463B;" d="M152,360h120v24H152V360z"/>
<path style="fill:#EA6B65;" d="M240,344c-4.418,0-8-3.582-8-8v-32c0-4.418,3.582-8,8-8s8,3.582,8,8v32
	C248,340.418,244.418,344,240,344z"/>
<path style="fill:#6B9777;" d="M120,440v-48c0-8.837,7.163-16,16-16h336l0,0v64l0,0H120L120,440z"/>
<path style="fill:#787D82;" d="M112,144h56v32h-56V144z"/>
<path style="fill:#6B9777;" d="M176,80h80v64h-80V80z"/>
<path style="fill:#5E8569;" d="M440,424h32v48h-32V424z"/>
<g>
	<path style="fill:#85BC94;" d="M144,8h312c8.837,0,16,7.163,16,16v72l0,0H144c-8.837,0-16-7.163-16-16V24
		C128,15.163,135.163,8,144,8z"/>
	<path style="fill:#85BC94;" d="M472,440H344V8h112c8.837,0,16,7.163,16,16V440z"/>
</g>
<circle style="fill:#6B9777;" cx="408" cy="96" r="32"/>
<path style="fill:#B9B9B9;" d="M160,128h112v64H160V128z"/>
<path style="fill:#62666A;" d="M160,128h112v24H160V128z"/>
<path style="fill:#744630;" d="M40,128h88l0,0v64l0,0H40c-17.673,0-32-14.327-32-32S22.327,128,40,128z"/>
<g>
	<path style="fill:#6B9777;" d="M368,352h16v48h-16V352z"/>
	<path style="fill:#6B9777;" d="M400,352h16v48h-16V352z"/>
	<path style="fill:#6B9777;" d="M432,352h16v48h-16V352z"/>
</g>
<g>
	<path style="fill:#F4CA62;" d="M192,248c-4.418,0-8-3.582-8-8v-16c0-4.418,3.582-8,8-8s8,3.582,8,8v16
		C200,244.418,196.418,248,192,248z"/>
	<path style="fill:#F4CA62;" d="M224,248c-4.418,0-8-3.582-8-8v-16c0-4.418,3.582-8,8-8s8,3.582,8,8v16
		C232,244.418,228.418,248,224,248z"/>
	<path style="fill:#F4CA62;" d="M256,248c-4.418,0-8-3.582-8-8v-16c0-4.418,3.582-8,8-8s8,3.582,8,8v16
		C264,244.418,260.418,248,256,248z"/>
</g>
<g>
	<path style="fill:#231F20;" d="M456,0H144c-13.255,0-24,10.745-24,24v56c0,13.255,10.745,24,24,24h24v16h-8c-4.418,0-8,3.582-8,8v8
		h-16v-8c0-4.418-3.582-8-8-8H40c-22.091,0-40,17.909-40,40s17.909,40,40,40h88c4.418,0,8-3.582,8-8v-8h16v8c0,4.418,3.582,8,8,8
		h112c4.418,0,8-3.582,8-8v-64c0-4.418-3.582-8-8-8h-8v-16h72v264h-56v-96c0-4.418-3.582-8-8-8H160c-4.418,0-8,3.582-8,8h-16
		c-13.255,0-24,10.745-24,24v32c0,13.255,10.745,24,24,24h16v16h-16c-13.255,0-24,10.745-24,24v88h48v-32h272v32h48V24
		C480,10.745,469.255,0,456,0z M120,144v40H40c-13.255,0-24-10.745-24-24s10.745-24,24-24h80V144z M152,168h-16v-16h16V168z
		 M168,344v-64h96v88h-96V344z M136,336c-4.418,0-8-3.582-8-8v-32c0-4.418,3.582-8,8-8h16v48H136z M144,464h-16v-16h16V464z
		 M336,432H128v-40c0-4.418,3.582-8,8-8h200V432z M264,184h-96v-48h96V184z M184,120v-16h64v16H184z M464,464h-16v-16h16V464z
		 M464,96v336H352V96c0-4.418-3.582-8-8-8H144c-4.418,0-8-3.582-8-8V24c0-4.418,3.582-8,8-8h312c4.418,0,8,3.582,8,8V96z"/>
	<path style="fill:#231F20;" d="M408,56c-22.091,0-40,17.909-40,40s17.909,40,40,40s40-17.909,40-40
		C447.974,73.92,430.08,56.026,408,56z M408,120c-13.255,0-24-10.745-24-24s10.745-24,24-24s24,10.745,24,24S421.255,120,408,120z"
		/>
	<path style="fill:#231F20;" d="M368,352h16v48h-16V352z"/>
	<path style="fill:#231F20;" d="M400,352h16v48h-16V352z"/>
	<path style="fill:#231F20;" d="M432,352h16v48h-16V352z"/>
	<path style="fill:#231F20;" d="M240,296c-4.418,0-8,3.582-8,8v32c0,4.418,3.582,8,8,8s8-3.582,8-8v-32
		C248,299.582,244.418,296,240,296z"/>
	<path style="fill:#231F20;" d="M200,240v-16c0-4.418-3.582-8-8-8s-8,3.582-8,8v16c0,4.418,3.582,8,8,8S200,244.418,200,240z"/>
	<path style="fill:#231F20;" d="M232,240v-16c0-4.418-3.582-8-8-8s-8,3.582-8,8v16c0,4.418,3.582,8,8,8S232,244.418,232,240z"/>
	<path style="fill:#231F20;" d="M264,240v-16c0-4.418-3.582-8-8-8s-8,3.582-8,8v16c0,4.418,3.582,8,8,8S264,244.418,264,240z"/>
</g>
<g>
</g>
<g>
</g>
<g>
</g>
<g>
</g>
<g>
</g>
<g>
</g>
<g>
</g>
<g>
</g>
<g>
</g>
<g>
</g>
<g>
</g>
<g>
</g>
<g>
</g>
<g>
</g>
<g>
</g>
</svg>
