<?xml version="1.0" encoding="iso-8859-1"?>
<!-- Generator: Adobe Illustrator 19.0.0, SVG Export Plug-In . SVG Version: 6.00 Build 0)  -->
<svg version="1.1" id="Capa_1" xmlns="http://www.w3.org/2000/svg" xmlns:xlink="http://www.w3.org/1999/xlink" x="0px" y="0px"
	 viewBox="0 0 480 480" style="enable-background:new 0 0 480 480;" xml:space="preserve">
<path style="fill:#D9D9D9;" d="M456,472H24c-8.837,0-16-7.163-16-16V184h144v-16c0-8.837,7.163-16,16-16h288c8.837,0,16,7.163,16,16
	v288C472,464.837,464.837,472,456,472z"/>
<path style="fill:#744630;" d="M8,216h464l0,0v240c0,8.837-7.163,16-16,16H24c-8.837,0-16-7.163-16-16V216L8,216z"/>
<path style="fill:#B9B9B9;" d="M472,216H112v-32h40v-16c0-8.837,7.163-16,16-16h288c8.837,0,16,7.163,16,16V216z"/>
<path style="fill:#8ACED8;" d="M344,184h96v64h-96V184z"/>
<path style="fill:#B3E4E8;" d="M344,184h72v40h-72V184z"/>
<circle style="fill:#B9B9B9;" cx="256" cy="344" r="96"/>
<circle style="fill:#8ACED8;" cx="256" cy="344" r="64"/>
<path style="fill:#B3E4E8;" d="M192,344c0.006,9.073,1.948,18.041,5.696,26.304c32.162,14.566,70.042,0.302,84.608-31.86
	c7.592-16.763,7.592-35.985,0-52.748c-32.161-14.567-70.042-0.304-84.609,31.857C193.932,325.862,191.99,334.879,192,344L192,344z"
	/>
<path style="fill:#B9B9B9;" d="M192,8h136v112H192V8z"/>
<path style="fill:#F4CA62;" d="M224,40h72v48h-72V40z"/>
<path style="fill:#F9E0A0;" d="M224,40h48v24h-48V40z"/>
<path style="fill:#787D82;" d="M224,120h72v32h-72V120z"/>
<path style="fill:#8F563B;" d="M8,216h104l0,0v256l0,0H24c-8.837,0-16-7.163-16-16V216L8,216z"/>
<path style="fill:#B9B9B9;" d="M16,152h80v32H16V152z"/>
<path style="fill:#A8A8A8;" d="M32,120h48v32H32V120z"/>
<g>
	<path style="fill:#231F20;" d="M456,144H304v-16h32V0H184v128h32v16h-48c-13.255,0-24,10.745-24,24v8h-40v-32H88v-32H24v32H8v32H0
		v280c0,13.255,10.745,24,24,24h432c13.255,0,24-10.745,24-24V168C480,154.745,469.255,144,456,144z M40,128h32v16H40V128z M24,160
		h64v16H24V160z M104,464H24c-4.418,0-8-3.582-8-8V224h88V464z M104,208H16v-16h88V208z M200,112V16h120v96H200z M288,128v16h-56
		v-16H288z M464,456c0,4.418-3.582,8-8,8H120V224h216v32h112v-32h16V456z M352,240v-48h80v48H352z M464,208h-16v-32H336v32H120v-16
		h40v-24c0-4.418,3.582-8,8-8h288c4.418,0,8,3.582,8,8V208z"/>
	<path style="fill:#231F20;" d="M256,240c-57.438,0-104,46.562-104,104s46.562,104,104,104s104-46.562,104-104
		C359.934,286.59,313.41,240.066,256,240z M256,432c-48.601,0-88-39.399-88-88s39.399-88,88-88s88,39.399,88,88
		C343.943,392.577,304.577,431.943,256,432z"/>
	<path style="fill:#231F20;" d="M256,272c-39.764,0-72,32.236-72,72s32.236,72,72,72s72-32.236,72-72
		C327.956,304.254,295.746,272.044,256,272z M256,400c-30.928,0-56-25.072-56-56s25.072-56,56-56s56,25.072,56,56l0,0
		C311.965,374.913,286.913,399.965,256,400z"/>
	<path style="fill:#231F20;" d="M304,32h-88v64h88V32z M288,80h-56V48h56V80z"/>
</g>
<g>
</g>
<g>
</g>
<g>
</g>
<g>
</g>
<g>
</g>
<g>
</g>
<g>
</g>
<g>
</g>
<g>
</g>
<g>
</g>
<g>
</g>
<g>
</g>
<g>
</g>
<g>
</g>
<g>
</g>
</svg>
