<?xml version="1.0" encoding="iso-8859-1"?>
<!-- Generator: Adobe Illustrator 19.0.0, SVG Export Plug-In . SVG Version: 6.00 Build 0)  -->
<svg version="1.1" id="Capa_1" xmlns="http://www.w3.org/2000/svg" xmlns:xlink="http://www.w3.org/1999/xlink" x="0px" y="0px"
	 viewBox="0 0 432 432" style="enable-background:new 0 0 432 432;" xml:space="preserve">
<path style="fill:#69B0BB;" d="M88,288l-72-72l32-32l40,40l16,16L88,288z"/>
<path style="fill:#3B869E;" d="M16.007,216.002l32.001-32.001l24.002,24.002l-32.001,32.001L16.007,216.002z"/>
<path style="fill:#69B0BB;" d="M360,16h40v168h-40V16z"/>
<path style="fill:#3B869E;" d="M360,16h40v64h-40V16z"/>
<path style="fill:#744630;" d="M172,16h228l0,0v40l0,0H172c-11.046,0-20-8.954-20-20S160.954,16,172,16z"/>
<path style="fill:#6FBBC6;" d="M88,264h336v152H88V264z"/>
<path style="fill:#744630;" d="M88,384h336v32H88V384z"/>
<path style="fill:#6FBBC6;" d="M424,264v24H88v-24c0-88.366,71.634-160,160-160h16C352.366,104,424,175.634,424,264z"/>
<g>
	<path style="fill:#F9E0A0;" d="M32,48H16c0,4.488-1.736,6.4-5.656,10.328C-1.614,67.993-3.473,85.522,6.192,97.48
		c1.234,1.526,2.625,2.918,4.152,4.152c3.928,3.92,5.664,5.848,5.664,10.352s-1.736,6.4-5.664,10.352
		C3.879,127.686,0.096,135.609,0,144h16c0-4.496,1.736-6.4,5.664-10.352c11.965-9.678,13.818-27.223,4.14-39.188
		c-1.231-1.522-2.619-2.91-4.14-4.14C17.736,86.4,16,84.464,16,80s1.736-6.4,5.656-10.32C28.128,64.329,31.912,56.397,32,48z"/>
	<path style="fill:#F9E0A0;" d="M72,80c0-4.488,1.736-6.4,5.656-10.32C84.128,64.329,87.912,56.397,88,48H72
		c0,4.488-1.736,6.4-5.656,10.328c-11.958,9.665-13.817,27.194-4.152,39.152c1.234,1.526,2.625,2.918,4.152,4.152
		c3.928,3.92,5.664,5.848,5.664,10.352s-1.736,6.4-5.664,10.352C59.879,127.686,56.096,135.609,56,144h16
		c0-4.496,1.736-6.4,5.664-10.352c11.965-9.678,13.818-27.223,4.14-39.188c-1.231-1.522-2.619-2.91-4.14-4.14
		C73.736,86.4,72,84.464,72,80z"/>
</g>
<path style="fill:#3B869E;" d="M88,264h336v40H88V264z"/>
<g>
	<path style="fill:#231F20;" d="M40,251.312l40,40V424h352V264c-0.015-30.346-8.314-60.111-24-86.088V8H172
		c-15.464,0-28,12.536-28,28s12.536,28,28,28h180v57.16c-26.413-16.429-56.894-25.144-88-25.16h-16
		c-72.992,0.099-137.594,47.255-159.936,116.744L83.312,208L48,172.688L4.688,216L40,251.312z M172,48c-6.627,0-12-5.373-12-12
		s5.373-12,12-12h220v24H172z M392,64v91.448c-7.221-8.481-15.26-16.231-24-23.136V64H392z M248,112h16
		c80.799,0.099,147.439,63.318,151.792,144H96.208C100.561,175.318,167.201,112.099,248,112L248,112z M96,307.312V272h320v104H96
		V307.312z M96,392h320v16H96V392z M80,227.312v41.376L51.312,240L72,219.312L80,227.312z M60.688,208L40,228.688L27.312,216
		L48,195.312L60.688,208z"/>
	<path style="fill:#231F20;" d="M0,144h16c0-4.496,1.736-6.4,5.664-10.352c11.965-9.678,13.818-27.223,4.14-39.188
		c-1.231-1.522-2.619-2.91-4.14-4.14C17.736,86.4,16,84.464,16,80s1.736-6.4,5.656-10.32C28.128,64.329,31.912,56.397,32,48H16
		c0,4.488-1.736,6.4-5.656,10.328C-1.614,67.993-3.473,85.522,6.192,97.48c1.234,1.526,2.625,2.918,4.152,4.152
		c3.928,3.92,5.664,5.848,5.664,10.352s-1.736,6.4-5.664,10.352C3.879,127.686,0.096,135.609,0,144z"/>
	<path style="fill:#231F20;" d="M56,144h16c0-4.496,1.736-6.4,5.664-10.352c11.965-9.678,13.818-27.223,4.14-39.188
		c-1.231-1.522-2.619-2.91-4.14-4.14C73.736,86.4,72,84.464,72,80s1.736-6.4,5.656-10.32C84.128,64.329,87.912,56.397,88,48H72
		c0,4.488-1.736,6.4-5.656,10.328c-11.958,9.665-13.817,27.194-4.152,39.152c1.234,1.526,2.625,2.918,4.152,4.152
		c3.928,3.92,5.664,5.848,5.664,10.352s-1.736,6.4-5.664,10.352C59.879,127.686,56.096,135.609,56,144z"/>
</g>
<g>
</g>
<g>
</g>
<g>
</g>
<g>
</g>
<g>
</g>
<g>
</g>
<g>
</g>
<g>
</g>
<g>
</g>
<g>
</g>
<g>
</g>
<g>
</g>
<g>
</g>
<g>
</g>
<g>
</g>
</svg>
