<?xml version="1.0" encoding="iso-8859-1"?>
<!-- Generator: Adobe Illustrator 19.0.0, SVG Export Plug-In . SVG Version: 6.00 Build 0)  -->
<svg version="1.1" id="Capa_1" xmlns="http://www.w3.org/2000/svg" xmlns:xlink="http://www.w3.org/1999/xlink" x="0px" y="0px"
	 viewBox="0 0 480 480" style="enable-background:new 0 0 480 480;" xml:space="preserve">
<path style="fill:#85BC94;" d="M236,8h32v40h-32V8z"/>
<g>
	<path style="fill:#6B9777;" d="M156,184c-26.51,0-48-21.49-48-48v-16h64v64H156z"/>
	<path style="fill:#6B9777;" d="M396,136h32l0,0v112c0,8.837-7.163,16-16,16s-16-7.163-16-16V136L396,136z"/>
</g>
<g>
	<path style="fill:#85BC94;" d="M372,408v40H132v-40l24-288h192L372,408z"/>
	<path style="fill:#85BC94;" d="M324,120h104v32H324V120z"/>
</g>
<g>
	<path style="fill:#6B9777;" d="M372,448H132v-20v-20h240v20V448z"/>
	<path style="fill:#6B9777;" d="M228,168h48v192h-48V168z"/>
</g>
<path style="fill:#B3E4E8;" d="M228,216h48v144h-48V216z"/>
<path style="fill:#6B9777;" d="M244,32h16c48.601,0,88,39.399,88,88l0,0H156l0,0C156,71.399,195.399,32,244,32z"/>
<g>
	<path style="fill:#B3E4E8;" d="M60,96H44c0.094-8.389,3.874-16.313,10.336-21.664C58.264,70.4,60,68.488,60,64
		s-1.736-6.4-5.664-10.352C47.878,48.3,44.099,40.384,44,32h16c0,4.504,1.736,6.4,5.664,10.352
		c11.965,9.685,13.813,27.236,4.128,39.2c-1.228,1.517-2.611,2.9-4.128,4.128C61.736,89.6,60,91.504,60,96z"/>
	<path style="fill:#B3E4E8;" d="M116,96h-16c0.094-8.389,3.874-16.313,10.336-21.664C114.264,70.4,116,68.488,116,64
		s-1.736-6.4-5.664-10.352C103.878,48.3,100.099,40.384,100,32h16c0,4.504,1.736,6.4,5.664,10.352
		c11.965,9.685,13.813,27.236,4.128,39.2c-1.228,1.517-2.611,2.9-4.128,4.128C117.736,89.6,116,91.504,116,96z"/>
</g>
<g>
	<path style="fill:#8DC79D;" d="M324,336h16v16h-16V336z"/>
	<path style="fill:#8DC79D;" d="M324,368h16v16h-16V368z"/>
</g>
<path style="fill:#F7BA61;" d="M228,216h48v48h-48V216z"/>
<path style="fill:#787D82;" d="M380,472H124c-8.837,0-16-7.163-16-16s7.163-16,16-16h256c8.837,0,16,7.163,16,16
	S388.837,472,380,472z"/>
<g>
	<path style="fill:#231F20;" d="M220,208v160h64V160h-64V208z M236,176h32v32h-32V176z M236,224h32v32h-32V224z M236,272h32v32h-32
		V272z M236,320h32v32h-32V320z"/>
	<path style="fill:#231F20;" d="M276,25.448V0h-48v25.448c-43.153,7.345-75.882,42.936-79.592,86.552H100v24
		c0.081,25.522,17.408,47.761,42.136,54.08L124,407.336c0,0.112,0.048,0.216,0,0.328s0,0.216,0,0.336v24c-13.255,0-24,10.745-24,24
		s10.745,24,24,24h256c13.255,0,24-10.745,24-24s-10.745-24-24-24v-24c0-0.12-0.064-0.216-0.064-0.336s0.048-0.216,0.04-0.328
		L359.36,160H388v88c0,13.255,10.745,24,24,24s24-10.745,24-24V112h-80.408C351.882,68.384,319.153,32.793,276,25.448z M244,16h16v8
		h-16V16z M244,40h16c41.065,0.051,75.442,31.146,79.6,72H164.4C168.558,71.146,202.935,40.051,244,40z M116,136v-8h31.304
		l-3.824,45.872C127.122,168.481,116.051,153.224,116,136z M380,448c4.418,0,8,3.582,8,8s-3.582,8-8,8H124c-4.418,0-8-3.582-8-8
		s3.582-8,8-8H380z M364,432H140v-16h224V432z M363.304,400H140.696l22.664-272h177.28L363.304,400z M420,248c0,4.418-3.582,8-8,8
		s-8-3.582-8-8v-88h16V248z M420,128v16h-61.976l-1.328-16H420z"/>
	<path style="fill:#231F20;" d="M60,32H44c0.113,8.367,3.891,16.263,10.336,21.6C58.264,57.552,60,59.488,60,64
		s-1.736,6.4-5.664,10.352C47.878,79.7,44.099,87.616,44,96h16c0-4.496,1.736-6.4,5.664-10.352
		c11.965-9.685,13.813-27.236,4.128-39.2c-1.228-1.517-2.611-2.9-4.128-4.128C61.736,38.4,60,36.472,60,32z"/>
	<path style="fill:#231F20;" d="M100,96h16c0-4.496,1.736-6.4,5.664-10.352c11.965-9.685,13.813-27.236,4.128-39.2
		c-1.228-1.517-2.611-2.9-4.128-4.128C117.736,38.4,116,36.472,116,32h-16c0.113,8.367,3.891,16.263,10.336,21.6
		c3.928,3.92,5.664,5.856,5.664,10.352s-1.736,6.4-5.664,10.352C103.866,79.663,100.085,87.599,100,96z"/>
	<path style="fill:#231F20;" d="M324,336h16v16h-16V336z"/>
	<path style="fill:#231F20;" d="M324,368h16v16h-16V368z"/>
</g>
<g>
</g>
<g>
</g>
<g>
</g>
<g>
</g>
<g>
</g>
<g>
</g>
<g>
</g>
<g>
</g>
<g>
</g>
<g>
</g>
<g>
</g>
<g>
</g>
<g>
</g>
<g>
</g>
<g>
</g>
</svg>
