<?xml version="1.0" encoding="iso-8859-1"?>
<!-- Generator: Adobe Illustrator 19.0.0, SVG Export Plug-In . SVG Version: 6.00 Build 0)  -->
<svg version="1.1" id="Capa_1" xmlns="http://www.w3.org/2000/svg" xmlns:xlink="http://www.w3.org/1999/xlink" x="0px" y="0px"
	 viewBox="0 0 480 480" style="enable-background:new 0 0 480 480;" xml:space="preserve">
<path style="fill:#8ACED8;" d="M304,88v32h72v104h-72v32h104V88H304z"/>
<path style="fill:#B3E4E8;" d="M296,376H152l-32-93.768V86.88C120.312,60.681,141.8,39.693,168,40h112
	c26.199-0.307,47.688,20.681,48,46.88v195.352L296,376z"/>
<path style="fill:#EA9D2D;" d="M216,8h16c8.837,0,16,7.163,16,16v32l0,0h-48l0,0V24C200,15.163,207.163,8,216,8z"/>
<path style="fill:#B3E4E8;" d="M120,144L72,88h48h24v56H120z"/>
<path style="fill:#F3AF3E;" d="M168,40h112c26.51,0,48,21.49,48,48l0,0H120l0,0C120,61.49,141.49,40,168,40z"/>
<g>
	<path style="fill:#8ACED8;" d="M248,128h-48c-4.418,0-8-3.582-8-8s3.582-8,8-8h48c4.418,0,8,3.582,8,8S252.418,128,248,128z"/>
	<path style="fill:#8ACED8;" d="M248,160h-48c-4.418,0-8-3.582-8-8s3.582-8,8-8h48c4.418,0,8,3.582,8,8S252.418,160,248,160z"/>
	<path style="fill:#8ACED8;" d="M248,192h-48c-4.418,0-8-3.582-8-8s3.582-8,8-8h48c4.418,0,8,3.582,8,8S252.418,192,248,192z"/>
	<path style="fill:#8ACED8;" d="M248,224h-48c-4.418,0-8-3.582-8-8s3.582-8,8-8h48c4.418,0,8,3.582,8,8S252.418,224,248,224z"/>
</g>
<path style="fill:#AAC16B;" d="M296,376H152l-32-96v-16h208v16L296,376z"/>
<path style="fill:#89B140;" d="M224,384c-2.122,0-4.156-0.844-5.656-2.344l-32-32l11.312-11.312L224,364.688l26.344-26.344
	l11.312,11.312l-32,32C228.156,383.156,226.121,384,224,384z"/>
<path style="fill:#F3AF3E;" d="M328,472H120v-56l32-40h144l32,40V472z"/>
<g>
	<circle style="fill:#EA9D2D;" cx="224" cy="424" r="16"/>
	<path style="fill:#EA9D2D;" d="M315.2,400L296,376H152l-19.2,24H315.2z"/>
</g>
<g>
	<path style="fill:#6FBBC6;" d="M328,88h24v32h-24V88z"/>
	<path style="fill:#6FBBC6;" d="M328,224h24v32h-24V224z"/>
</g>
<g>
	<path style="fill:#231F20;" d="M112,146.96v135.272c-0.002,0.879,0.144,1.753,0.432,2.584l30.584,89.6l-29.264,36.568
		c-1.138,1.424-1.756,3.193-1.752,5.016v56c0,4.418,3.582,8,8,8h208c4.418,0,8-3.582,8-8v-56c0.001-1.817-0.617-3.581-1.752-5
		l-29.264-36.6l30.584-89.6c0.286-0.826,0.432-1.694,0.432-2.568V264h72c4.418,0,8-3.582,8-8V88c0-4.418-3.582-8-8-8h-72.488
		C331.664,52.342,307.923,31.814,280,32h-24v-8c0-13.255-10.745-24-24-24h-16c-13.255,0-24,10.745-24,24v8h-24
		c-27.923-0.186-51.664,20.342-55.512,48H72c-4.418,0-8,3.582-7.999,8.001c0,1.91,0.684,3.757,1.927,5.207L112,146.96z M336,128h32
		v88h-32V128z M336,232h40c4.418,0,8-3.582,8-8V120c0-4.418-3.582-8-8-8h-40V96h64v152h-64V232z M320,418.808V464H128v-45.192
		L155.84,384h136.32L320,418.808z M208,24c0-4.418,3.582-8,8-8h16c4.418,0,8,3.582,8,8v8h-32V24z M147.816,53.504
		c0.336-0.192,0.68-0.352,1.016-0.536c1.59-0.883,3.24-1.655,4.936-2.312c0.976-0.36,2-0.616,3.016-0.904
		c1.227-0.404,2.474-0.743,3.736-1.016c2.466-0.473,4.969-0.719,7.48-0.736h112c2.511,0.017,5.014,0.263,7.48,0.736
		c1.262,0.273,2.509,0.612,3.736,1.016c1.016,0.288,2.04,0.544,3.016,0.904c1.696,0.657,3.346,1.429,4.936,2.312
		c0.336,0.184,0.68,0.344,1.016,0.536c9.808,5.737,16.72,15.368,19.016,26.496H128.8C131.096,68.872,138.008,59.241,147.816,53.504
		L147.816,53.504z M128,144V96h192v160H128L128,144z M128,272h192v6.704L290.232,368h-46.92l18.344-18.344l-11.312-11.312
		L224,364.688l-26.344-26.344l-11.312,11.312L204.688,368h-46.92L128,278.704L128,272z M112,96v26.4L89.392,96L112,96z"/>
	<path style="fill:#231F20;" d="M224,400c-13.255,0-24,10.745-24,24s10.745,24,24,24c13.255,0,24-10.745,24-24l0,0
		C248,410.745,237.255,400,224,400z M224,432c-4.418,0-8-3.582-8-8s3.582-8,8-8s8,3.582,8,8S228.418,432,224,432z"/>
	<path style="fill:#231F20;" d="M248,112h-48c-4.418,0-8,3.582-8,8s3.582,8,8,8h48c4.418,0,8-3.582,8-8S252.418,112,248,112z"/>
	<path style="fill:#231F20;" d="M248,144h-48c-4.418,0-8,3.582-8,8s3.582,8,8,8h48c4.418,0,8-3.582,8-8S252.418,144,248,144z"/>
	<path style="fill:#231F20;" d="M248,176h-48c-4.418,0-8,3.582-8,8s3.582,8,8,8h48c4.418,0,8-3.582,8-8S252.418,176,248,176z"/>
	<path style="fill:#231F20;" d="M248,208h-48c-4.418,0-8,3.582-8,8s3.582,8,8,8h48c4.418,0,8-3.582,8-8S252.418,208,248,208z"/>
</g>
<g>
</g>
<g>
</g>
<g>
</g>
<g>
</g>
<g>
</g>
<g>
</g>
<g>
</g>
<g>
</g>
<g>
</g>
<g>
</g>
<g>
</g>
<g>
</g>
<g>
</g>
<g>
</g>
<g>
</g>
</svg>
