<?xml version="1.0" encoding="iso-8859-1"?>
<!-- Generator: Adobe Illustrator 19.0.0, SVG Export Plug-In . SVG Version: 6.00 Build 0)  -->
<svg version="1.1" id="Capa_1" xmlns="http://www.w3.org/2000/svg" xmlns:xlink="http://www.w3.org/1999/xlink" x="0px" y="0px"
	 viewBox="0 0 488 488" style="enable-background:new 0 0 488 488;" xml:space="preserve">
<path style="fill:#B3E4E8;" d="M56,284H40v-56h24v16h-8V284z"/>
<path style="fill:#8ACED8;" d="M40,260h16v24H40V260z"/>
<path style="fill:#EBEBEB;" d="M16,228h16v56H16V228z"/>
<path style="fill:#DBDBDB;" d="M16,260h16v24H16V260z"/>
<path style="fill:#F7BA61;" d="M16,276h40v70H16V276z"/>
<path style="fill:#F3AF3E;" d="M16,316h40v16H16V316z"/>
<path style="fill:#A8A8A8;" d="M120,236h32v108h-32V236z"/>
<path style="fill:#787D82;" d="M120,276h32v24.504h-32V276z"/>
<path style="fill:#6FBBC6;" d="M88,260h64v24H88V260z"/>
<path style="fill:#8F563B;" d="M8,380h188v96H8V380z"/>
<path style="fill:#D9D9D9;" d="M8,332h188v52.664H8V332z"/>
<path style="fill:#CDCDCD;" d="M8,332h188v24H8V332z"/>
<g>
	<path style="fill:#744630;" d="M8,380h188v16H8V380z"/>
	<path style="fill:#744630;" d="M112,420H80c-4.418,0-8-3.582-8-8s3.582-8,8-8h32c4.418,0,8,3.582,8,8S116.418,420,112,420z"/>
</g>
<path style="fill:#B3E4E8;" d="M184,44h120v432H184V44z"/>
<path style="fill:#8F563B;" d="M32,36h120v152H32V36z"/>
<path style="fill:#8ACED8;" d="M64,68h56v88H64V68z"/>
<path style="fill:#B3E4E8;" d="M64,84h40v72H64V84z"/>
<path style="fill:#8ACED8;" d="M304,44h176v432H304V44z"/>
<path style="fill:#787D82;" d="M184,428h296v48H184V428z"/>
<g>
	<path style="fill:#A8A8A8;" d="M184,428h296v24H184V428z"/>
	<path style="fill:#A8A8A8;" d="M200,12h264c8.837,0,16,7.163,16,16v32l0,0H184l0,0V28C184,19.163,191.163,12,200,12z"/>
</g>
<path style="fill:#6FBBC6;" d="M440,212h40v120h-40V212z"/>
<path style="fill:#69B0BB;" d="M440,308h40v24h-40V308z"/>
<path style="fill:#B9B9B9;" d="M400,100c-2.518,0-4.889,1.186-6.4,3.2l-24,32c-2.654,3.532-1.942,8.547,1.59,11.201
	c3.532,2.654,8.547,1.942,11.201-1.59c0.003-0.004,0.006-0.007,0.008-0.011L404,116h76v-16H400z"/>
<path style="fill:#EBEBEB;" d="M336,135.2h80V172h-80V135.2z"/>
<path style="fill:#DBDBDB;" d="M336,135.2h80v18.4h-80V135.2z"/>
<path style="fill:#8ACED8;" d="M184,212h80v120h-80V212z"/>
<path style="fill:#6FBBC6;" d="M184,276h80v56h-80V276z"/>
<g>
	<path style="fill:#B3E4E8;" d="M336,212h16v16h-16V212z"/>
	<path style="fill:#B3E4E8;" d="M368,212h16v16h-16V212z"/>
	<path style="fill:#B3E4E8;" d="M400,212h16v16h-16V212z"/>
	<path style="fill:#B3E4E8;" d="M336,276h16v16h-16V276z"/>
	<path style="fill:#B3E4E8;" d="M368,276h16v16h-16V276z"/>
	<path style="fill:#B3E4E8;" d="M400,276h16v16h-16V276z"/>
	<path style="fill:#B3E4E8;" d="M352,244h16v16h-16V244z"/>
	<path style="fill:#B3E4E8;" d="M384,244h16v16h-16V244z"/>
</g>
<g>
	<path style="fill:#231F20;" d="M160,28H24v168h136V28z M144,180H40V44h104V180z"/>
	<path style="fill:#231F20;" d="M128,60H56v104h72V60z M112,148H72V76h40V148z"/>
	<path style="fill:#231F20;" d="M80,420h32c4.418,0,8-3.582,8-8s-3.582-8-8-8H80c-4.418,0-8,3.582-8,8S75.582,420,80,420z"/>
	<path style="fill:#231F20;" d="M464,4H200c-13.255,0-24,10.745-24,24v296h-16v-96h-48v24H80v40h32v32H64v-56h-8v-24h8v-16H40v40h-8
		v-40H16v40H8v56H0v160h488V28C488,14.745,477.255,4,464,4z M128,244h16v8h-16V244z M96,276v-8h48v8H96z M144,293.336V324h-16
		v-30.664H144z M24,284h24v40H24V284z M176,428v40H16v-80h160V428z M176,372H16v-32h160V372z M192,220h64v48h-64V220z M192,284h64
		v40h-64V284z M192,388v-48h72c4.418,0,8-3.582,8-8V212c0-4.418-3.582-8-8-8h-72V68h104v352H192V388z M472,468H192v-32h280V468z
		 M472,324h-24V220h24V324z M472,100h-72c-2.518,0-4.889,1.186-6.4,3.2L372,132h-36c-4.418,0-8,3.582-8,8v32c0,4.418,3.582,8,8,8h80
		c4.418,0,8-3.582,8-8v-32c0-4.418-3.582-8-8-8h-24l12-16h68v88h-32c-4.418,0-8,3.582-8,8v120c0,4.418,3.582,8,8,8h32v80H312V68h160
		V100z M408,148v16h-64v-16H408z M472,52H192V28c0-4.418,3.582-8,8-8h264c4.418,0,8,3.582,8,8V52z"/>
	<path style="fill:#231F20;" d="M336,212h16v16h-16V212z"/>
	<path style="fill:#231F20;" d="M368,212h16v16h-16V212z"/>
	<path style="fill:#231F20;" d="M400,212h16v16h-16V212z"/>
	<path style="fill:#231F20;" d="M336,276h16v16h-16V276z"/>
	<path style="fill:#231F20;" d="M368,276h16v16h-16V276z"/>
	<path style="fill:#231F20;" d="M400,276h16v16h-16V276z"/>
	<path style="fill:#231F20;" d="M352,244h16v16h-16V244z"/>
	<path style="fill:#231F20;" d="M384,244h16v16h-16V244z"/>
</g>
<g>
</g>
<g>
</g>
<g>
</g>
<g>
</g>
<g>
</g>
<g>
</g>
<g>
</g>
<g>
</g>
<g>
</g>
<g>
</g>
<g>
</g>
<g>
</g>
<g>
</g>
<g>
</g>
<g>
</g>
</svg>
