<?xml version="1.0" encoding="iso-8859-1"?>
<!-- Generator: Adobe Illustrator 19.0.0, SVG Export Plug-In . SVG Version: 6.00 Build 0)  -->
<svg version="1.1" id="Capa_1" xmlns="http://www.w3.org/2000/svg" xmlns:xlink="http://www.w3.org/1999/xlink" x="0px" y="0px"
	 viewBox="0 0 480 480" style="enable-background:new 0 0 480 480;" xml:space="preserve">
<g>
	<path style="fill:#A8A8A8;" d="M88,404h32l0,0v48c0,4.418-3.582,8-8,8H96c-4.418,0-8-3.582-8-8V404L88,404z"/>
	<path style="fill:#A8A8A8;" d="M368,404h32l0,0v48c0,4.418-3.582,8-8,8h-16c-4.418,0-8-3.582-8-8V404L368,404z"/>
</g>
<g>
	<path style="fill:#3B869E;" d="M344,140h32v32h-32V140z"/>
	<path style="fill:#3B869E;" d="M408,108h32v120h-32V108z"/>
</g>
<path style="fill:#1F6C8C;" d="M408,204h32v24h-32V204z"/>
<path style="fill:#6FBBC6;" d="M360,116h80l0,0v32l0,0h-96l0,0v-16C344,123.163,351.163,116,360,116z"/>
<path style="fill:#3B869E;" d="M424,84c8.837,0,16,7.163,16,16v16l0,0h-32l0,0v-16C408,91.163,415.163,84,424,84z"/>
<path style="fill:#EBEBEB;" d="M40,268h400l0,0v96c0,35.346-28.654,64-64,64H104c-35.346,0-64-28.654-64-64V268L40,268z"/>
<g>
	<path style="fill:#EAC25E;" d="M248,332h16v24h-16V332z"/>
	<path style="fill:#EAC25E;" d="M216,332h16v24h-16V332z"/>
	<path style="fill:#EAC25E;" d="M280,332h16v24h-16V332z"/>
	<path style="fill:#EAC25E;" d="M312,332h16v24h-16V332z"/>
</g>
<path style="fill:#DBDBDB;" d="M24,220h432c8.837,0,16,7.163,16,16v16c0,8.837-7.163,16-16,16H24c-8.837,0-16-7.163-16-16v-16
	C8,227.163,15.163,220,24,220z"/>
<path style="fill:#3B869E;" d="M48,220H32V36c0-13.255,10.745-24,24-24h40c13.255,0,24,10.745,24,24v24h-16V36c0-4.418-3.582-8-8-8
	H56c-4.418,0-8,3.582-8,8V220z"/>
<path style="fill:#69B0BB;" d="M88,60h48c8.837,0,16,7.163,16,16l0,0c0,8.837-7.163,16-16,16H88c-8.837,0-16-7.163-16-16l0,0
	C72,67.163,79.163,60,88,60z"/>
<path style="fill:#EA6B65;" d="M328,340H216V188h112V340z"/>
<g>
	<path style="fill:#B3E4E8;" d="M72,116h16v16H72V116z"/>
	<path style="fill:#B3E4E8;" d="M104,116h16v16h-16V116z"/>
	<path style="fill:#B3E4E8;" d="M136,116h16v16h-16V116z"/>
	<path style="fill:#B3E4E8;" d="M72,180h16v16H72V180z"/>
	<path style="fill:#B3E4E8;" d="M104,180h16v16h-16V180z"/>
	<path style="fill:#B3E4E8;" d="M136,180h16v16h-16V180z"/>
	<path style="fill:#B3E4E8;" d="M88,148h16v16H88V148z"/>
	<path style="fill:#B3E4E8;" d="M120,148h16v16h-16V148z"/>
</g>
<g>
	<path style="fill:#231F20;" d="M456,212h-8V100c0-13.255-10.745-24-24-24s-24,10.745-24,24v8h-40c-13.255,0-24,10.745-24,24v48h48
		v-24h16v56h-72v-24H216v24H48V36c0-4.418,3.582-8,8-8h40c4.418,0,8,3.582,8,8v16H88c-13.255,0-24,10.745-24,24s10.745,24,24,24h48
		c13.255,0,24-10.745,24-24s-10.745-24-24-24h-16V36c0-13.255-10.745-24-24-24H56c-13.255,0-24,10.745-24,24v176h-8
		c-13.255,0-24,10.745-24,24v16c0,13.255,10.745,24,24,24h8v88c0.049,30.478,19.27,57.627,48,67.8V452c0,8.837,7.163,16,16,16h16
		c8.837,0,16-7.163,16-16v-16h232v16c0,8.837,7.163,16,16,16h16c8.837,0,16-7.163,16-16v-23.6c24.47-12.141,39.963-37.083,40-64.4
		v-88h8c13.255,0,24-10.745,24-24v-16C480,222.745,469.255,212,456,212z M136,68c4.418,0,8,3.582,8,8s-3.582,8-8,8H88
		c-4.418,0-8-3.582-8-8s3.582-8,8-8H136z M416,100c0-4.418,3.582-8,8-8s8,3.582,8,8v8h-16V100z M368,164h-16v-8h16V164z M384,140
		h-32v-8c0-4.418,3.582-8,8-8h72v16H384z M432,156v56h-16v-56H432z M232,204h80v120h-80V204z M24,260c-4.418,0-8-3.582-8-8v-16
		c0-4.418,3.582-8,8-8h192v32H24z M96,452v-16h16v16H96z M376,452v-16h16v16H376z M432,364c-0.04,30.911-25.089,55.96-56,56H104
		c-30.911-0.04-55.96-25.089-56-56v-88h168v80h16v-16h16v16h16v-16h16v16h16v-16h16v16h16v-80h104V364z M464,252
		c0,4.418-3.582,8-8,8H328v-32h128c4.418,0,8,3.582,8,8V252z"/>
	<path style="fill:#231F20;" d="M72,116h16v16H72V116z"/>
	<path style="fill:#231F20;" d="M104,116h16v16h-16V116z"/>
	<path style="fill:#231F20;" d="M136,116h16v16h-16V116z"/>
	<path style="fill:#231F20;" d="M72,180h16v16H72V180z"/>
	<path style="fill:#231F20;" d="M104,180h16v16h-16V180z"/>
	<path style="fill:#231F20;" d="M136,180h16v16h-16V180z"/>
	<path style="fill:#231F20;" d="M88,148h16v16H88V148z"/>
	<path style="fill:#231F20;" d="M120,148h16v16h-16V148z"/>
</g>
<g>
</g>
<g>
</g>
<g>
</g>
<g>
</g>
<g>
</g>
<g>
</g>
<g>
</g>
<g>
</g>
<g>
</g>
<g>
</g>
<g>
</g>
<g>
</g>
<g>
</g>
<g>
</g>
<g>
</g>
</svg>
