<?xml version="1.0" encoding="iso-8859-1"?>
<!-- Generator: Adobe Illustrator 19.0.0, SVG Export Plug-In . SVG Version: 6.00 Build 0)  -->
<svg version="1.1" id="Capa_1" xmlns="http://www.w3.org/2000/svg" xmlns:xlink="http://www.w3.org/1999/xlink" x="0px" y="0px"
	 viewBox="0 0 448 448" style="enable-background:new 0 0 448 448;" xml:space="preserve">
<path style="fill:#69B0BB;" d="M79.992,360h16v88h-16V360z"/>
<path style="fill:#B9B9B9;" d="M71.992,324.504h32v43.504h-32V324.504z"/>
<path style="fill:#EBEBEB;" d="M55.992,8h160c17.673,0,32,14.327,32,32v264c0,17.673-14.327,32-32,32h-160
	c-17.673,0-32-14.327-32-32V40C23.992,22.327,38.319,8,55.992,8z"/>
<path style="fill:#8ACED8;" d="M63.992,8h144v328h-144V8z"/>
<path style="fill:#B9B9B9;" d="M335.992,272h48v48h-48V272z"/>
<path style="fill:#69B0BB;" d="M327.992,448h-112c-22.08-0.026-39.974-17.92-40-40v-48h16v48c0,13.255,10.745,24,24,24l0,0h112
	c13.255,0,24-10.745,24-24l0,0v-88h16v88C367.966,430.08,350.072,447.974,327.992,448z"/>
<path style="fill:#B9B9B9;" d="M167.992,336h32v32h-32V336z"/>
<circle style="fill:#F3AF3E;" cx="135.992" cy="168" r="40"/>
<path style="fill:#EA9D2D;" d="M130.336,162.344l11.312,11.312l27.688-27.688c-2.968-4.496-6.816-8.344-11.312-11.312
	L130.336,162.344z"/>
<g>
	<path style="fill:#69B0BB;" d="M87.992,248h96v16h-96V248z"/>
	<path style="fill:#69B0BB;" d="M87.992,280h96v16h-96V280z"/>
	<path style="fill:#69B0BB;" d="M87.992,48h96v16h-96V48z"/>
</g>
<g>
	<path style="fill:#F3AF3E;" d="M79.992,88h16v16h-16V88z"/>
	<path style="fill:#F3AF3E;" d="M111.992,88h16v16h-16V88z"/>
	<path style="fill:#F3AF3E;" d="M143.992,88h16v16h-16V88z"/>
</g>
<path style="fill:#69B0BB;" d="M175.992,88h16v16h-16V88z"/>
<path style="fill:#EBEBEB;" d="M335.992,168h48v120h-48V168z"/>
<path style="fill:#DBDBDB;" d="M335.992,168h48v40h-48V168z"/>
<circle style="fill:#EBEBEB;" cx="359.992" cy="120" r="64"/>
<g>
	<path style="fill:#B9B9B9;" d="M327.992,96h16v16h-16V96z"/>
	<path style="fill:#B9B9B9;" d="M351.992,80h16v16h-16V80z"/>
	<path style="fill:#B9B9B9;" d="M375.992,96h16v16h-16V96z"/>
	<path style="fill:#B9B9B9;" d="M351.992,112h16v16h-16V112z"/>
	<path style="fill:#B9B9B9;" d="M327.992,128h16v16h-16V128z"/>
	<path style="fill:#B9B9B9;" d="M351.992,144h16v16h-16V144z"/>
	<path style="fill:#B9B9B9;" d="M375.992,128h16v16h-16V128z"/>
</g>
<g>
	<path style="fill:#231F20;" d="M15.992,304c0.026,22.08,17.92,39.974,40,40h8v32h16v72h16v-72h16v-32h48v32h16v32
		c0.026,22.08,17.92,39.974,40,40h112c22.08-0.026,39.974-17.92,40-40v-80h24V184.4c35.621-17.673,50.171-60.877,32.498-96.498
		c-17.673-35.621-60.877-50.171-96.498-32.498s-50.171,60.877-32.498,96.498c6.992,14.092,18.406,25.506,32.498,32.498V328h24v80
		c0,13.255-10.745,24-24,24l0,0h-112c-13.255,0-24-10.745-24-24l0,0v-32h16v-32h8c22.08-0.026,39.974-17.92,40-40V40
		c-0.026-22.08-17.92-39.974-40-40h-160c-22.08,0.026-39.974,17.92-40,40V304z M375.992,280h-32v-89.856
		c10.523,2.475,21.477,2.475,32,0V280z M303.992,120c0-30.928,25.072-56,56-56s56,25.072,56,56s-25.072,56-56,56
		C329.081,175.96,304.032,150.911,303.992,120z M343.992,312v-16h32v16H343.992z M215.992,16c13.255,0,24,10.745,24,24v264
		c0,13.255-10.745,24-24,24V16z M95.992,360h-16v-16h16V360z M191.992,360h-16v-16h16V360z M71.992,16h128v312h-128V16z M31.992,40
		c0-13.255,10.745-24,24-24v312c-13.255,0-24-10.745-24-24V40z"/>
	<path style="fill:#231F20;" d="M327.992,96h16v16h-16V96z"/>
	<path style="fill:#231F20;" d="M351.992,80h16v16h-16V80z"/>
	<path style="fill:#231F20;" d="M375.992,96h16v16h-16V96z"/>
	<path style="fill:#231F20;" d="M351.992,112h16v16h-16V112z"/>
	<path style="fill:#231F20;" d="M327.992,128h16v16h-16V128z"/>
	<path style="fill:#231F20;" d="M351.992,144h16v16h-16V144z"/>
	<path style="fill:#231F20;" d="M375.992,128h16v16h-16V128z"/>
	<path style="fill:#231F20;" d="M135.992,120c-26.51,0-48,21.49-48,48s21.49,48,48,48s48-21.49,48-48
		C183.966,141.501,162.491,120.026,135.992,120z M135.992,200c-17.673,0-32-14.327-32-32s14.327-32,32-32
		c5.695,0.028,11.276,1.595,16.152,4.536l-21.808,21.808l11.312,11.312l21.808-21.808c2.941,4.876,4.508,10.457,4.536,16.152
		C167.992,185.673,153.665,200,135.992,200z"/>
	<path style="fill:#231F20;" d="M87.992,248h96v16h-96V248z"/>
	<path style="fill:#231F20;" d="M87.992,280h96v16h-96V280z"/>
	<path style="fill:#231F20;" d="M87.992,48h96v16h-96V48z"/>
	<path style="fill:#231F20;" d="M79.992,88h16v16h-16V88z"/>
	<path style="fill:#231F20;" d="M111.992,88h16v16h-16V88z"/>
	<path style="fill:#231F20;" d="M143.992,88h16v16h-16V88z"/>
	<path style="fill:#231F20;" d="M175.992,88h16v16h-16V88z"/>
</g>
<g>
</g>
<g>
</g>
<g>
</g>
<g>
</g>
<g>
</g>
<g>
</g>
<g>
</g>
<g>
</g>
<g>
</g>
<g>
</g>
<g>
</g>
<g>
</g>
<g>
</g>
<g>
</g>
<g>
</g>
</svg>
