<?xml version="1.0" encoding="iso-8859-1"?>
<!-- Generator: Adobe Illustrator 19.0.0, SVG Export Plug-In . SVG Version: 6.00 Build 0)  -->
<svg version="1.1" id="Capa_1" xmlns="http://www.w3.org/2000/svg" xmlns:xlink="http://www.w3.org/1999/xlink" x="0px" y="0px"
	 viewBox="0 0 480 480" style="enable-background:new 0 0 480 480;" xml:space="preserve">
<path style="fill:#DBDBDB;" d="M80,8h320c17.673,0,32,14.327,32,32v432l0,0H48l0,0V40C48,22.327,62.327,8,80,8z"/>
<path style="fill:#B9B9B9;" d="M80,8h320c17.673,0,32,14.327,32,32v64l0,0H48l0,0V40C48,22.327,62.327,8,80,8z"/>
<path style="fill:#DBDBDB;" d="M176,8h224c17.673,0,32,14.327,32,32v64l0,0H176l0,0V8L176,8z"/>
<path style="fill:#3B869E;" d="M112,32L112,32c13.255,0,24,10.745,24,24l0,0c0,13.255-10.745,24-24,24l0,0
	c-13.255,0-24-10.745-24-24l0,0C88,42.745,98.745,32,112,32z"/>
<path style="fill:#EBEBEB;" d="M48,104h384v368H48V104z"/>
<circle style="fill:#3B869E;" cx="240" cy="272" r="128"/>
<circle style="fill:#8ACED8;" cx="240" cy="272" r="88"/>
<g>
	<path style="fill:#6FBBC6;" d="M302.4,264c-20.8,0-20.8,16-41.6,16s-20.8-16-41.6-16s-20.8,16-41.56,16
		c-13.384,0-18.168-6.616-25.416-11.344c-0.04,1.12-0.168,2.216-0.168,3.344c-0.123,48.57,39.151,88.043,87.721,88.166
		c47.438,0.12,86.423-37.406,88.111-84.814C320.568,270.632,315.784,264,302.4,264z"/>
	<path style="fill:#6FBBC6;" d="M392,72h-32V40h31.752L392,72z"/>
	<path style="fill:#6FBBC6;" d="M320,72h-32V40h31.752L320,72z"/>
	<path style="fill:#6FBBC6;" d="M248,72h-32V40h31.752L248,72z"/>
</g>
<path style="fill:#B9B9B9;" d="M48,440h384v32H48V440z"/>
<g>
	<path style="fill:#231F20;" d="M112,24c-17.673,0-32,14.327-32,32s14.327,32,32,32s32-14.327,32-32S129.673,24,112,24z M112,72
		c-8.837,0-16-7.163-16-16s7.163-16,16-16s16,7.163,16,16S120.837,72,112,72z"/>
	<path style="fill:#231F20;" d="M104,272c0,75.111,60.889,136,136,136s136-60.889,136-136s-60.889-136-136-136
		C164.924,136.084,104.084,196.924,104,272z M240,152c66.274,0,120,53.726,120,120s-53.726,120-120,120s-120-53.726-120-120
		C120.075,205.757,173.757,152.075,240,152z"/>
	<path style="fill:#231F20;" d="M240,368c53.019,0,96-42.981,96-96s-42.981-96-96-96s-96,42.981-96,96
		C144.057,324.996,187.004,367.943,240,368z M240,352c-39.377-0.076-72.854-28.77-78.952-67.672
		c5.146,2.524,10.821,3.783,16.552,3.672c9.46,0.092,18.614-3.355,25.664-9.664c8.927-8.446,22.897-8.446,31.824,0
		c14.698,12.886,36.67,12.886,51.368,0c8.943-8.452,22.929-8.452,31.872,0c0.424,0.328,0.888,0.632,1.32,0.952
		C315.841,320.448,281.335,351.949,240,352L240,352z M240,192c39.384,0.07,72.867,28.776,78.952,67.688
		c-5.146-2.528-10.82-3.792-16.552-3.688c-9.466-0.091-18.626,3.352-25.688,9.656c-8.942,8.447-22.922,8.447-31.864,0
		c-14.686-12.885-36.65-12.885-51.336,0c-8.922,8.449-22.894,8.449-31.816,0c-0.424-0.328-0.88-0.624-1.304-0.944
		C164.197,223.568,198.68,192.072,240,192z"/>
	<path style="fill:#231F20;" d="M440,432V40c-0.026-22.08-17.92-39.974-40-40H80C57.92,0.026,40.026,17.92,40,40v440h400V432z
		 M56,40c0-13.255,10.745-24,24-24h88v80H56V40z M424,464H56v-16h368V464z M424,432H56V112h368V432z M424,96H184V16h216
		c13.255,0,24,10.745,24,24V96z"/>
	<path style="fill:#231F20;" d="M352,32v48h48.064l-0.376-48H352z M368,64V48h15.816l0.12,16H368z"/>
	<path style="fill:#231F20;" d="M280,32v48h48.064l-0.376-48H280z M296,64V48h15.816l0.12,16H296z"/>
	<path style="fill:#231F20;" d="M208,32v48h48.064l-0.376-48H208z M224,64V48h15.816l0.12,16H224z"/>
</g>
<g>
</g>
<g>
</g>
<g>
</g>
<g>
</g>
<g>
</g>
<g>
</g>
<g>
</g>
<g>
</g>
<g>
</g>
<g>
</g>
<g>
</g>
<g>
</g>
<g>
</g>
<g>
</g>
<g>
</g>
</svg>
