<?xml version="1.0" encoding="iso-8859-1"?>
<!-- Generator: Adobe Illustrator 19.0.0, SVG Export Plug-In . SVG Version: 6.00 Build 0)  -->
<svg version="1.1" id="Capa_1" xmlns="http://www.w3.org/2000/svg" xmlns:xlink="http://www.w3.org/1999/xlink" x="0px" y="0px"
	 viewBox="0 0 488.158 488.158" style="enable-background:new 0 0 488.158 488.158;" xml:space="preserve">
<path style="fill:#B9B9B9;" d="M368.158,12.065h-248c-13.255,0-24,10.745-24,24v128h32v-120h232v208h32v-216
	C392.158,22.81,381.413,12.065,368.158,12.065z"/>
<g>
	<path style="fill:#A8A8A8;" d="M96.158,124.065h32v32h-32V124.065z"/>
	<path style="fill:#A8A8A8;" d="M360.158,212.065h32v32h-32V212.065z"/>
</g>
<path style="fill:#DC4D41;" d="M400.158,380.065v-144h-48v144l32,48h48L400.158,380.065z"/>
<g>
	<path style="fill:#62666A;" d="M320.158,484.065c-4.418,0-8-3.582-8-8v-16c0-4.418,3.582-8,8-8s8,3.582,8,8v16
		C328.158,480.483,324.577,484.065,320.158,484.065z"/>
	<path style="fill:#62666A;" d="M352.158,484.065c-4.418,0-8-3.582-8-8v-16c0-4.418,3.582-8,8-8s8,3.582,8,8v16
		C360.158,480.483,356.577,484.065,352.158,484.065z"/>
	<path style="fill:#62666A;" d="M384.158,484.065c-4.418,0-8-3.582-8-8v-16c0-4.418,3.582-8,8-8s8,3.582,8,8v16
		C392.158,480.483,388.577,484.065,384.158,484.065z"/>
	<path style="fill:#62666A;" d="M416.158,484.065c-4.418,0-8-3.582-8-8v-16c0-4.418,3.582-8,8-8s8,3.582,8,8v16
		C424.158,480.483,420.577,484.065,416.158,484.065z"/>
	<path style="fill:#62666A;" d="M448.158,484.065c-4.418,0-8-3.582-8-8v-16c0-4.418,3.582-8,8-8s8,3.582,8,8v16
		C456.158,480.483,452.577,484.065,448.158,484.065z"/>
	<path style="fill:#62666A;" d="M480.158,484.065c-4.418,0-8-3.582-8-8v-16c0-4.418,3.582-8,8-8s8,3.582,8,8v16
		C488.158,480.483,484.577,484.065,480.158,484.065z"/>
</g>
<path style="fill:#C7463B;" d="M384.158,428.065l-32-48h48l32,48l8,8h-48L384.158,428.065z"/>
<path style="fill:#DC4D41;" d="M480.158,468.065h-160c-4.418,0-8-3.582-8-8v-32c0-4.418,3.582-8,8-8h160c4.418,0,8,3.582,8,8v32
	C488.158,464.483,484.577,468.065,480.158,468.065z"/>
<path style="fill:#C7463B;" d="M144.158,220.065h-64v-72h32h32V220.065z"/>
<path style="fill:#B94137;" d="M144.158,196.065h-64v-16h32h32V196.065z"/>
<path style="fill:#DC4D41;" d="M80.158,196.065h112c44.183,0,80,35.817,80,80v136c0,17.673-14.327,32-32,32h-160l0,0V196.065
	L80.158,196.065z"/>
<g>
	<path style="fill:#C7463B;" d="M80.158,300.065h192l0,0v112c0,17.673-14.327,32-32,32h-160l0,0V300.065L80.158,300.065z"/>
	<path style="fill:#C7463B;" d="M104.158,260.065h16v16h-16V260.065z"/>
	<path style="fill:#C7463B;" d="M136.158,260.065h16v16h-16V260.065z"/>
	<path style="fill:#C7463B;" d="M248.158,300.065h56v32h-56V300.065z"/>
</g>
<path style="fill:#B94137;" d="M80.158,300.065h224v16h-224V300.065z"/>
<circle style="fill:#B9B9B9;" cx="80.158" cy="404.065" r="72"/>
<circle style="fill:#62666A;" cx="80.158" cy="404.065" r="40"/>
<g>
	<path style="fill:#231F20;" d="M80.158,356.065c-26.51,0-48,21.49-48,48s21.49,48,48,48s48-21.49,48-48
		C128.132,377.567,106.657,356.092,80.158,356.065z M80.158,436.065c-17.673,0-32-14.327-32-32s14.327-32,32-32s32,14.327,32,32
		S97.832,436.065,80.158,436.065z"/>
	<path style="fill:#231F20;" d="M480.158,420.065h-43.72l-28.28-42.4v-141.6c0-4.418-3.582-8-8-8v-192c0-17.673-14.327-32-32-32
		h-248c-17.673,0-32,14.327-32,32v104h-8c-4.418,0-8,3.582-8,8v176.408c-43.97,4.334-76.101,43.492-71.767,87.462
		s43.492,76.101,87.462,71.767c22.331-2.201,42.712-13.68,56.169-31.636h0.136h96c22.08-0.026,39.974-17.92,40-40v-72h24
		c4.418,0,8-3.582,8-8v-32c0-4.418-3.582-8-8-8h-24v-16c-0.057-48.577-39.423-87.943-88-88h-40v-40c0-4.418-3.582-8-8-8h-8v-88h216
		v176c-4.418,0-8,3.582-8,8v144v0.152c0.021,0.926,0.205,1.842,0.544,2.704c0.088,0.232,0.208,0.424,0.312,0.648
		c0.129,0.323,0.282,0.635,0.456,0.936l23.744,35.56h-49.056c-4.418,0-8,3.582-8,8v48c0,4.418,3.582,8,8,8s8-3.582,8-8v-8h16v8
		c0,4.418,3.582,8,8,8s8-3.582,8-8v-8h16v8c0,4.418,3.582,8,8,8s8-3.582,8-8v-8h16v8c0,4.418,3.582,8,8,8s8-3.582,8-8v-8h16v8
		c0,4.418,3.582,8,8,8s8-3.582,8-8v-8h16v8c0,4.418,3.582,8,8,8s8-3.582,8-8v-48C488.158,423.647,484.577,420.065,480.158,420.065
		L480.158,420.065z M280.158,308.065h16v16h-16V308.065z M88.158,156.065h48v32h-48V156.065z M80.158,468.065
		c-35.346,0-64-28.654-64-64s28.654-64,64-64s64,28.654,64,64C144.119,439.395,115.488,468.026,80.158,468.065z M264.158,332.065v80
		c0,13.255-10.745,24-24,24H153.43c17.721-40.41-0.672-87.535-41.082-105.257c-7.681-3.368-15.844-5.506-24.19-6.335v-16.408h176
		V332.065z M144.158,204.065h48c39.746,0.044,71.956,32.254,72,72v16h-176v-88H144.158z M128.158,36.065c-4.418,0-8,3.582-8,8v96
		h-16v-104c0-8.837,7.163-16,16-16h248c8.837,0,16,7.163,16,16v192h-16v-184c0-4.418-3.582-8-8-8H128.158z M360.158,244.065h32v128
		h-32V244.065z M367.102,388.065h28.8l21.336,32h-28.8L367.102,388.065z M472.158,452.065h-144v-16h144V452.065z"/>
	<path style="fill:#231F20;" d="M104.158,260.065h16v16h-16V260.065z"/>
	<path style="fill:#231F20;" d="M136.158,260.065h16v16h-16V260.065z"/>
</g>
<g>
</g>
<g>
</g>
<g>
</g>
<g>
</g>
<g>
</g>
<g>
</g>
<g>
</g>
<g>
</g>
<g>
</g>
<g>
</g>
<g>
</g>
<g>
</g>
<g>
</g>
<g>
</g>
<g>
</g>
</svg>
