<?xml version="1.0" encoding="iso-8859-1"?>
<!-- Generator: Adobe Illustrator 19.0.0, SVG Export Plug-In . SVG Version: 6.00 Build 0)  -->
<svg version="1.1" id="Capa_1" xmlns="http://www.w3.org/2000/svg" xmlns:xlink="http://www.w3.org/1999/xlink" x="0px" y="0px"
	 viewBox="0 0 480 480" style="enable-background:new 0 0 480 480;" xml:space="preserve">
<path style="fill:#EA9D2D;" d="M384,8H160c-22.091,0-40,17.909-40,40v8c0,22.091,17.909,40,40,40v104h224V96
	c22.091,0,40-17.909,40-40v-8C424,25.909,406.091,8,384,8z"/>
<path style="fill:#DA922A;" d="M360,88h24v16h-24V88z"/>
<path style="fill:#F3AF3E;" d="M296,48H72c-22.091,0-40,17.909-40,40v8c0,22.091,17.909,40,40,40v64h224v-64
	c22.091,0,40-17.909,40-40v-8C336,65.909,318.091,48,296,48z"/>
<g>
	<path style="fill:#EA9D2D;" d="M272,128h24v16h-24V128z"/>
	<path style="fill:#EA9D2D;" d="M97.221,187.765l39.984-64.01l13.57,8.477l-39.984,64.01L97.221,187.765z"/>
	<path style="fill:#EA9D2D;" d="M145.227,187.767l39.984-64.01l13.57,8.477l-39.984,64.01L145.227,187.767z"/>
	<path style="fill:#EA9D2D;" d="M193.225,187.761l39.984-64.01l13.57,8.477l-39.984,64.01L193.225,187.761z"/>
</g>
<g>
	<path style="fill:#62666A;" d="M32,424h32v48H32V424z"/>
	<path style="fill:#62666A;" d="M376,432h32v40h-32V432z"/>
</g>
<path style="fill:#EA9D2D;" d="M432,280h-40v-32h40c8.837,0,16,7.163,16,16S440.837,280,432,280z"/>
<path style="fill:#78AA86;" d="M64,184h312c17.673,0,32,14.327,32,32v224l0,0H32l0,0V216C32,198.327,46.327,184,64,184z"/>
<circle style="fill:#89B140;" cx="352" cy="240" r="24"/>
<circle style="fill:#DC4D41;" cx="352" cy="320" r="24"/>
<g>
	<path style="fill:#6B9777;" d="M56,352h16v32H56V352z"/>
	<path style="fill:#6B9777;" d="M88,352h16v32H88V352z"/>
	<path style="fill:#6B9777;" d="M120,352h16v32h-16V352z"/>
</g>
<path style="fill:#B9B9B9;" d="M32,408h376v32H32V408z"/>
<path style="fill:#DA922A;" d="M408,248h16v32h-16V248z"/>
<g>
	<path style="fill:#231F20;" d="M352,208c-17.673,0-32,14.327-32,32s14.327,32,32,32s32-14.327,32-32S369.673,208,352,208z M352,256
		c-8.837,0-16-7.163-16-16c0-8.837,7.163-16,16-16s16,7.163,16,16C368,248.837,360.837,256,352,256z"/>
	<path style="fill:#231F20;" d="M352,288c-17.673,0-32,14.327-32,32s14.327,32,32,32s32-14.327,32-32S369.673,288,352,288z M352,336
		c-8.837,0-16-7.163-16-16s7.163-16,16-16s16,7.163,16,16S360.837,336,352,336z"/>
	<path style="fill:#231F20;" d="M432,240h-16v-24c-0.021-15.886-9.44-30.254-24-36.608v-76.056c23.08-3.935,39.971-23.923,40-47.336
		v-8c-0.026-26.499-21.501-47.974-48-48H160c-23.397,0.043-43.361,16.934-47.28,40H72c-26.499,0.026-47.974,21.501-48,48v8
		c0.029,23.413,16.92,43.401,40,47.336V176c-22.08,0.026-39.974,17.92-40,40v264h48v-32h296v32h48V288h16c13.255,0,24-10.745,24-24
		S445.255,240,432,240L432,240z M160,16h224c17.673,0,32,14.327,32,32v8c0,17.673-14.327,32-32,32h-24v16h16v72h-72v-32.664
		c23.08-3.935,39.971-23.923,40-47.336v-8c-0.026-26.499-21.501-47.974-48-48H129.136C132.773,25.915,145.453,16.055,160,16z M40,96
		v-8c0-17.673,14.327-32,32-32h224c17.673,0,32,14.327,32,32v8c0,17.673-14.327,32-32,32h-24v16h16v32h-68.568l27.352-43.76
		l-13.6-8.48L200.568,176h-29.136l27.352-43.76l-13.6-8.48L152.568,176h-29.136l27.352-43.76l-13.6-8.48L104.568,176H80v-48h-8
		C54.327,128,40,113.673,40,96L40,96z M56,464H40v-16h16V464z M400,464h-16v-16h16V464z M400,432H40v-16h360V432z M400,240v160H40
		V216c0-13.255,10.745-24,24-24h312c13.255,0,24,10.745,24,24V240z M432,272h-16v-16h16c4.418,0,8,3.582,8,8S436.418,272,432,272z"
		/>
	<path style="fill:#231F20;" d="M56,352h16v32H56V352z"/>
	<path style="fill:#231F20;" d="M88,352h16v32H88V352z"/>
	<path style="fill:#231F20;" d="M120,352h16v32h-16V352z"/>
</g>
<g>
</g>
<g>
</g>
<g>
</g>
<g>
</g>
<g>
</g>
<g>
</g>
<g>
</g>
<g>
</g>
<g>
</g>
<g>
</g>
<g>
</g>
<g>
</g>
<g>
</g>
<g>
</g>
<g>
</g>
</svg>
