<?xml version="1.0" encoding="iso-8859-1"?>
<!-- Generator: Adobe Illustrator 19.0.0, SVG Export Plug-In . SVG Version: 6.00 Build 0)  -->
<svg version="1.1" id="Capa_1" xmlns="http://www.w3.org/2000/svg" xmlns:xlink="http://www.w3.org/1999/xlink" x="0px" y="0px"
	 viewBox="0 0 480.095 480.095" style="enable-background:new 0 0 480.095 480.095;" xml:space="preserve">
<path style="fill:#B9B9B9;" d="M240.048,104.095c-2.4,0-4.673-1.078-6.192-2.936l-72-88c-2.744-3.463-2.162-8.494,1.3-11.239
	c3.388-2.685,8.296-2.193,11.084,1.111l65.808,80.432l65.808-80.432c2.744-3.463,7.776-4.045,11.239-1.3
	c3.463,2.744,4.045,7.776,1.3,11.239c-0.051,0.064-0.102,0.127-0.155,0.19l-72,88C244.72,103.017,242.447,104.095,240.048,104.095
	L240.048,104.095z"/>
<path style="fill:#3B869E;" d="M224.048,72.095h32c17.673,0,32,14.327,32,32v24l0,0h-96l0,0v-24
	C192.048,86.422,206.374,72.095,224.048,72.095z"/>
<path style="fill:#1F6C8C;" d="M192.048,104.095v8h96v-8c-0.035-2.704-0.414-5.392-1.128-8h-93.744
	C192.461,98.703,192.082,101.391,192.048,104.095z"/>
<path style="fill:#3B869E;" d="M48.048,424.095h32v48h-32V424.095z"/>
<path style="fill:#1F6C8C;" d="M48.048,424.095h32v32h-32V424.095z"/>
<path style="fill:#3B869E;" d="M408.048,424.095h32v48h-32V424.095z"/>
<path style="fill:#1F6C8C;" d="M408.048,424.095h32v32h-32V424.095z"/>
<g>
	<path style="fill:#EA9D2D;" d="M80.048,112.095h360c17.673,0,32,14.327,32,32v264c0,17.673-14.327,32-32,32h-360
		c-39.764,0-72-32.236-72-72l0,0v-184C8.048,144.331,40.283,112.095,80.048,112.095z"/>
	<path style="fill:#EA9D2D;" d="M336.048,336.095h136l0,0v72c0,17.673-14.327,32-32,32h-104l0,0V336.095L336.048,336.095z"/>
</g>
<path style="fill:#FBB540;" d="M80.048,112.095h256l0,0v328l0,0h-256c-39.764,0-72-32.236-72-72l0,0v-184
	C8.048,144.331,40.283,112.095,80.048,112.095z"/>
<circle style="fill:#B9B9B9;" cx="400.048" cy="176.095" r="32"/>
<g>
	<path style="fill:#D9D9D9;" d="M397.336,144.215c-17.609,1.508-30.66,17.006-29.152,34.615c0.539,6.287,2.924,12.274,6.856,17.209
		l50.608-39C419.072,148.145,408.358,143.292,397.336,144.215z"/>
	<path style="fill:#D9D9D9;" d="M368.048,368.095h72v40h-72V368.095z"/>
</g>
<path style="fill:#8ACED8;" d="M336.048,240.095h136v96h-136V240.095z"/>
<path style="fill:#B3E4E8;" d="M88.048,144.095h168c26.51,0,48,21.49,48,48v168c0,26.51-21.49,48-48,48h-168
	c-26.51,0-48-21.49-48-48v-168C40.048,165.586,61.538,144.095,88.048,144.095z"/>
<g>
	<path style="fill:#6FBBC6;" d="M224.048,368.095h16v16h-16V368.095z"/>
	<path style="fill:#6FBBC6;" d="M256.048,368.095h16v16h-16V368.095z"/>
	<path style="fill:#6FBBC6;" d="M360.048,264.095h16v16h-16V264.095z"/>
	<path style="fill:#6FBBC6;" d="M392.048,264.095h16v16h-16V264.095z"/>
	<path style="fill:#6FBBC6;" d="M424.048,264.095h16v16h-16V264.095z"/>
	<path style="fill:#6FBBC6;" d="M360.048,296.095h16v16h-16V296.095z"/>
	<path style="fill:#6FBBC6;" d="M392.048,296.095h16v16h-16V296.095z"/>
	<path style="fill:#6FBBC6;" d="M424.048,296.095h16v16h-16V296.095z"/>
</g>
<g>
	<path style="fill:#231F20;" d="M440.048,104.095h-144c-0.043-15.372-8.907-29.355-22.792-35.952l44.984-54.984
		c2.849-3.377,2.421-8.424-0.956-11.273s-8.424-2.421-11.273,0.956c-0.053,0.062-0.104,0.126-0.155,0.19l-49.96,61.064H224.2
		L174.24,3.031c-2.849-3.377-7.896-3.805-11.273-0.956c-3.304,2.788-3.796,7.696-1.111,11.084l44.984,54.984
		c-13.885,6.597-22.749,20.58-22.792,35.952h-104c-44.163,0.049-79.951,35.837-80,80v184c0.03,28.759,15.494,55.29,40.504,69.488
		c-0.303,0.804-0.473,1.653-0.504,2.512v32c0,4.418,3.582,8,8,8h32c4.418,0,8-3.582,8-8v-24h312v24c0,4.418,3.582,8,8,8h32
		c4.418,0,8-3.582,8-8v-24.8c18.611-3.827,31.976-20.199,32-39.2v-264C480.021,122.015,462.128,104.122,440.048,104.095
		L440.048,104.095z M224.048,80.095h32c13.255,0,24,10.745,24,24h-80C200.048,90.84,210.793,80.095,224.048,80.095z M72.048,464.095
		h-16v-16h16V464.095z M328.048,240.095v192h-248c-35.33-0.04-63.96-28.67-64-64v-184c0.04-35.33,28.67-63.96,64-64h248V240.095z
		 M432.048,464.095h-16v-16h16V464.095z M464.048,408.095c0,13.255-10.745,24-24,24h-96v-88h120V408.095z M464.048,328.095h-120v-80
		h120V328.095z M464.048,232.095h-120v-112h96c13.255,0,24,10.745,24,24V232.095z"/>
	<path style="fill:#231F20;" d="M396.656,136.239c-22.012,1.873-38.338,21.235-36.465,43.247
		c1.761,20.702,19.08,36.609,39.857,36.609c1.128,0,2.272,0,3.424-0.144c22.012-1.873,38.337-21.236,36.464-43.248
		s-21.236-38.337-43.248-36.464l0,0L396.656,136.239z M376.136,178.127c-1.121-13.206,8.674-24.821,21.88-25.944
		c0.696-0.064,1.384-0.088,2.072-0.088c4.787,0.023,9.455,1.492,13.392,4.216l-36,27.736
		C376.78,182.14,376.328,180.15,376.136,178.127z M402.08,200.007c-5.095,0.432-10.193-0.8-14.528-3.512l35.456-27.328
		c0.484,1.595,0.803,3.236,0.952,4.896C425.081,187.269,415.285,198.884,402.08,200.007z"/>
	<path style="fill:#231F20;" d="M360.048,264.095h16v16h-16V264.095z"/>
	<path style="fill:#231F20;" d="M392.048,264.095h16v16h-16V264.095z"/>
	<path style="fill:#231F20;" d="M424.048,264.095h16v16h-16V264.095z"/>
	<path style="fill:#231F20;" d="M360.048,296.095h16v16h-16V296.095z"/>
	<path style="fill:#231F20;" d="M392.048,296.095h16v16h-16V296.095z"/>
	<path style="fill:#231F20;" d="M424.048,296.095h16v16h-16V296.095z"/>
	<path style="fill:#231F20;" d="M368.048,416.095h72c4.418,0,8-3.582,8-8v-40c0-4.418-3.582-8-8-8h-72c-4.418,0-8,3.582-8,8v40
		C360.048,412.513,363.629,416.095,368.048,416.095z M376.048,376.095h56v24h-56V376.095z"/>
	<path style="fill:#231F20;" d="M88.048,136.095c-30.913,0.035-55.965,25.087-56,56v168c0.035,30.913,25.087,55.965,56,56h168
		c30.913-0.035,55.965-25.087,56-56v-168c-0.035-30.913-25.087-55.965-56-56H88.048z M296.048,192.095v168
		c-0.026,22.08-17.92,39.974-40,40h-168c-22.08-0.026-39.974-17.92-40-40v-168c0.026-22.08,17.92-39.974,40-40h168
		C278.128,152.122,296.021,170.015,296.048,192.095z"/>
	<path style="fill:#231F20;" d="M224.048,368.095h16v16h-16V368.095z"/>
	<path style="fill:#231F20;" d="M256.048,368.095h16v16h-16V368.095z"/>
</g>
<g>
</g>
<g>
</g>
<g>
</g>
<g>
</g>
<g>
</g>
<g>
</g>
<g>
</g>
<g>
</g>
<g>
</g>
<g>
</g>
<g>
</g>
<g>
</g>
<g>
</g>
<g>
</g>
<g>
</g>
</svg>
