<?xml version="1.0" encoding="iso-8859-1"?>
<!-- Generator: Adobe Illustrator 19.0.0, SVG Export Plug-In . SVG Version: 6.00 Build 0)  -->
<svg version="1.1" id="Capa_1" xmlns="http://www.w3.org/2000/svg" xmlns:xlink="http://www.w3.org/1999/xlink" x="0px" y="0px"
	 viewBox="0 0 480 480" style="enable-background:new 0 0 480 480;" xml:space="preserve">
<path style="fill:#DBDBDB;" d="M188,456H52v-48h16v32h104v-40h16V456z"/>
<path style="fill:#428DC5;" d="M100,144h88v232h-88V144z"/>
<path style="fill:#277BAA;" d="M140,144h40v232h-40V144z"/>
<path style="fill:#EBEBEB;" d="M212,8h200v120H212V8z"/>
<path style="fill:#D9D9D9;" d="M212,96h200v32H212V96z"/>
<g>
	<path style="fill:#DBDBDB;" d="M236,72h152v16H236V72z"/>
	<path style="fill:#DBDBDB;" d="M236,40h152v16H236V40z"/>
</g>
<path style="fill:#EBEBEB;" d="M212,392h200v80H212V392z"/>
<path style="fill:#D9D9D9;" d="M212,392h200v32H212V392z"/>
<path style="fill:#DBDBDB;" d="M236,432h152v16H236V432z"/>
<g>
	<path style="fill:#4799CF;" d="M164,112h296v296H164V112z"/>
	<path style="fill:#4799CF;" d="M52,104h32c17.673,0,32,14.327,32,32v248c0,17.673-14.327,32-32,32H52c-17.673,0-32-14.327-32-32
		V136C20,118.327,34.327,104,52,104z"/>
</g>
<g>
	<path style="fill:#6CBAE5;" d="M220,144h176v40H220V144z"/>
	<path style="fill:#6CBAE5;" d="M44,128h16v16H44V128z"/>
	<path style="fill:#6CBAE5;" d="M68,152h16v16H68V152z"/>
	<path style="fill:#6CBAE5;" d="M420,368h16v16h-16V368z"/>
	<path style="fill:#6CBAE5;" d="M420,336h16v16h-16V336z"/>
	<path style="fill:#6CBAE5;" d="M44,176h16v16H44V176z"/>
</g>
<g>
	<circle style="fill:#F3AF3E;" cx="244" cy="296" r="16"/>
	<circle style="fill:#F3AF3E;" cx="308" cy="296" r="16"/>
	<circle style="fill:#F3AF3E;" cx="372" cy="296" r="16"/>
	<circle style="fill:#F3AF3E;" cx="244" cy="232" r="16"/>
	<circle style="fill:#F3AF3E;" cx="308" cy="232" r="16"/>
	<circle style="fill:#F3AF3E;" cx="372" cy="232" r="16"/>
	<circle style="fill:#F3AF3E;" cx="372" cy="360" r="16"/>
	<circle style="fill:#F3AF3E;" cx="308" cy="360" r="16"/>
	<circle style="fill:#F3AF3E;" cx="244" cy="360" r="16"/>
</g>
<g>
	<path style="fill:#231F20;" d="M420,0H204v104h-48v32h-32c-0.026-22.08-17.92-39.974-40-40H52c-22.08,0.026-39.974,17.92-40,40v248
		c0.026,22.08,17.92,39.974,40,40v32h136v-40h16v64h216v-64h48V104h-48V0z M220,16h184v88H220V16z M124,152h32v216h-32V152z M28,384
		V136c0-13.255,10.745-24,24-24h32c13.255,0,24,10.745,24,24v248c0,13.255-10.745,24-24,24H52C38.745,408,28,397.255,28,384z
		 M172,440H68v-16h16c22.08-0.026,39.974-17.92,40-40h32v32h16V440z M404,464H220v-48h184V464z M452,120v280H172V120H452z"/>
	<path style="fill:#231F20;" d="M236,432h152v16H236V432z"/>
	<path style="fill:#231F20;" d="M236,72h152v16H236V72z"/>
	<path style="fill:#231F20;" d="M236,40h152v16H236V40z"/>
	<path style="fill:#231F20;" d="M212,192h192v-56H212V192z M228,152h160v24H228V152z"/>
	<path style="fill:#231F20;" d="M244,272c-13.255,0-24,10.745-24,24s10.745,24,24,24c13.255,0,24-10.745,24-24S257.255,272,244,272z
		 M244,304c-4.418,0-8-3.582-8-8s3.582-8,8-8s8,3.582,8,8S248.418,304,244,304z"/>
	<path style="fill:#231F20;" d="M308,272c-13.255,0-24,10.745-24,24s10.745,24,24,24s24-10.745,24-24S321.255,272,308,272z M308,304
		c-4.418,0-8-3.582-8-8s3.582-8,8-8s8,3.582,8,8S312.418,304,308,304z"/>
	<path style="fill:#231F20;" d="M372,272c-13.255,0-24,10.745-24,24s10.745,24,24,24s24-10.745,24-24S385.255,272,372,272z M372,304
		c-4.418,0-8-3.582-8-8s3.582-8,8-8s8,3.582,8,8S376.418,304,372,304z"/>
	<path style="fill:#231F20;" d="M244,208c-13.255,0-24,10.745-24,24c0,13.255,10.745,24,24,24c13.255,0,24-10.745,24-24
		C268,218.745,257.255,208,244,208z M244,240c-4.418,0-8-3.582-8-8s3.582-8,8-8s8,3.582,8,8S248.418,240,244,240z"/>
	<path style="fill:#231F20;" d="M308,208c-13.255,0-24,10.745-24,24c0,13.255,10.745,24,24,24s24-10.745,24-24
		C332,218.745,321.255,208,308,208z M308,240c-4.418,0-8-3.582-8-8s3.582-8,8-8s8,3.582,8,8S312.418,240,308,240z"/>
	<path style="fill:#231F20;" d="M372,208c-13.255,0-24,10.745-24,24c0,13.255,10.745,24,24,24s24-10.745,24-24
		C396,218.745,385.255,208,372,208z M372,240c-4.418,0-8-3.582-8-8s3.582-8,8-8s8,3.582,8,8S376.418,240,372,240z"/>
	<path style="fill:#231F20;" d="M372,336c-13.255,0-24,10.745-24,24s10.745,24,24,24s24-10.745,24-24S385.255,336,372,336z M372,368
		c-4.418,0-8-3.582-8-8s3.582-8,8-8s8,3.582,8,8S376.418,368,372,368z"/>
	<path style="fill:#231F20;" d="M308,336c-13.255,0-24,10.745-24,24s10.745,24,24,24s24-10.745,24-24S321.255,336,308,336z M308,368
		c-4.418,0-8-3.582-8-8s3.582-8,8-8s8,3.582,8,8S312.418,368,308,368z"/>
	<path style="fill:#231F20;" d="M244,336c-13.255,0-24,10.745-24,24s10.745,24,24,24c13.255,0,24-10.745,24-24S257.255,336,244,336z
		 M244,368c-4.418,0-8-3.582-8-8s3.582-8,8-8s8,3.582,8,8S248.418,368,244,368z"/>
	<path style="fill:#231F20;" d="M44,128h16v16H44V128z"/>
	<path style="fill:#231F20;" d="M68,152h16v16H68V152z"/>
	<path style="fill:#231F20;" d="M420,368h16v16h-16V368z"/>
	<path style="fill:#231F20;" d="M420,336h16v16h-16V336z"/>
	<path style="fill:#231F20;" d="M44,176h16v16H44V176z"/>
</g>
<g>
</g>
<g>
</g>
<g>
</g>
<g>
</g>
<g>
</g>
<g>
</g>
<g>
</g>
<g>
</g>
<g>
</g>
<g>
</g>
<g>
</g>
<g>
</g>
<g>
</g>
<g>
</g>
<g>
</g>
</svg>
