<?xml version="1.0" encoding="iso-8859-1"?>
<!-- Generator: Adobe Illustrator 19.0.0, SVG Export Plug-In . SVG Version: 6.00 Build 0)  -->
<svg version="1.1" id="Capa_1" xmlns="http://www.w3.org/2000/svg" xmlns:xlink="http://www.w3.org/1999/xlink" x="0px" y="0px"
	 viewBox="0 0 480 480" style="enable-background:new 0 0 480 480;" xml:space="preserve">
<path style="fill:#428DC5;" d="M24,368h32v48H24V368z"/>
<path style="fill:#277BAA;" d="M24,352h32v48H24V352z"/>
<path style="fill:#428DC5;" d="M424,360h32v56h-32V360z"/>
<path style="fill:#277BAA;" d="M424,344h32v56h-32V344z"/>
<path style="fill:#EBEBEB;" d="M40,64h400c17.673,0,32,14.327,32,32v256c0,17.673-14.327,32-32,32H40c-17.673,0-32-14.327-32-32V96
	C8,78.327,22.327,64,40,64z"/>
<path style="fill:#F3AF3E;" d="M56,112h272v224H56V112z"/>
<g>
	<circle style="fill:#D9D9D9;" cx="400" cy="144" r="32"/>
	<circle style="fill:#D9D9D9;" cx="400" cy="240" r="32"/>
</g>
<g>
	<path style="fill:#B9B9B9;" d="M368,296h64v16h-64V296z"/>
	<path style="fill:#B9B9B9;" d="M368,328h64v16h-64V328z"/>
</g>
<path style="fill:#EA9D2D;" d="M56,280h272v56H56V280z"/>
<g>
	<path style="fill:#B9B9B9;" d="M392,104h16v40h-16V104z"/>
	<path style="fill:#B9B9B9;" d="M392,200h16v40h-16V200z"/>
</g>
<path style="fill:#F7BA61;" d="M326.304,112H56v154.664C238.96,238.208,304.04,167.072,326.304,112z"/>
<g>
	<path style="fill:#231F20;" d="M440,56H40C17.92,56.026,0.026,73.92,0,96v256c0.036,12.524,5.963,24.301,16,31.792V424h48v-32h352
		v32h48v-40.208c10.037-7.491,15.964-19.268,16-31.792V96C479.974,73.92,462.08,56.026,440,56z M48,408H32v-16h16V408z M448,408h-16
		v-16h16V408z M464,352c0,13.255-10.745,24-24,24H40c-13.255,0-24-10.745-24-24V96c0-13.255,10.745-24,24-24h400
		c13.255,0,24,10.745,24,24V352z"/>
	<path style="fill:#231F20;" d="M48,272v72h288V104H48V272z M64,120h256v152H64V120z M64,288h256v40H64V288z"/>
	<path style="fill:#231F20;" d="M400,104c-22.091,0-40,17.909-40,40s17.909,40,40,40s40-17.909,40-40
		C439.974,121.92,422.08,104.026,400,104z M400,168c-13.224,0.025-23.964-10.675-23.989-23.899
		c-0.019-10.174,6.393-19.249,15.989-22.629V144h16v-22.528c12.473,4.393,19.023,18.066,14.629,30.539
		C419.249,161.607,410.174,168.019,400,168z"/>
	<path style="fill:#231F20;" d="M400,200c-22.091,0-40,17.909-40,40s17.909,40,40,40s40-17.909,40-40
		C439.974,217.92,422.08,200.026,400,200z M400,264c-13.224,0.025-23.964-10.675-23.989-23.899
		c-0.019-10.174,6.393-19.249,15.989-22.629V240h16v-22.528c12.473,4.393,19.023,18.066,14.629,30.539
		C419.249,257.607,410.174,264.019,400,264z"/>
	<path style="fill:#231F20;" d="M368,296h64v16h-64V296z"/>
	<path style="fill:#231F20;" d="M368,328h64v16h-64V328z"/>
</g>
<g>
</g>
<g>
</g>
<g>
</g>
<g>
</g>
<g>
</g>
<g>
</g>
<g>
</g>
<g>
</g>
<g>
</g>
<g>
</g>
<g>
</g>
<g>
</g>
<g>
</g>
<g>
</g>
<g>
</g>
</svg>
