<?xml version="1.0" encoding="iso-8859-1"?>
<!-- Generator: Adobe Illustrator 19.0.0, SVG Export Plug-In . SVG Version: 6.00 Build 0)  -->
<svg version="1.1" id="Capa_1" xmlns="http://www.w3.org/2000/svg" xmlns:xlink="http://www.w3.org/1999/xlink" x="0px" y="0px"
	 viewBox="0 0 432 432" style="enable-background:new 0 0 432 432;" xml:space="preserve">
<g>
	<path style="fill:#428DC5;" d="M240,56h-48V32c0-8.837,7.163-16,16-16h16c8.837,0,16,7.163,16,16V56z"/>
	<path style="fill:#428DC5;" d="M360,112h64v32h-64V112z"/>
	<path style="fill:#428DC5;" d="M8,112h64v32H8V112z"/>
</g>
<g>
	<path style="fill:#277BAA;" d="M344,368h32v48h-32V368z"/>
	<path style="fill:#277BAA;" d="M56,368h32v48H56V368z"/>
</g>
<path style="fill:#EBEBEB;" d="M56,80h320v272H56V80z"/>
<path style="fill:#B9B9B9;" d="M160,192h112v128H160V192z"/>
<path style="fill:#A8A8A8;" d="M184,216h64v16h-64V216z"/>
<g>
	<path style="fill:#4799CF;" d="M88,48h256c17.673,0,32,14.327,32,32v32l0,0H56l0,0V80C56,62.327,70.327,48,88,48z"/>
	<path style="fill:#4799CF;" d="M56,352h320v32H56V352z"/>
</g>
<path style="fill:#F4CA62;" d="M248,296h-64v-48h64V296z"/>
<path style="fill:#D9D9D9;" d="M56,112h320v24H56V112z"/>
<path style="fill:#277BAA;" d="M192,32h48v16h-48V32z"/>
<g>
	<path style="fill:#231F20;" d="M280,184H152v144h128V184z M264,312h-96V200h96V312z"/>
	<path style="fill:#231F20;" d="M184,216h64v16h-64V216z"/>
	<path style="fill:#231F20;" d="M248,248h-64v48h64V248z M232,280h-32v-16h32V280z"/>
	<path style="fill:#231F20;" d="M384,80c-0.026-22.08-17.92-39.974-40-40h-96v-8c0-13.255-10.745-24-24-24h-16
		c-13.255,0-24,10.745-24,24v8H88c-22.08,0.026-39.974,17.92-40,40v24H0v48h48v272h48v-32h240v32h48V152h48v-48h-48V80z M48,136H16
		v-16h32V136z M200,32c0-4.418,3.582-8,8-8h16c4.418,0,8,3.582,8,8v8h-32V32z M80,408H64v-16h16V408z M368,408h-16v-16h16V408z
		 M368,376H64v-16h304V376z M368,152v192H64V120h304V152z M368,104H64V80c0-13.255,10.745-24,24-24h256c13.255,0,24,10.745,24,24
		V104z M416,120v16h-32v-16H416z"/>
</g>
<g>
</g>
<g>
</g>
<g>
</g>
<g>
</g>
<g>
</g>
<g>
</g>
<g>
</g>
<g>
</g>
<g>
</g>
<g>
</g>
<g>
</g>
<g>
</g>
<g>
</g>
<g>
</g>
<g>
</g>
</svg>
