<?xml version="1.0" encoding="iso-8859-1"?>
<!-- Generator: Adobe Illustrator 19.0.0, SVG Export Plug-In . SVG Version: 6.00 Build 0)  -->
<svg version="1.1" id="Capa_1" xmlns="http://www.w3.org/2000/svg" xmlns:xlink="http://www.w3.org/1999/xlink" x="0px" y="0px"
	 viewBox="0 0 480 480" style="enable-background:new 0 0 480 480;" xml:space="preserve">
<path style="fill:#EAEAE8;" d="M40,68h400c17.673,0,32,14.327,32,32v144c0,17.673-14.327,32-32,32H40c-17.673,0-32-14.327-32-32V100
	C8,82.327,22.327,68,40,68z"/>
<path style="fill:#6FBBC6;" d="M64,228h352v80H64V228z"/>
<g>
	<path style="fill:#8ACED8;" d="M64,276h352v32H64V276z"/>
	<path style="fill:#8ACED8;" d="M8,148h464v32H8V148z"/>
</g>
<path style="fill:#F7BA61;" d="M400,108h16v16h-16V108z"/>
<path style="fill:#79A73A;" d="M432,108h16v16h-16V108z"/>
<g>
	<path style="fill:#B3E4E8;" d="M232,332h16v88h-16V332z"/>
	<path style="fill:#B3E4E8;" d="M70.856,416.12l-13.712-8.24l3.48-5.792C73.299,380.947,79.996,356.761,80,332.112L96,332
		c0.015,27.588-7.474,54.661-21.664,78.32L70.856,416.12z"/>
	<path style="fill:#B3E4E8;" d="M409.144,416.12l-3.48-5.8C391.488,386.696,384,359.663,384,332.112L400,332v0.112
		c0.004,24.649,6.701,48.835,19.376,69.976l3.48,5.792L409.144,416.12z"/>
</g>
<g>
	<path style="fill:#231F20;" d="M440,60H40C17.92,60.026,0.026,77.92,0,100v144c0.026,22.08,17.92,39.974,40,40h16v32h368v-32h16
		c22.08-0.026,39.974-17.92,40-40V100C479.974,77.92,462.08,60.026,440,60z M408,300H72v-16h336V300z M408,268H72v-32h336V268z
		 M464,244c0,13.255-10.745,24-24,24h-16v-48H56v48H40c-13.255,0-24-10.745-24-24v-56h448V244z M464,172H16v-16h448V172z M464,140
		H16v-40c0-13.255,10.745-24,24-24h400c13.255,0,24,10.745,24,24V140z"/>
	<path style="fill:#231F20;" d="M400,108h16v16h-16V108z"/>
	<path style="fill:#231F20;" d="M432,108h16v16h-16V108z"/>
	<path style="fill:#231F20;" d="M232,332h16v88h-16V332z"/>
	<path style="fill:#231F20;" d="M96,332l-16,0.112c-0.004,24.649-6.701,48.835-19.376,69.976l-3.48,5.792l13.712,8.24l3.48-5.8
		C88.526,386.661,96.015,359.588,96,332z"/>
	<path style="fill:#231F20;" d="M384,332.112c0,27.551,7.488,54.584,21.664,78.208l3.48,5.8l13.712-8.24l-3.48-5.792
		c-12.675-21.141-19.372-45.327-19.376-69.976V332L384,332.112z"/>
</g>
<g>
</g>
<g>
</g>
<g>
</g>
<g>
</g>
<g>
</g>
<g>
</g>
<g>
</g>
<g>
</g>
<g>
</g>
<g>
</g>
<g>
</g>
<g>
</g>
<g>
</g>
<g>
</g>
<g>
</g>
</svg>
