<?xml version="1.0" encoding="iso-8859-1"?>
<!-- Generator: Adobe Illustrator 19.0.0, SVG Export Plug-In . SVG Version: 6.00 Build 0)  -->
<svg version="1.1" id="Capa_1" xmlns="http://www.w3.org/2000/svg" xmlns:xlink="http://www.w3.org/1999/xlink" x="0px" y="0px"
	 viewBox="0 0 512 512" style="enable-background:new 0 0 512 512;" xml:space="preserve">
<polygon style="fill:#999999;" points="384.5,407 444.5,377 444.5,332 414.5,332 "/>
<polygon style="fill:#B3B3B3;" points="414.5,407 361.5,377 361.5,332 414.5,332 "/>
<polygon style="fill:#4F4F4F;" points="444.5,482 414.5,482 384.5,429.5 414.5,377 444.5,377 "/>
<rect x="361.5" y="377" style="fill:#696969;" width="53" height="105"/>
<polygon style="fill:#B3B3B3;" points="474.5,255 399.5,255 444.5,300 474.5,300 "/>
<g>
	<rect x="37.5" y="255" style="fill:#CCCCCC;" width="407" height="45"/>
	<polygon style="fill:#CCCCCC;" points="350.5,194.994 350.5,255 410.5,255 410.5,195 	"/>
</g>
<polygon style="fill:#EBEBEB;" points="474.5,210 444.5,210 414.5,150 474.5,180 "/>
<polygon style="fill:#FFFFFF;" points="444.5,210 286.5,210 286.5,180 444.5,150 "/>
<polygon style="fill:#A8E5FF;" points="444.498,180 399.495,120 444.498,60 474.5,60 474.5,180 "/>
<polygon style="fill:#DBF4FF;" points="286.5,180 286.5,60 444.5,60 444.5,180 406.5,180 361.5,150 316.5,180 "/>
<polygon style="fill:#FF8646;" points="316.5,150 316.5,180 346.5,180 376.5,150 "/>
<polygon style="fill:#49C9FF;" points="346.5,120 346.5,180 376.5,180 391.5,120 "/>
<rect x="376.5" y="90" style="fill:#FF8646;" width="30" height="90"/>
<polygon style="fill:#353535;" points="474.5,240 444.5,255 474.5,270 504.5,270 504.5,240 "/>
<g>
	<rect x="7.5" y="240" style="fill:#4F4F4F;" width="467" height="30"/>
	<circle style="fill:#4F4F4F;" cx="76.5" cy="467" r="15"/>
</g>
<circle style="fill:#353535;" cx="286.5" cy="467" r="15"/>
<circle style="fill:#4F4F4F;" cx="181.5" cy="467" r="15"/>
<rect x="166.5" y="315" style="fill:#CCCCCC;" width="30" height="107"/>
<path style="fill:#C27749;" d="M181.5,30l-15,135l40-15c11,0,20-9,20-20V75C226.5,50.147,206.353,30,181.5,30z"/>
<path style="fill:#E18F4E;" d="M181.5,30c-24.853,0-45,20.147-45,45v55c0,11,9,20,20,20l10,15l10-15c11,0,20-9,20-20V75
	C196.5,50.147,189.784,30,181.5,30z"/>
<path style="fill:#FFCB63;" d="M206.5,150h-30l-20,90h70v-70C226.5,158.954,217.546,150,206.5,150z"/>
<path style="fill:#FFE2A8;" d="M176.5,150h-20c-11.046,0-20,8.954-20,20v70h60v-70C196.5,158.954,187.546,150,176.5,150z"/>
<path style="fill:#1990C2;" d="M226.5,195h-30l30,165h30V225C256.5,208.5,243,195,226.5,195z"/>
<path style="fill:#2DADE3;" d="M196.5,195h-60c-16.5,0-30,13.5-30,30v135h120V225C226.5,208.5,213,195,196.5,195z"/>
<path d="M444.5,324.5h-83c-4.143,0-7.5,3.357-7.5,7.5v150c0,4.143,3.357,7.5,7.5,7.5h83c4.143,0,7.5-3.357,7.5-7.5V332
	C452,327.857,448.643,324.5,444.5,324.5z M437,339.5v30h-68v-30H437z M369,474.5v-90h68v90H369z"/>
<circle cx="403" cy="452" r="7.5"/>
<path d="M436.5,97.5h8c4.143,0,7.5-3.357,7.5-7.5s-3.357-7.5-7.5-7.5h-8c-4.143,0-7.5,3.357-7.5,7.5S432.357,97.5,436.5,97.5z"/>
<path d="M436.5,127.5h8c4.143,0,7.5-3.357,7.5-7.5s-3.357-7.5-7.5-7.5h-8c-4.143,0-7.5,3.357-7.5,7.5S432.357,127.5,436.5,127.5z"/>
<path d="M504.5,232.5H418v-15h56.5c4.143,0,7.5-3.357,7.5-7.5V60c0-4.143-3.357-7.5-7.5-7.5h-188c-4.143,0-7.5,3.357-7.5,7.5v150
	c0,4.143,3.357,7.5,7.5,7.5H343v15h-79V225c0-18.11-12.904-33.261-30-36.745V170c0-7.875-3.332-14.982-8.655-20
	c5.323-5.018,8.655-12.125,8.655-20V75c0-28.948-23.551-52.5-52.5-52.5S129,46.052,129,75v55c0,7.875,3.332,14.982,8.655,20
	c-5.323,5.018-8.655,12.125-8.655,20v18.255C111.904,191.739,99,206.89,99,225v7.5H7.5c-4.142,0-7.5,3.357-7.5,7.5v30
	c0,4.143,3.358,7.5,7.5,7.5H30V482c0,4.143,3.358,7.5,7.5,7.5s7.5-3.357,7.5-7.5V307.5h24V345c0,12.406,10.093,22.5,22.5,22.5H124
	v47h-17.5C94.093,414.5,84,424.594,84,437v8.79c-2.347-0.833-4.871-1.29-7.5-1.29C64.093,444.5,54,454.594,54,467
	s10.093,22.5,22.5,22.5S99,479.406,99,467v-30c0-4.136,3.364-7.5,7.5-7.5H174v16.29c-8.729,3.096-15,11.433-15,21.21
	c0,12.406,10.093,22.5,22.5,22.5S204,479.406,204,467c0-9.777-6.271-18.114-15-21.21V429.5h67.5c4.136,0,7.5,3.364,7.5,7.5v30
	c0,12.406,10.094,22.5,22.5,22.5S309,479.406,309,467s-10.094-22.5-22.5-22.5c-2.629,0-5.153,0.458-7.5,1.29V437
	c0-12.406-10.094-22.5-22.5-22.5H239v-47h32.5c12.406,0,22.5-10.094,22.5-22.5v-37.5h173V482c0,4.143,3.357,7.5,7.5,7.5
	s7.5-3.357,7.5-7.5V277.5h22.5c4.143,0,7.5-3.357,7.5-7.5v-30C512,235.857,508.643,232.5,504.5,232.5z M76.5,474.5
	c-4.136,0-7.5-3.364-7.5-7.5s3.364-7.5,7.5-7.5s7.5,3.364,7.5,7.5S80.636,474.5,76.5,474.5z M181.5,474.5
	c-4.136,0-7.5-3.364-7.5-7.5s3.364-7.5,7.5-7.5s7.5,3.364,7.5,7.5S185.636,474.5,181.5,474.5z M286.5,459.5
	c4.136,0,7.5,3.364,7.5,7.5s-3.364,7.5-7.5,7.5s-7.5-3.364-7.5-7.5S282.364,459.5,286.5,459.5z M467,67.5v105h-53V90
	c0-4.143-3.357-7.5-7.5-7.5h-30c-4.143,0-7.5,3.357-7.5,7.5v22.5h-22.5c-4.143,0-7.5,3.357-7.5,7.5v22.5h-22.5
	c-4.143,0-7.5,3.357-7.5,7.5v22.5h-15v-105H467z M384,172.5v-75h15v75H384z M354,172.5v-45h15v45H354z M324,172.5v-15h15v15H324z
	 M294,187.5h173v15H294V187.5z M358,217.5h45v15h-45V217.5z M144,130V75c0-20.678,16.822-37.5,37.5-37.5S219,54.322,219,75v55
	c0,6.893-5.607,12.5-12.5,12.5h-50C149.607,142.5,144,136.893,144,130z M206.5,157.5c6.893,0,12.5,5.607,12.5,12.5v17.5h-75V170
	c0-6.893,5.607-12.5,12.5-12.5H206.5z M114,225c0-12.406,10.093-22.5,22.5-22.5h90c12.407,0,22.5,10.094,22.5,22.5v127.5H114V225z
	 M174,414.5v-47h15v47H174z M15,247.5h84v15H15V247.5z M45,277.5h54v15H45V277.5z M84,345v-37.5h15v45h-7.5
	C87.364,352.5,84,349.136,84,345z M139,367.5h20v47h-20V367.5z M224,414.5h-20v-47h20V414.5z M279,345c0,4.136-3.364,7.5-7.5,7.5
	H264v-45h15V345z M497,262.5H286.5c-4.143,0-7.5,3.357-7.5,7.5s3.357,7.5,7.5,7.5H467v15H264v-45h233V262.5z"/>
<g>
</g>
<g>
</g>
<g>
</g>
<g>
</g>
<g>
</g>
<g>
</g>
<g>
</g>
<g>
</g>
<g>
</g>
<g>
</g>
<g>
</g>
<g>
</g>
<g>
</g>
<g>
</g>
<g>
</g>
</svg>
