<?xml version="1.0" encoding="iso-8859-1"?>
<!-- Generator: Adobe Illustrator 19.0.0, SVG Export Plug-In . SVG Version: 6.00 Build 0)  -->
<svg version="1.1" id="Layer_1" xmlns="http://www.w3.org/2000/svg" xmlns:xlink="http://www.w3.org/1999/xlink" x="0px" y="0px"
	 viewBox="0 0 503.467 503.467" style="enable-background:new 0 0 503.467 503.467;" xml:space="preserve">
<g transform="translate(1 1)">
	<path style="fill:#E4F2DE;" d="M498.2,105.667v375.467c0-9.387-7.68-17.067-17.067-17.067c-3.413,0-6.827,0.853-9.387,2.56
		C469.187,455.533,458.947,447,447,447c-11.947,0-22.187,8.533-24.747,19.627c-2.56-1.707-5.973-2.56-9.387-2.56
		c-9.387,0-17.067,7.68-17.067,17.067h-17.067h-17.067V105.667H498.2L498.2,105.667z M3.267,105.667H139.8V498.2H3.267V105.667
		L3.267,105.667z M208.067,361.667v119.467H139.8V105.667V3.267h221.867v102.4v375.467H293.4V361.667H208.067L208.067,361.667z"/>
	<polygon style="fill:#C49AE9;" points="208.067,481.133 293.4,481.133 293.4,361.667 208.067,361.667 	"/>
	<path style="fill:#7EE1E6;" d="M481.133,464.067c9.387,0,17.067,7.68,17.067,17.067s-7.68,17.067-17.067,17.067h-68.267
		c-9.387,0-17.067-7.68-17.067-17.067s7.68-17.067,17.067-17.067c3.413,0,6.827,0.853,9.387,2.56
		C424.813,455.533,435.053,447,447,447c11.947,0,22.187,8.533,24.747,19.627C474.307,464.92,477.72,464.067,481.133,464.067z
		 M37.4,310.467c25.6,0,34.133,68.267,34.133,102.4C71.533,431.64,56.173,447,37.4,447S3.267,431.64,3.267,412.867
		C3.267,378.733,11.8,310.467,37.4,310.467z"/>
	<path style="fill:#C49AE9;" d="M54.467,156.867H88.6v51.2H54.467V156.867z M412.867,259.267H447v51.2h-34.133V259.267z
		 M412.867,361.667H447v51.2h-34.133V361.667z M412.867,156.867H447v51.2h-34.133V156.867z M54.467,259.267H88.6v51.2H54.467
		V259.267z M191,259.267h34.133v51.2H191V259.267z M191,54.467h34.133v51.2H191V54.467z M276.333,54.467h34.133v51.2h-34.133V54.467
		z M276.333,259.267h34.133v51.2h-34.133V259.267z M276.333,156.867h34.133v51.2h-34.133V156.867z M191,156.867h34.133v51.2H191
		V156.867z"/>
	<rect x="122.733" y="481.133" style="fill:#E4F2DE;" width="256" height="17.067"/>
</g>
<path style="fill:#51565F;" d="M482.133,503.467h-68.267c-11.947,0-21.333-9.387-21.333-21.333s9.387-21.333,21.333-21.333
	c2.56,0,4.267,0,6.827,0.853c4.267-11.093,15.36-17.92,27.307-17.92c11.947,0,23.04,6.827,27.307,17.92
	c6.827-2.56,14.507-0.853,19.627,3.413V110.933H396.8c-2.56,0-4.267-1.707-4.267-4.267s1.707-4.267,4.267-4.267h102.4
	c2.56,0,4.267,1.707,4.267,4.267v375.467C503.467,494.08,494.08,503.467,482.133,503.467z M413.867,469.333
	c-6.827,0-12.8,5.973-12.8,12.8s5.973,12.8,12.8,12.8h68.267c6.827,0,12.8-5.973,12.8-12.8s-5.973-12.8-12.8-12.8
	c-2.56,0-5.12,0.853-6.827,1.707c-0.853,0.853-2.56,0.853-4.267,0c-1.707-0.853-2.56-1.707-2.56-3.413
	c-2.56-9.387-11.093-16.213-20.48-16.213s-18.773,6.827-20.48,16.213c0,1.707-0.853,2.56-2.56,3.413s-2.56,0-4.267,0
	C418.987,470.187,416.427,469.333,413.867,469.333z M123.733,503.467c-2.56,0-4.267-1.707-4.267-4.267v-17.067
	c0-2.56,1.707-4.267,4.267-4.267h238.933c2.56,0,4.267,1.707,4.267,4.267s-1.707,4.267-4.267,4.267H128v12.8
	C128,501.76,126.293,503.467,123.733,503.467z M38.4,503.467c-2.56,0-4.267-1.707-4.267-4.267v-46.933
	C15.36,449.707,0,433.493,0,413.867C0,384,6.827,307.2,38.4,307.2S76.8,384,76.8,413.867c0,19.627-15.36,35.84-34.133,38.4V499.2
	C42.667,501.76,40.96,503.467,38.4,503.467z M38.4,315.733c-19.627,0-29.867,58.027-29.867,98.133
	c0,16.213,13.653,29.867,29.867,29.867s29.867-13.653,29.867-29.867C68.267,373.76,58.027,315.733,38.4,315.733z M362.667,452.267
	c-2.56,0-4.267-1.707-4.267-4.267V8.533H145.067V448c0,2.56-1.707,4.267-4.267,4.267c-2.56,0-4.267-1.707-4.267-4.267V4.267
	c0-2.56,1.707-4.267,4.267-4.267h221.867c2.56,0,4.267,1.707,4.267,4.267V448C366.933,450.56,365.227,452.267,362.667,452.267z
	 M294.4,452.267c-2.56,0-4.267-1.707-4.267-4.267v-81.067h-76.8V448c0,2.56-1.707,4.267-4.267,4.267S204.8,450.56,204.8,448v-81.067
	h-29.867c-2.56,0-4.267-1.707-4.267-4.267s1.707-4.267,4.267-4.267h153.6c2.56,0,4.267,1.707,4.267,4.267s-1.707,4.267-4.267,4.267
	h-29.867V448C298.667,450.56,296.96,452.267,294.4,452.267z M448,418.133h-34.133c-2.56,0-4.267-1.707-4.267-4.267v-51.2
	c0-2.56,1.707-4.267,4.267-4.267H448c2.56,0,4.267,1.707,4.267,4.267v51.2C452.267,416.427,450.56,418.133,448,418.133z
	 M418.133,409.6h25.6v-42.667h-25.6V409.6z M448,315.733h-34.133c-2.56,0-4.267-1.707-4.267-4.267v-51.2
	c0-2.56,1.707-4.267,4.267-4.267H448c2.56,0,4.267,1.707,4.267,4.267v51.2C452.267,314.027,450.56,315.733,448,315.733z
	 M418.133,307.2h25.6v-42.667h-25.6V307.2z M311.467,315.733h-34.133c-2.56,0-4.267-1.707-4.267-4.267v-51.2
	c0-2.56,1.707-4.267,4.267-4.267h34.133c2.56,0,4.267,1.707,4.267,4.267v51.2C315.733,314.027,314.027,315.733,311.467,315.733z
	 M281.6,307.2h25.6v-42.667h-25.6V307.2z M226.133,315.733H192c-2.56,0-4.267-1.707-4.267-4.267v-51.2
	c0-2.56,1.707-4.267,4.267-4.267h34.133c2.56,0,4.267,1.707,4.267,4.267v51.2C230.4,314.027,228.693,315.733,226.133,315.733z
	 M196.267,307.2h25.6v-42.667h-25.6V307.2z M89.6,315.733c-2.56,0-4.267-1.707-4.267-4.267v-46.933h-25.6v12.8
	c0,2.56-1.707,4.267-4.267,4.267c-2.56,0-4.267-1.707-4.267-4.267v-17.067c0-2.56,1.707-4.267,4.267-4.267H89.6
	c2.56,0,4.267,1.707,4.267,4.267v51.2C93.867,314.027,92.16,315.733,89.6,315.733z M4.267,281.6c-2.56,0-4.267-1.707-4.267-4.267
	V106.667c0-2.56,1.707-4.267,4.267-4.267h102.4c2.56,0,4.267,1.707,4.267,4.267s-1.707,4.267-4.267,4.267H8.533v166.4
	C8.533,279.893,6.827,281.6,4.267,281.6z M448,213.333h-34.133c-2.56,0-4.267-1.707-4.267-4.267v-51.2
	c0-2.56,1.707-4.267,4.267-4.267H448c2.56,0,4.267,1.707,4.267,4.267v51.2C452.267,211.627,450.56,213.333,448,213.333z
	 M418.133,204.8h25.6v-42.667h-25.6V204.8z M311.467,213.333h-34.133c-2.56,0-4.267-1.707-4.267-4.267v-51.2
	c0-2.56,1.707-4.267,4.267-4.267h34.133c2.56,0,4.267,1.707,4.267,4.267v51.2C315.733,211.627,314.027,213.333,311.467,213.333z
	 M281.6,204.8h25.6v-42.667h-25.6V204.8z M226.133,213.333H192c-2.56,0-4.267-1.707-4.267-4.267v-51.2
	c0-2.56,1.707-4.267,4.267-4.267h34.133c2.56,0,4.267,1.707,4.267,4.267v51.2C230.4,211.627,228.693,213.333,226.133,213.333z
	 M196.267,204.8h25.6v-42.667h-25.6V204.8z M89.6,213.333H55.467c-2.56,0-4.267-1.707-4.267-4.267v-51.2
	c0-2.56,1.707-4.267,4.267-4.267H89.6c2.56,0,4.267,1.707,4.267,4.267v51.2C93.867,211.627,92.16,213.333,89.6,213.333z
	 M59.733,204.8h25.6v-42.667h-25.6V204.8z M311.467,110.933h-34.133c-2.56,0-4.267-1.707-4.267-4.267v-51.2
	c0-2.56,1.707-4.267,4.267-4.267h34.133c2.56,0,4.267,1.707,4.267,4.267v51.2C315.733,109.227,314.027,110.933,311.467,110.933z
	 M281.6,102.4h25.6V59.733h-25.6V102.4z M226.133,110.933H192c-2.56,0-4.267-1.707-4.267-4.267v-51.2
	c0-2.56,1.707-4.267,4.267-4.267h34.133c2.56,0,4.267,1.707,4.267,4.267v51.2C230.4,109.227,228.693,110.933,226.133,110.933z
	 M196.267,102.4h25.6V59.733h-25.6V102.4z"/>
<g>
</g>
<g>
</g>
<g>
</g>
<g>
</g>
<g>
</g>
<g>
</g>
<g>
</g>
<g>
</g>
<g>
</g>
<g>
</g>
<g>
</g>
<g>
</g>
<g>
</g>
<g>
</g>
<g>
</g>
</svg>
