<?xml version="1.0" encoding="iso-8859-1"?>
<!-- Generator: Adobe Illustrator 19.0.0, SVG Export Plug-In . SVG Version: 6.00 Build 0)  -->
<svg version="1.1" id="Capa_1" xmlns="http://www.w3.org/2000/svg" xmlns:xlink="http://www.w3.org/1999/xlink" x="0px" y="0px"
	 viewBox="0 0 468.311 468.311" style="enable-background:new 0 0 468.311 468.311;" xml:space="preserve">
<circle style="fill:#44C4A1;" cx="191.572" cy="84.873" r="84.873"/>
<circle style="fill:#27A2DB;" cx="191.572" cy="84.873" r="56.195"/>
<path style="fill:#FCD462;" d="M341.544,237.413c-0.09-16.741-13.734-30.239-30.475-30.149h0
	c-15.558,0.084-28.166,11.918-29.819,27.02l-0.172-31.891c-0.084-15.588-11.413-29.469-26.909-31.158
	c-17.671-1.925-32.498,11.338-33.53,28.292l0-100.092c0-15.832-11.574-29.97-27.334-31.473c-18.079-1.724-33.29,12.447-33.29,30.17
	v188.191l-25.797-28.141c-16.838-18.367-45.378-19.608-63.745-2.77c-6.313,5.788-6.739,15.597-0.952,21.91l101.306,167.44
	c11.48,14.853,29.194,23.549,47.966,23.549h123.451c33.482,0,60.624-27.142,60.624-60.624v-116.25h-0.058l-0.128-23.725
	c-0.09-16.767-13.708-30.312-30.475-30.312h0c-16.741,0.09-30.238,13.734-30.148,30.475L341.544,237.413z"/>
<g>
	<polygon style="fill:#F6C358;" points="235.815,319.206 220.666,319.206 220.666,198.757 	"/>
	<polygon style="fill:#F6C358;" points="296.536,318.119 281.28,318.119 281.28,234.001 	"/>
	<polygon style="fill:#F6C358;" points="355.888,318.119 342.044,318.119 342.044,266.003 	"/>
</g>
<g>
</g>
<g>
</g>
<g>
</g>
<g>
</g>
<g>
</g>
<g>
</g>
<g>
</g>
<g>
</g>
<g>
</g>
<g>
</g>
<g>
</g>
<g>
</g>
<g>
</g>
<g>
</g>
<g>
</g>
</svg>
